<svg width="155" height="41" viewBox="0 0 155 41" fill="none" xmlns="http://www.w3.org/2000/svg">
<path d="M32.8613 17.7077C32.7484 16.2764 31.9493 15.0634 31.4294 13.7653C29.8958 9.93206 27.7296 6.51856 24.6365 3.74671C23.4488 2.68346 22.2741 1.59802 20.8201 0.882403C19.6102 0.283284 18.5687 0.471895 17.6382 1.43714C16.0769 3.04589 15.6606 5.03556 15.7994 7.19719C15.8549 8.09402 15.9381 8.9927 15.9474 9.89138C16.0195 17.4284 15.8049 24.9711 16.4358 32.4952C16.4849 32.5641 16.5524 32.6179 16.6305 32.6505C16.7086 32.6832 16.7943 32.6934 16.8779 32.6801C17.4329 32.6912 18.0082 32.7522 18.5558 32.6635C19.6121 32.4915 20.6351 32.6487 21.66 32.8484C22.0107 32.9089 22.3714 32.8676 22.6994 32.7293C23.0273 32.591 23.3086 32.3615 23.5099 32.068C23.6449 31.3598 23.5876 30.6479 23.5543 29.9378C23.5339 29.531 23.2675 29.2611 22.9179 29.0669C22.6784 28.9598 22.4498 28.8297 22.2353 28.6786C22.0976 28.5626 21.9968 28.4089 21.9452 28.2365C21.8936 28.064 21.8935 27.8803 21.9448 27.7078C21.9554 27.5737 22.0143 27.4481 22.1106 27.3542C22.2069 27.2603 22.3341 27.2046 22.4684 27.1974C23.3492 27.1367 24.2333 27.1398 25.1138 27.2067C25.5596 27.2473 25.6503 27.619 25.6946 27.9907C25.739 28.3624 25.5855 28.5454 25.2562 28.6767C24.1888 29.0983 23.9483 29.4792 23.9446 30.6294C23.9446 31.0362 24.0371 31.4578 23.8133 31.8424C23.7647 31.915 23.7237 31.9925 23.6912 32.0736C23.6246 32.534 23.5062 32.9445 22.9512 33.0185C20.8737 33.5011 18.7685 33.2348 16.6725 33.2219C16.6357 33.2172 16.5992 33.2098 16.5634 33.1997C16.3266 33.1794 16.3655 33.5603 16.3544 33.9394C16.3174 35.1949 16.3007 36.4523 16.3377 37.7079C16.3988 39.7604 17.7585 40.8218 19.7582 40.4539C21.66 40.1044 23.1898 39.0873 24.5976 37.8373C26.862 35.8255 28.6064 33.3791 30.399 30.9678C31.4812 29.5144 32.2804 27.9519 32.6393 26.173C32.8318 25.065 32.9443 23.9446 32.976 22.8205C33.0516 21.1156 33.0133 19.4075 32.8613 17.7077Z" fill="#7DCE6B"/>
<path d="M71.667 13.9466C72.5032 12.4673 73.3319 10.988 74.1737 9.50867C74.332 9.21213 74.5178 8.93107 74.7286 8.66917C74.8743 8.48295 75.0748 8.3471 75.3018 8.28076C75.5288 8.21441 75.7709 8.22091 75.994 8.29934C76.2228 8.34764 76.4298 8.46899 76.5836 8.6451C76.7374 8.8212 76.8298 9.04252 76.8468 9.27568C76.8697 9.45977 76.8827 9.64495 76.8857 9.83042C77.0016 17.9309 77.1175 26.0319 77.2334 34.1336C77.2666 34.6208 77.2392 35.1102 77.152 35.5907C77.0244 36.1362 76.6711 36.3895 76.0846 36.3618C75.5482 36.3377 75.3151 36.0197 75.2836 35.5297C75.2522 35.0397 75.2411 34.5552 75.2392 34.067C75.2392 27.0908 75.2392 20.1135 75.2392 13.1348V12.4285C74.6183 12.8493 74.1158 13.4223 73.7796 14.0927C73.4503 14.7214 73.1599 15.3723 72.8325 16.0047C72.5254 16.5945 72.2127 17.1826 71.384 17.1142C70.6199 17.055 70.3887 16.4744 70.1371 15.903C69.613 14.7208 69.0888 13.5404 68.5647 12.3619C68.4981 12.214 68.4759 12.0346 68.2927 11.9218C68.006 12.2896 67.8674 12.7514 67.9043 13.2162C68.0522 19.2148 68.0726 25.2152 68.1281 31.2156C68.1392 32.547 68.2594 33.8784 68.1281 35.2079C68.0559 35.9476 67.5731 36.3174 66.8516 36.2212C66.4817 36.1732 66.219 35.9864 66.1635 35.5944C66.1256 35.3546 66.1052 35.1123 66.1024 34.8695C66.079 26.8431 66.0574 18.8154 66.0377 10.7864C66.0377 10.4499 66.021 10.1115 66.0377 9.77495C66.0506 9.25534 66.1154 8.74498 66.674 8.49905C66.9528 8.35956 67.264 8.29779 67.5749 8.32025C67.8858 8.3427 68.1849 8.44855 68.4407 8.62664C68.7874 8.88735 69.0649 9.22889 69.2491 9.62147C69.9484 10.9029 70.6421 12.1881 71.3451 13.4695C71.4154 13.6452 71.4561 13.8412 71.667 13.9466Z" fill="black"/>
<path d="M45.4463 14.3018C45.4463 12.5136 45.4463 10.9733 45.4463 9.43668C45.4463 8.69703 45.6498 8.43815 46.264 8.42521C46.8782 8.41226 47.2315 8.69888 47.213 9.40155C47.1446 12.1605 47.4683 14.912 47.3462 17.6709C47.3277 18.1202 47.3462 18.5954 47.2241 19.0096C47.0595 19.5385 47.2944 19.8251 47.6496 20.108C47.8549 20.2708 48.0677 20.4279 48.2601 20.6073C48.754 21.0659 48.7522 21.4727 48.2601 21.9498C48.2233 21.9924 48.1803 22.0292 48.1324 22.0589C47.0225 22.6136 46.9226 23.5752 47.0946 24.6476C47.3555 26.2527 47.1742 27.8688 47.1945 29.4794C47.2204 31.3563 47.3074 33.2295 47.3795 35.1027C47.3966 35.3836 47.3792 35.6655 47.3277 35.9422C47.2167 36.4803 46.8116 36.6356 46.3121 36.6226C45.8126 36.6097 45.5462 36.3619 45.5074 35.8682C45.487 35.6056 45.463 35.343 45.463 35.0823C45.4802 31.3508 45.4981 27.6186 45.5166 23.8858C45.5166 23.736 45.5166 23.5862 45.5166 23.4346C45.4796 22.4379 45.1337 22.1402 44.1458 22.1994C43.7333 22.229 43.3189 22.2327 42.9064 22.2641C42.1035 22.3251 41.7354 22.6968 41.6836 23.5178C41.6466 24.0985 41.6299 24.6791 41.6188 25.2616C41.5559 28.4865 41.4943 31.712 41.4338 34.9381C41.4338 35.123 41.4338 35.3079 41.4042 35.4928C41.3154 36.275 40.964 36.6023 40.3054 36.5394C39.7263 36.4803 39.4988 36.1696 39.5654 35.3856C39.804 32.6692 39.7411 29.9491 39.6524 27.2309C39.5525 24.1576 39.3083 21.0807 39.5543 18.0074C39.7837 15.1505 39.5377 12.3102 39.4359 9.46257C39.4063 8.66744 39.6579 8.39562 40.3239 8.39747C40.8622 8.39747 41.1656 8.63971 41.234 9.18705C41.2895 9.65303 41.308 10.1227 41.3173 10.5924C41.3753 13.1812 41.4283 15.77 41.4764 18.3587C41.5115 20.2338 42.1035 20.7219 43.9756 20.4131C45.1355 20.2282 45.537 19.7678 45.5222 18.601C45.5185 17.0884 45.4075 15.5721 45.4463 14.3018Z" fill="black"/>
<path d="M92.0159 30.5495C91.9823 31.4145 92.1587 32.2748 92.5301 33.0569C92.9575 33.9815 93.6401 34.4992 94.7001 34.44C95.7601 34.3809 96.5501 33.913 96.92 32.9034C97.4528 31.4444 97.3973 29.967 96.9348 28.4932C96.5205 27.1748 95.6898 26.1115 94.8481 25.0557C94.1698 24.2051 93.4798 23.3631 92.778 22.5298C89.8403 19.0164 89.4593 15.1 90.9596 10.9228C91.7661 8.67607 94.3727 7.69973 96.5574 8.70381C97.4251 9.10322 97.9652 9.81329 98.3241 10.662C98.8458 11.9047 98.992 13.2323 99.1048 14.5563C99.1603 15.2072 98.7922 15.5493 98.1687 15.5604C97.5453 15.5715 97.2234 15.2719 97.2438 14.5711C97.2648 13.5944 97.0715 12.6249 96.6777 11.7308C96.3077 10.9006 95.7213 10.3847 94.7871 10.3828C93.8529 10.381 93.2979 10.8839 92.9094 11.6772C91.5386 14.4639 91.5978 17.1543 93.4052 19.7505C94.3394 21.0912 95.3735 22.3523 96.3817 23.6337C97.7784 25.4126 98.8477 27.3412 99.2084 29.6101C99.5118 31.5221 99.2917 33.3287 97.9856 34.8487C96.8146 36.2115 95.2939 36.781 93.5365 36.2947C91.7088 35.7881 90.6488 34.4844 90.2418 32.6575C90.0235 31.6774 90.116 30.6771 90.1234 29.6859C90.1156 29.5814 90.1286 29.4764 90.1616 29.3769C90.1947 29.2774 90.2471 29.1855 90.3159 29.1064C90.3847 29.0273 90.4685 28.9626 90.5625 28.9161C90.6565 28.8696 90.7587 28.8421 90.8634 28.8353C91.0967 28.7892 91.339 28.8306 91.5437 28.9517C91.7485 29.0728 91.9014 29.2651 91.9733 29.4918C92.0621 29.8394 91.9844 30.1963 92.0159 30.5495Z" fill="black"/>
<path d="M54.1053 22.4543C54.1053 18.6328 54.1053 14.8069 54.1053 10.9767C54.0985 10.5459 54.1344 10.1154 54.2126 9.69158C54.3976 8.76701 54.8157 8.32137 55.7388 8.23261C57.0911 8.10317 58.4397 8.27699 59.7883 8.37869C60.3081 8.41753 60.5283 8.7929 60.5116 9.28477C60.495 9.77664 60.2119 10.0725 59.7013 10.1187C58.8966 10.1927 58.0901 10.2408 57.2964 10.3536C56.5028 10.4664 56.1865 10.8048 56.1606 11.5795C56.0977 13.8281 56.0551 16.0785 56.0496 18.3289C56.0496 19.2294 56.5787 19.6861 57.4981 19.675C57.9291 19.675 58.3583 19.5844 58.793 19.5789C59.3998 19.5789 59.6662 19.8637 59.718 20.5349C59.7716 21.1747 59.533 21.5445 58.9669 21.6647C58.6311 21.7088 58.2906 21.702 57.9569 21.6444C56.6619 21.5334 56.0292 22.0789 56.0385 23.3789C56.0588 26.5094 56.1513 29.64 56.0792 32.7725C56.0477 34.0484 56.562 34.4977 57.8366 34.4681C58.3028 34.4552 58.7616 34.3553 59.237 34.3368C60.0232 34.3035 60.347 34.6308 60.347 35.3945C60.347 36.1582 60.0288 36.5151 59.2777 36.4245C58.2066 36.2969 57.1466 36.5317 56.0755 36.3894C54.8268 36.2248 54.2145 35.6811 54.2256 34.433C54.3032 30.4389 54.0924 26.4484 54.1053 22.4543Z" fill="black"/>
<path d="M116.792 31.6222C116.668 24.908 116.578 18.1956 116.618 11.4814C116.61 10.9374 116.642 10.3936 116.713 9.85418C116.87 8.82422 117.314 8.33789 118.346 8.23804C119.661 8.1123 120.973 8.27502 122.285 8.38042C122.788 8.4211 123.052 8.72991 123.041 9.25137C123.03 9.77282 122.754 10.0779 122.201 10.1186C121.395 10.1778 120.586 10.1944 119.78 10.2388C118.892 10.2869 118.651 10.5291 118.644 11.4186C118.625 13.6689 118.609 15.9193 118.609 18.1697C118.609 19.3698 119.092 19.784 120.301 19.649C120.751 19.6178 121.203 19.6596 121.639 19.7729C122.053 19.8654 122.329 20.0965 122.335 20.5329C122.353 20.7413 122.301 20.9499 122.185 21.1245C122.07 21.2992 121.899 21.4296 121.7 21.4945C121.284 21.6517 120.847 21.6091 120.42 21.6554C119.058 21.8033 118.496 22.3599 118.557 23.7393C118.622 25.202 118.635 26.6628 118.638 28.1255C118.638 29.5327 118.627 30.938 118.624 32.3452C118.616 32.608 118.624 32.871 118.646 33.1329C118.742 34.0408 119.217 34.4772 120.137 34.4569C120.793 34.4107 121.452 34.4107 122.109 34.4569C122.701 34.5253 122.988 34.8267 123.01 35.3519C123.024 35.4702 123.013 35.5902 122.979 35.7041C122.944 35.8181 122.886 35.9236 122.808 36.0139C122.73 36.1042 122.634 36.1773 122.527 36.2285C122.419 36.2798 122.302 36.3081 122.183 36.3116C120.875 36.454 119.561 36.5557 118.248 36.3634C117.508 36.2524 117.086 35.8086 116.953 35.0819C116.722 33.9484 116.805 32.7816 116.792 31.6222Z" fill="black"/>
<path d="M104.8 23.0056C104.716 20.4667 104.8 15.2004 104.8 11.2987C104.795 10.7732 104.832 10.2482 104.913 9.72883C105.075 8.75434 105.554 8.31424 106.526 8.22549C107.845 8.10344 109.154 8.28466 110.466 8.37526C110.943 8.40855 111.274 8.67298 111.291 9.20183C111.308 9.73068 110.977 9.98956 110.52 10.0931C109.752 10.278 108.975 10.4019 108.205 10.572C107.36 10.7569 106.944 11.3117 106.885 12.1641C106.738 14.2814 106.835 16.4024 106.816 18.5215C106.816 19.3462 107.31 19.7345 108.155 19.6531C108.661 19.6092 109.17 19.6247 109.672 19.6994C110.129 19.7604 110.446 19.9989 110.494 20.4815C110.528 20.6974 110.484 20.9184 110.371 21.1053C110.257 21.2922 110.081 21.4328 109.874 21.5023C109.437 21.6872 108.986 21.6225 108.538 21.6095C107.255 21.5762 106.653 22.0441 106.72 23.307C106.827 25.3133 106.794 27.3178 106.842 29.3222C106.89 31.3859 106.898 33.4495 106.899 35.5131C106.899 36.042 106.529 36.3286 105.965 36.3508C105.401 36.373 105.064 36.1437 105.029 35.5538C104.985 34.8253 105.001 34.0912 105.001 33.3608C105.003 29.9084 104.881 25.5426 104.8 23.0056Z" fill="black"/>
<path d="M82.5096 22.7437C82.5096 18.6929 82.5096 14.6414 82.5096 10.5894C82.5096 10.177 82.4522 9.76466 82.4633 9.35415C82.48 8.65518 82.8167 8.38336 83.5733 8.41109C84.2596 8.43513 84.4982 8.69586 84.489 9.40038C84.3965 17.0539 84.4779 24.7075 84.4779 32.3592C84.4779 33.2838 84.6074 34.1917 84.6629 35.1107C84.711 36.0686 84.3651 36.5161 83.5751 36.5641C82.9869 36.5993 82.6391 36.3293 82.5743 35.7431C82.5456 35.3876 82.5364 35.0308 82.5466 34.6743C82.5281 30.6968 82.517 22.7437 82.5096 22.7437Z" fill="black"/>
<path d="M120.53 4.02418C120.549 3.9193 120.589 3.81935 120.648 3.73017C121.31 2.97387 121.884 2.12512 122.785 1.60921C123.428 1.23939 123.908 1.39471 124.148 2.01417C124.196 2.12553 124.213 2.2477 124.197 2.3678C124.181 2.48789 124.133 2.60145 124.057 2.6965C123.46 3.53539 122.725 4.26745 121.884 4.86184C121.768 4.95887 121.623 5.0158 121.472 5.02414C121.321 5.03247 121.172 4.99175 121.046 4.90807C120.886 4.82307 120.753 4.69539 120.662 4.5393C120.571 4.38321 120.525 4.20486 120.53 4.02418Z" fill="black"/>
<path d="M23.4207 20.8427C23.4207 22.4551 23.4207 24.0676 23.4355 25.6819C23.4355 26.2366 22.9767 26.2514 22.6326 26.3919C22.2885 26.5325 22.0591 26.3364 21.8926 26.0591C21.8369 25.9827 21.799 25.8949 21.7816 25.802C21.6466 24.5465 20.8696 23.6663 20.0593 22.7861C18.1669 20.7354 18.2094 17.4939 20.1185 15.6614C21.0892 14.7256 22.3817 14.1972 23.7302 14.1848C25.0787 14.1724 26.3807 14.677 27.3684 15.5948C29.3201 17.4162 29.4366 20.6078 27.6256 22.6659L26.9133 23.4703C26.3158 24.1434 25.87 24.8812 25.7849 25.8057C25.7368 26.3198 25.4149 26.5103 24.9117 26.4363C24.4936 26.3753 24.0977 26.3864 24.1144 25.7225C24.1606 23.9788 24.1144 22.2332 24.1144 20.4895C24.1225 20.2296 24.2033 19.9773 24.3475 19.7609C24.5787 19.4059 24.5972 19.062 24.2513 18.7568C24.0034 18.5368 23.7426 18.448 23.4373 18.6477C23.2591 18.7394 23.1246 18.8979 23.0632 19.0886C23.0018 19.2792 23.0186 19.4865 23.1099 19.6648C23.2553 20.0452 23.3595 20.4401 23.4207 20.8427Z" fill="black"/>
<path d="M20.5854 11.4593C20.5632 11.4076 20.467 11.3854 20.4245 11.3613C20.0175 11.4002 19.9842 11.6849 20.0545 11.9364C20.1913 12.3382 20.3519 12.7315 20.5355 13.1143C20.5468 13.1454 20.5642 13.174 20.5866 13.1984C20.6091 13.2228 20.6361 13.2425 20.6662 13.2565C20.6963 13.2704 20.7288 13.2782 20.7619 13.2795C20.7951 13.2808 20.8281 13.2756 20.8592 13.2641C21.0331 13.2086 21.194 13.057 21.1441 12.8943C20.9794 12.4079 20.7815 11.9346 20.5854 11.4593Z" fill="black"/>
<path d="M24.0924 11.142L24.1146 10.7537C24.1241 10.7029 24.1228 10.6506 24.1108 10.6003C24.0989 10.5499 24.0765 10.5027 24.0451 10.4616C24.0137 10.4204 23.974 10.3864 23.9286 10.3615C23.8833 10.3367 23.8332 10.3216 23.7816 10.3173C23.4967 10.284 23.5171 10.5503 23.493 10.7056C23.4153 11.1956 23.358 11.6912 23.5319 12.1849C23.5448 12.3809 23.4875 12.6361 23.8131 12.6084C24.0832 12.5843 24.1164 12.3735 24.109 12.1553C24.109 12.0444 24.0961 11.9334 24.0887 11.8225C24.0905 11.5895 24.0905 11.3658 24.0924 11.142ZM23.5374 12.0351H23.5485H23.5374Z" fill="black"/>
<path d="M27.0028 11.0809C26.6513 10.9053 26.5995 11.2658 26.4848 11.4803C26.1703 12.0351 25.989 13.3406 26.4127 13.2943C26.8363 13.2481 26.7013 12.588 26.8308 12.2718C26.9414 12.1284 27.0421 11.9776 27.1323 11.8206C27.2581 11.5543 27.2988 11.2381 27.0028 11.0809Z" fill="black"/>
<path d="M23.7695 30.7246C24.0082 31.1296 23.8139 31.5752 23.8935 31.995L23.7751 32.093L23.7695 30.7246Z" fill="black"/>
<path d="M136.399 20.5109C137.364 19.6888 138.067 18.6025 138.421 17.3859C138.951 15.6558 139.032 13.8193 138.656 12.0493C138.318 10.3629 137.461 9.04632 135.674 8.59143C134.346 8.25304 133.045 8.51007 131.826 9.04632C131.212 9.31629 130.822 9.33293 130.38 8.77819C129.938 8.22345 129.207 8.27523 128.857 8.82627C128.672 9.11104 128.681 9.43094 128.681 9.75084C128.681 14.01 128.681 18.2692 128.681 22.5283H128.644C128.644 25.0413 128.654 27.5543 128.644 30.0691C128.644 31.8887 128.593 33.7064 128.572 35.5259C128.572 36.1435 128.794 36.4172 129.347 36.5041C130.037 36.615 130.457 36.3192 130.592 35.6128C130.74 34.814 130.696 34.0041 130.703 33.1978C130.733 29.9341 130.74 26.6704 130.79 23.3974C130.805 22.3601 131.262 21.944 132.281 21.8848C133.301 21.8257 133.678 22.1604 133.865 23.2162C134.511 26.8689 135.158 30.5209 135.805 34.1723C135.907 34.7419 135.957 35.328 136.175 35.8717C136.377 36.3654 136.766 36.5189 137.272 36.4264C137.779 36.334 138.012 36.0159 137.959 35.5019C137.922 35.0914 137.914 34.6753 137.842 34.2703C137.147 30.3428 136.455 26.4134 135.728 22.4895C135.582 21.6759 135.743 21.0657 136.399 20.5109ZM133.974 19.5272C133.448 19.7759 132.886 19.94 132.309 20.0135C131.384 20.1374 130.912 19.7528 130.838 18.8319C130.8 18.3475 130.838 17.8574 130.838 17.3711C130.85 16.0046 130.663 14.6399 130.811 13.2697C131.025 11.3134 132.681 10.0301 134.62 10.3758C134.928 10.4243 135.221 10.5394 135.48 10.7132C135.739 10.8869 135.957 11.1151 136.118 11.3818C137.557 13.745 137.087 18.0146 133.974 19.5254V19.5272Z" fill="black"/>
<path d="M154.255 35.0975C154.084 34.1193 153.885 33.1467 153.752 32.1629C152.943 26.0904 152.192 20.0104 151.13 13.9749C150.892 12.6102 150.627 11.2492 150.322 9.89753C150.087 8.85277 149.351 8.45705 148.385 8.77695C147.743 8.98776 147.515 9.51661 147.408 10.1065C146.853 13.2056 146.381 16.3159 145.943 19.4335C145.455 22.921 144.985 26.4121 144.513 29.9033C144.285 31.5916 144.073 33.2817 143.853 34.9718H143.904C143.904 35.1216 143.904 35.2713 143.904 35.4211C143.923 36.1127 144.197 36.4252 144.818 36.4622C145.44 36.4992 145.743 36.2199 145.823 35.5228C145.937 34.5557 146.061 33.5886 146.167 32.6197C146.352 30.887 146.518 29.1526 146.722 27.4199C146.831 26.4491 147.319 25.9887 148.285 25.8851C148.64 25.8482 148.997 25.8223 149.354 25.8075C150.448 25.7594 151.004 26.2217 151.143 27.3053C151.328 28.8105 151.504 30.3194 151.698 31.8227C151.866 33.0857 152.033 34.3505 152.266 35.6005C152.407 36.3586 152.926 36.5972 153.663 36.3586C154.216 36.1848 154.382 35.8279 154.255 35.0975ZM148.96 23.9602H148.734C147.676 23.9361 147.297 23.509 147.428 22.4809C147.538 21.6099 147.656 20.739 147.771 19.8681L148.642 13.2999C148.67 13.0891 148.607 12.8303 148.966 12.8247C149.325 12.8192 149.219 13.0984 149.243 13.2648C149.576 15.6933 149.902 18.1206 150.222 20.5467C150.301 21.1403 150.39 21.732 150.448 22.3274C150.575 23.7069 150.344 23.9509 148.96 23.9602Z" fill="black"/>
<path d="M25.8752 27.9978C25.8049 27.2804 25.6106 27.0326 25.0464 27.0196C24.2028 26.9974 23.3593 27.0196 22.5157 27.0196C22.0625 27.0196 21.8386 27.2711 21.7591 27.6927C21.6388 28.3214 21.8571 28.7819 22.499 29.0185C23.2187 29.2867 23.5387 29.7397 23.461 30.5145C23.4092 31.0341 23.4425 31.5611 23.4388 32.0844C22.9523 32.4894 22.425 32.7871 21.7628 32.7501C20.8531 32.4599 19.8935 32.3598 18.9435 32.4561C18.1064 32.5202 17.2662 32.5325 16.4276 32.4931C16.3906 32.5356 16.3517 32.5763 16.3147 32.617L14.2021 32.4025C13.5068 32.2159 12.7667 32.297 12.1283 32.6299C10.6484 32.6299 9.15921 32.6299 7.67372 32.6299C7.2981 32.635 6.92389 32.5832 6.56376 32.4764C5.89223 32.2786 5.18741 32.3229 4.49739 32.2915C4.15885 32.2786 3.95721 32.5337 3.84436 32.8296C3.73152 33.1255 3.91281 33.3344 4.10705 33.5156C4.35309 33.7468 4.61763 33.7005 4.87847 33.5304C5.00427 33.4472 5.13191 33.3696 5.25771 33.2882C7.84761 33.3252 10.4375 33.1033 13.0367 33.3233C13.2399 33.3269 13.4375 33.3908 13.6042 33.5071C13.7709 33.6233 13.8992 33.7866 13.9727 33.9761L14.0523 36.5649C14.0245 36.9032 13.9986 37.2416 13.9709 37.5819C13.8118 38.0959 13.6434 38.61 13.4973 39.1278C13.4048 39.4569 13.4362 39.7713 13.7859 39.9432C14.1355 40.1152 14.463 40.1374 14.7793 39.8693C15.0956 39.6011 15.0623 39.3256 14.9162 39.0113C14.8126 38.7931 14.6979 38.5804 14.5869 38.3641L14.6035 33.6321C14.955 33.2161 15.4231 33.29 15.8837 33.3307L16.5386 33.3252C16.6224 33.3623 16.7107 33.3884 16.8013 33.4028C17.8631 33.4509 18.9287 33.4879 19.9868 33.486C21.045 33.4842 22.1143 33.5156 23.1317 33.1051C23.7496 33.0275 23.8143 32.5892 23.7884 32.0937C23.8215 32.0233 23.8487 31.9503 23.8698 31.8755C23.8785 31.9166 23.8909 31.9568 23.9068 31.9956C24.2916 31.4742 24.0826 30.8732 24.1177 30.3092C24.1677 29.5049 24.497 28.9834 25.2425 28.8447C25.7623 28.7467 25.9196 28.4712 25.8752 27.9978Z" fill="black"/>
<path d="M6.17944 5.12996C6.59669 4.91446 7.04676 4.7695 7.51139 4.70096C9.23367 4.44393 10.9597 4.76753 12.6912 4.67322C13.581 4.6233 13.8011 4.92655 13.9436 5.85297C13.9602 5.96392 13.9713 6.07487 13.9843 6.18766C13.9465 6.41807 13.9741 6.65444 14.0638 6.86999C14.0367 7.9918 14.0096 9.11361 13.9824 10.2354C13.9473 10.3981 13.914 10.5609 13.8733 10.7217C13.6087 11.8035 13.1592 12.1049 12.0678 11.9144C11.794 11.8664 11.5294 11.7702 11.2612 11.6981L11.239 7.64848C11.36 7.33626 11.4619 7.01701 11.5442 6.69248C11.5785 6.5519 11.5597 6.40363 11.4914 6.27603C11.4232 6.14844 11.3102 6.05048 11.1742 6.0009C11.0173 5.93326 10.8447 5.91042 10.6755 5.9349C10.5064 5.95938 10.3473 6.03023 10.216 6.13959C10.1001 6.20912 10.0165 6.32174 9.98358 6.45277C9.95064 6.58379 9.97101 6.72253 10.0402 6.83856C10.7321 8.03865 10.5952 9.33674 10.5083 10.6256C10.4498 11.1287 10.4704 11.6378 10.5693 12.1345C10.6544 12.4729 10.8468 12.7558 11.2371 12.667C12.0844 12.4821 12.8706 12.667 13.6605 12.9407C14.2303 13.146 14.5855 12.9241 14.6225 12.3157C14.6558 11.8516 14.6114 11.38 14.6003 10.9122C14.506 9.18696 14.2747 7.46172 14.6003 5.73463C14.6873 5.4665 14.7705 5.19838 14.8575 4.9321C15.1627 3.99089 14.9999 3.7579 14.0324 3.80598C12.6246 3.8744 11.2186 3.9761 9.81085 4.02603C8.51397 4.05032 7.21812 3.93876 5.9445 3.69318C5.61706 3.63586 5.32847 3.71167 5.20452 4.04822C5.13007 4.22204 5.10791 4.41378 5.14077 4.59999C5.17362 4.7862 5.26006 4.9588 5.38952 5.09668C5.63926 5.3611 5.9112 5.26495 6.17944 5.12996Z" fill="black"/>
<path d="M2.29476 20.8514L8.09244 20.8015C8.59562 20.8162 9.0988 20.8273 9.60383 20.8458C10.5732 20.8828 11.1726 21.2157 11.3465 21.8647C11.4121 22.1528 11.4628 22.4441 11.4982 22.7375C11.4982 22.9982 11.4982 23.2571 11.4982 23.5178C11.3779 23.9209 11.0967 24.1928 10.6879 24.1706C9.42993 24.1059 8.14053 24.3999 6.92143 23.8544C6.55144 23.6935 6.26286 23.8229 6.04641 24.1373C5.95844 24.2603 5.9146 24.4094 5.92199 24.5604C5.92937 24.7114 5.98756 24.8556 6.08711 24.9694C6.30725 25.269 6.58289 25.4076 6.96213 25.2505C7.37281 25.0785 7.7909 24.9287 8.20528 24.7715C8.86941 24.8252 9.53353 24.9028 10.1995 24.9269C10.7748 24.9472 11.3502 24.9047 11.8478 24.557C12.2178 24.1003 12.0328 23.6066 11.9477 23.1184C11.9292 22.9945 11.7867 22.9335 11.8422 22.7652C12.0605 22.1365 12.0383 21.4486 12.3806 20.8384C12.6229 20.4057 12.3436 19.9804 11.8256 19.8935C11.659 19.8695 11.4896 19.8733 11.3243 19.9046C10.2143 20.1006 9.08955 20.304 7.97219 20.5056C7.84084 20.5056 7.7095 20.4945 7.57816 20.5056C5.62833 20.5685 3.6785 20.6424 1.74348 20.2652C1.37726 20.1995 1.00556 20.1691 0.633522 20.1746C0.172889 20.1746 -0.0158034 20.4279 0.126641 20.8773C0.252436 21.2693 0.381931 21.6613 0.539175 22.0404C0.894278 22.8346 0.935259 23.7338 0.653871 24.557C0.496627 25.0156 0.361582 25.4816 0.202488 25.9402C0.0951923 26.2435 0.0470941 26.5338 0.343083 26.7501C0.585423 26.935 0.868463 27.1015 1.17185 26.9498C1.47524 26.7982 1.55479 26.4432 1.51779 26.114C1.31985 24.6606 1.45304 23.1979 1.39939 21.7408C1.36979 21.1214 1.66208 20.8588 2.29476 20.8514Z" fill="black"/>
<path d="M14.1036 29.825C14.0287 29.8148 13.9528 29.8148 13.8779 29.825C12.7291 30.1191 11.5193 29.8787 10.3631 30.2374C10.015 30.3253 9.64936 30.3151 9.30676 30.2078C8.25045 29.9138 7.14974 30.0765 6.08048 29.899C5.93064 29.899 5.7808 29.899 5.63095 29.899C5.10187 29.9286 4.89098 30.1505 4.94463 30.6294C4.99643 31.1435 5.25912 31.3247 5.80115 31.2174C5.94914 31.1879 6.09343 31.1509 6.23958 31.1139C8.62599 30.5314 11.0124 30.3742 13.397 31.1287C13.7429 31.2378 14.1073 31.2692 14.4237 31.0325C14.6586 30.8587 14.9657 30.6923 14.8343 30.3206C14.782 30.1705 14.6827 30.0412 14.551 29.9519C14.4194 29.8627 14.2625 29.8182 14.1036 29.825Z" fill="black"/>
<path d="M9.63046 2.86326C11.0827 2.14764 12.5256 2.2364 13.9833 2.85401C14.5531 3.0944 14.9416 2.80778 14.9731 2.19202C15.0008 1.61139 14.69 1.31738 14.0721 1.47641C12.5663 1.86842 11.0716 1.94609 9.57126 1.47641C9.50192 1.46214 9.43082 1.4584 9.36037 1.46531C8.99038 1.45052 8.73509 1.53003 8.6204 1.84808C8.55884 1.99663 8.54357 2.1603 8.57657 2.31767C8.60958 2.47504 8.68933 2.61879 8.80539 2.73012C8.90686 2.84341 9.04416 2.91844 9.19435 2.94268C9.34453 2.96691 9.49848 2.93888 9.63046 2.86326Z" fill="black"/>
<path d="M3.47668 23.0996C3.53588 23.0034 3.58953 22.8999 3.71532 22.8795C5.10092 22.6576 6.49021 22.3396 7.83511 23.0644C8.2199 23.2734 8.59543 23.2494 8.89327 22.8795C9.014 22.7578 9.08445 22.5951 9.09062 22.4237C9.09679 22.2524 9.03823 22.0851 8.92657 21.955C8.64538 21.574 8.28835 21.5408 7.87951 21.7164C6.95455 22.1158 5.99073 22.1269 5.01212 21.9698C4.71502 21.9275 4.4149 21.9102 4.11491 21.918C3.90876 21.907 3.70358 21.953 3.52183 22.0508C3.34008 22.1487 3.18878 22.2946 3.0845 22.4727C2.74226 23.2641 2.74596 24.1037 2.78111 24.9395C2.8366 26.2228 2.9846 27.5042 2.9032 28.7931C2.69971 29.2516 2.49992 29.7176 2.29088 30.1707C2.18543 30.3999 2.17433 30.6052 2.39077 30.7716C2.5325 30.8799 2.70173 30.9462 2.87928 30.9632C3.05682 30.9802 3.23558 30.9472 3.39528 30.8678C3.45035 30.8532 3.50179 30.8273 3.54632 30.7918C3.59085 30.7563 3.6275 30.7119 3.65394 30.6615C3.68039 30.6111 3.69605 30.5557 3.69993 30.4989C3.7038 30.4421 3.69582 30.3851 3.67647 30.3315C3.46558 29.6437 3.51183 28.9299 3.44338 28.2272L3.47668 23.0996ZM3.22879 26.0267C3.22787 26.0132 3.22787 25.9996 3.22879 25.9861L3.25839 25.9602C3.24686 25.9822 3.23697 26.0051 3.22879 26.0286V26.0267Z" fill="black"/>
<path d="M8.34684 15.3094C9.20846 15.4967 10.0932 15.5547 10.9719 15.4814C12.0615 15.4148 13.1437 15.4 14.2037 15.7273C14.5941 15.8475 14.8197 15.6423 14.9307 15.3039C14.9846 15.1622 14.9972 15.0081 14.9671 14.8595C14.9369 14.7109 14.8653 14.5739 14.7605 14.4644C14.5016 14.1907 14.1834 14.2462 13.8689 14.3368C13.4989 14.4459 13.1918 14.7528 12.7793 14.7547C11.4843 14.7547 10.1894 14.7547 8.89442 14.7732C8.8389 14.7802 8.78254 14.7761 8.72858 14.7613C8.67462 14.7465 8.62411 14.7212 8.57995 14.6868C8.53579 14.6525 8.49884 14.6098 8.47122 14.5611C8.4436 14.5125 8.42585 14.4589 8.41899 14.4033C8.25291 13.7887 8.19655 13.1496 8.25249 12.5154C8.30059 11.8275 8.37644 11.1341 8.17665 10.4536C8.25434 9.29973 8.23955 8.13477 8.69648 7.03454C8.87037 6.61664 8.69648 6.26345 8.32649 6.01936C8.19904 5.91987 8.03942 5.87072 7.87805 5.88129C7.71668 5.89186 7.56484 5.96141 7.45148 6.07669C7.29535 6.20273 7.19436 6.3845 7.16985 6.5836C7.14534 6.7827 7.19923 6.98352 7.32013 7.14364C7.55171 7.55358 7.65965 8.02175 7.63092 8.49166C7.63092 9.70839 7.60872 10.9251 7.61612 12.14C7.61612 13.1256 7.57912 14.1186 7.85661 15.082C7.97316 15.2669 8.1711 15.2669 8.34684 15.3094Z" fill="black"/>
<path d="M12.0053 36.6395C11.9775 36.1069 11.9609 35.5577 11.5872 35.1139C10.9601 34.7533 10.3108 34.929 9.66329 35.0289H8.76792C7.88181 34.9087 6.99384 34.7811 6.10588 34.6701C5.90978 34.6461 5.68594 34.6221 5.60269 34.8865C5.5307 34.9731 5.49038 35.0817 5.48836 35.1943C5.48634 35.3069 5.52275 35.4168 5.5916 35.5059C5.65449 35.9294 5.86168 36.1883 6.29827 35.9497C6.96979 35.5799 7.69126 35.493 8.42939 35.4412C8.66355 35.4803 8.90405 35.4501 9.12126 35.3543C9.34325 35.3931 9.56339 35.4357 9.78538 35.469C10.3237 35.5503 10.8768 35.5854 11.2838 36.0237C11.3227 36.9131 11.2561 37.7711 10.6918 38.5256C10.4736 38.8177 10.5439 39.1284 10.801 39.3873C10.9204 39.5214 11.0792 39.6143 11.2547 39.6525C11.4303 39.6907 11.6134 39.6723 11.7778 39.5999C12.0127 39.5056 12.2199 39.3299 12.1385 39.0452C11.9146 38.2426 12.0478 37.4364 12.0053 36.6395Z" fill="black"/>
<path d="M2.63001 18.8979C2.7521 18.9881 2.89695 19.0425 3.04826 19.0549C3.19958 19.0673 3.35136 19.0373 3.48653 18.9681C3.85652 18.7943 3.85652 18.4134 3.82137 18.0879C3.71222 17.2336 3.57163 16.383 3.45138 15.5324C3.45138 14.6695 3.45138 13.8029 3.45138 12.9326C3.57533 12.1023 3.70482 11.2683 3.82137 10.4381C3.86392 10.1348 3.85282 9.82602 3.52353 9.6596C3.38332 9.58077 3.22327 9.54423 3.06273 9.5544C2.90219 9.56457 2.74804 9.62102 2.61891 9.71692C2.33032 9.91478 2.29518 10.2162 2.37842 10.525C2.51902 11.1038 2.66886 11.6826 2.81316 12.2613C2.83659 13.536 2.86002 14.8101 2.88345 16.0835C2.71326 16.7159 2.53382 17.3427 2.37842 17.977C2.29518 18.3209 2.31737 18.6612 2.63001 18.8979Z" fill="black"/>
<path d="M5.17514 8.44025C5.18994 9.05786 5.21954 9.67547 5.21399 10.2894C5.19549 12.6341 5.16219 14.9769 5.13814 17.3161C5.13814 17.6341 5.10854 18.0557 5.49703 18.1094C6.33689 18.2425 7.17676 18.5254 8.04438 18.2536C8.31391 18.1757 8.59607 18.1512 8.875 18.1815C10.5584 18.3165 12.2456 18.4311 13.9309 18.5513C14.3008 18.5772 14.656 18.47 14.8299 18.102C15.0038 17.734 14.669 17.5731 14.471 17.3623C14.2028 17.0813 13.9161 17.0147 13.572 17.244C13.0943 17.5508 12.5335 17.7026 11.9662 17.6785C11.0894 17.6637 10.2217 17.734 9.33748 17.5935C8.49391 17.4585 7.61335 17.562 6.74758 17.5528C6.28325 17.5528 5.88921 17.4307 5.82261 16.8797C5.82261 15.8867 5.85036 14.8937 5.84851 13.9007C5.84851 13.0058 5.88366 12.1052 5.62282 11.2324C5.62912 11.2166 5.63073 11.1993 5.62745 11.1826C5.62417 11.1658 5.61614 11.1504 5.60432 11.1381L5.58952 9.45358C5.66352 8.96541 5.73567 8.47908 5.80781 7.99091C5.93546 7.64328 6.0853 7.30119 6.1778 6.9443C6.23765 6.77391 6.23306 6.58752 6.16491 6.42027C6.09675 6.25302 5.96974 6.11648 5.80781 6.03638C5.69029 5.95865 5.55176 5.91876 5.41088 5.92207C5.26999 5.92537 5.1335 5.97172 5.01974 6.05487C4.67196 6.29341 4.63866 6.6355 4.73856 6.99978C4.8736 7.4824 5.02899 7.95948 5.17514 8.44025Z" fill="black"/>
<path d="M14.628 19.9822C14.4852 19.889 14.3157 19.8452 14.1456 19.8575C13.9755 19.8699 13.8142 19.9377 13.6864 20.0506C13.5627 20.138 13.4742 20.2667 13.4369 20.4134C13.3996 20.5602 13.4159 20.7154 13.4829 20.8513C13.6568 21.3247 13.8066 21.8054 13.9676 22.2844C13.9984 22.8095 14.0305 23.3347 14.0638 23.8598L13.9491 27.2234C12.8151 27.3251 11.6736 27.1957 10.5415 27.3343C9.019 27.3343 7.50021 27.3343 6.04431 26.7999C5.95306 26.7772 5.85886 26.7684 5.76497 26.7741C5.35244 26.7593 5.13785 26.9904 5.06385 27.3639C4.92696 28.0666 5.42089 28.4845 6.13496 28.1942C6.68758 27.969 7.2838 27.8711 7.87944 27.9076C9.56658 28.0019 11.2574 27.7948 12.9464 27.9982C13.5014 28.0647 14.0379 27.9464 14.3061 27.3454C14.5336 27.2511 14.5484 27.02 14.5947 26.8369C14.7945 26.0436 14.665 25.2689 14.4097 24.5052C14.3595 24.4502 14.3227 24.3844 14.3021 24.3129C14.2816 24.2413 14.2779 24.166 14.2913 24.0928C14.3155 24.0343 14.3263 23.9711 14.3227 23.9079C14.4356 23.2587 14.5042 22.6026 14.5281 21.9441C14.6724 21.5595 14.837 21.1823 14.9517 20.7903C15.0042 20.6392 15.0003 20.4742 14.9409 20.3258C14.8814 20.1773 14.7703 20.0553 14.628 19.9822Z" fill="black"/>
</svg>
