<svg width="156" height="28" viewBox="0 0 156 28" fill="none" xmlns="http://www.w3.org/2000/svg">
<path d="M16.5739 13.8052L9.41602 27.5284H13.4669L20.6248 13.8052L13.4669 0.0820312H9.41602L16.5739 13.8052Z" fill="#4985C5"/>
<path d="M31.9531 23.9302V27.5284H39.7323V0.0820312H31.9531V3.68018H36.1474V23.9302H31.9531Z" fill="#4BB859"/>
<path d="M24.8193 22.5197C24.8274 22.7099 24.7969 22.8998 24.7296 23.0778C24.6624 23.2559 24.5598 23.4186 24.4281 23.556C24.2963 23.6933 24.1381 23.8026 23.963 23.8772C23.7879 23.9518 23.5996 23.9902 23.4093 23.99H20.625V27.5762H23.4093C24.7362 27.5731 26.0079 27.0443 26.9462 26.1057C27.8845 25.1671 28.413 23.8949 28.4162 22.5675V18.0847L32.0011 13.8411L28.4162 9.58545V5.09075C28.413 3.76333 27.8845 2.49117 26.9462 1.55254C26.0079 0.613906 24.7362 0.085188 23.4093 0.0820312H20.625V3.66823H23.4093C23.5944 3.66823 23.7778 3.70471 23.9489 3.7756C24.1199 3.84649 24.2754 3.95039 24.4063 4.08138C24.5373 4.21236 24.6411 4.36786 24.712 4.53899C24.7828 4.71013 24.8193 4.89356 24.8193 5.0788V10.8406L27.2092 13.7933L24.8193 16.7339V22.5197Z" fill="#EE3224"/>
<path d="M4.27797 0.0820312H0C2.89248 4.08174 4.44961 8.8925 4.44961 13.8291C4.44961 18.7657 2.89248 23.5765 0 27.5762H4.27797C6.74288 23.4146 8.04348 18.6664 8.04348 13.8291C8.04348 8.99186 6.74288 4.24363 4.27797 0.0820312Z" fill="#F8BF2B"/>
<path d="M73.2404 3.39062L69.8857 15.9591L66.6025 3.39062H63.2262L59.9452 15.9591L56.5883 3.39062H52.1631L57.6112 23.796H59.8238H62.0538L64.9143 14.2699L67.7749 23.796H70.007H72.2197L77.6656 3.39062H73.2404Z" fill="#333132"/>
<path fill-rule="evenodd" clip-rule="evenodd" d="M145.899 3.65918C151.4 3.65918 155.873 8.22258 155.873 13.8323C155.873 19.442 151.398 24.0054 145.899 24.0054C140.401 24.0054 135.926 19.442 135.926 13.8323C135.926 8.22258 140.399 3.65918 145.899 3.65918ZM140.073 13.8325C140.073 17.1107 142.687 19.7689 145.899 19.7689C149.112 19.7689 151.725 17.1086 151.725 13.8325C151.725 10.5565 149.114 7.8877 145.899 7.8877C142.685 7.8877 140.073 10.5544 140.073 13.8325Z" fill="#333132"/>
<path fill-rule="evenodd" clip-rule="evenodd" d="M97.4426 12.5954C97.4573 12.7173 97.4699 12.8434 97.4804 12.9674L97.4888 12.9695C97.5119 13.2532 97.5308 13.5306 97.5308 13.8312C97.5308 14.1317 97.5119 14.426 97.4867 14.7202C97.4657 14.9682 97.43 15.212 97.3922 15.4537H81.9581V15.4684C81.9611 15.4809 81.9653 15.4937 81.9696 15.5065C81.9775 15.5304 81.9855 15.5545 81.9855 15.5777C82.3885 16.8976 83.2373 18.0365 84.3869 18.7996C84.9815 19.1996 85.6456 19.4848 86.3451 19.6403L86.406 19.655C86.5594 19.6865 86.7169 19.7096 86.8766 19.7285L86.9859 19.7433C87.1708 19.7622 87.3598 19.7727 87.551 19.7727C89.3705 19.7727 91.3959 18.7597 92.8036 17.5323L95.7933 20.4263C93.5242 22.5406 90.316 23.9824 87.5573 23.9824C87.2275 23.9824 86.8997 23.9635 86.5762 23.9319C86.5405 23.9285 86.5052 23.9217 86.4701 23.915C86.4204 23.9056 86.3712 23.8962 86.3219 23.8962C86.0824 23.8647 85.845 23.8311 85.6139 23.7848C85.551 23.7731 85.4882 23.7574 85.426 23.7418C85.3989 23.735 85.3718 23.7282 85.345 23.7218C85.1223 23.6713 84.8954 23.6167 84.6853 23.5494C84.626 23.531 84.5676 23.5101 84.5094 23.4893C84.4748 23.4769 84.4403 23.4645 84.4058 23.4528C84.2083 23.3939 84.0087 23.3225 83.8175 23.2426C83.6999 23.1943 83.5865 23.1417 83.4731 23.0892L83.473 23.0892C83.3259 23.024 83.2124 22.9694 83.0402 22.879C82.8679 22.7886 82.6977 22.6961 82.5338 22.5953L82.4015 22.5112C81.8694 22.1809 81.3693 21.8016 80.9076 21.3784L80.8614 21.3363C80.4281 20.9342 80.0302 20.4954 79.6722 20.0249C79.6197 19.9555 79.5693 19.8862 79.5189 19.8147C79.376 19.6235 79.2394 19.4133 79.1113 19.2031C79.1005 19.1853 79.0896 19.1674 79.0786 19.1493C79.0106 19.0374 78.9405 18.922 78.8844 18.8206C78.8192 18.7029 78.7562 18.5831 78.6953 18.4633C78.6175 18.3078 78.544 18.1502 78.4726 17.9904C78.457 17.9545 78.441 17.9189 78.4252 17.8833C78.3983 17.8232 78.3716 17.7633 78.3465 17.7025C78.2478 17.4629 78.1616 17.217 78.0818 16.969C78.0545 16.8786 78.0272 16.7862 77.9998 16.6937L77.9998 16.6937C77.9284 16.452 77.8654 16.2061 77.8128 15.956C77.8099 15.9435 77.8057 15.9307 77.8014 15.9179C77.7935 15.894 77.7855 15.8699 77.7855 15.8467C77.7267 15.5588 77.6868 15.2645 77.6532 14.9703C77.6509 14.9428 77.6475 14.9153 77.6441 14.8878C77.6381 14.8396 77.6322 14.7915 77.6322 14.7433C77.6048 14.4386 77.5859 14.1317 77.5859 13.8207C77.5859 8.21123 82.059 3.64844 87.5594 3.64844C87.8746 3.64844 88.1939 3.66735 88.5049 3.69678C88.5994 3.70729 88.7087 3.722 88.8095 3.73671C89.0175 3.76403 89.215 3.79345 89.4251 3.83339C89.5449 3.85651 89.6626 3.88383 89.7802 3.91115C89.9609 3.95318 90.1416 3.99942 90.3181 4.05196C90.4399 4.08769 90.5618 4.12342 90.6836 4.16546C90.8496 4.2222 91.0135 4.28525 91.1774 4.35041C91.2051 4.36141 91.2329 4.3723 91.2606 4.38318C91.3546 4.42012 91.4484 4.45694 91.5409 4.49752C91.6984 4.56688 91.8518 4.64675 92.0052 4.72661C92.2552 4.86322 92.4968 4.99983 92.7321 5.14695C92.7799 5.17847 92.8301 5.20851 92.8807 5.23875C92.9346 5.27101 92.9889 5.30349 93.041 5.3382C93.167 5.42395 93.2877 5.51508 93.4084 5.60621C93.4386 5.62899 93.4688 5.65178 93.499 5.67448C93.5235 5.69303 93.5484 5.71158 93.5735 5.7302C93.6278 5.77064 93.6825 5.81139 93.7343 5.85312C93.8898 5.97922 94.039 6.10953 94.186 6.24404C94.2063 6.26294 94.2269 6.28184 94.2474 6.30075C94.2885 6.33859 94.3296 6.37643 94.3688 6.41427C94.5222 6.5635 94.6735 6.71482 94.8184 6.87245L94.9277 6.99645C96.0019 8.20707 96.7731 9.6557 97.1779 11.223C97.2655 11.5589 97.3357 11.8991 97.388 12.2423C97.393 12.2737 97.3982 12.3048 97.4034 12.3358C97.4176 12.4211 97.4318 12.506 97.4426 12.5954ZM83.2079 9.87911C82.8536 10.2844 82.5554 10.7355 82.3213 11.2203H92.8053C92.5713 10.7355 92.273 10.2844 91.9187 9.87911L91.8998 9.85599C91.5529 9.46365 91.1559 9.11872 90.719 8.83009L90.6476 8.78594C90.4573 8.66529 90.2602 8.55579 90.0572 8.45799L89.948 8.40543C89.7222 8.30129 89.4899 8.2121 89.2525 8.13845L89.1517 8.11112C88.9443 8.05265 88.7339 8.00563 88.5214 7.97026L88.3281 7.94083C87.8266 7.86608 87.3168 7.86608 86.8154 7.94083L86.62 7.97026C86.4075 8.00573 86.197 8.05275 85.9897 8.11112L85.8888 8.13845C85.6514 8.2121 85.4191 8.30129 85.1934 8.40543L85.0841 8.45799C84.881 8.55554 84.6839 8.66505 84.4937 8.78594L84.4223 8.83009C83.9802 9.11768 83.5782 9.46265 83.2268 9.85599L83.2079 9.87911Z" fill="#333132"/>
<path fill-rule="evenodd" clip-rule="evenodd" d="M133.773 12.5954C133.787 12.7173 133.8 12.8434 133.81 12.9674L133.815 12.9695C133.838 13.2532 133.857 13.5306 133.857 13.8312C133.857 14.1317 133.838 14.426 133.813 14.7202C133.792 14.9682 133.756 15.212 133.718 15.4537H118.284V15.4684C118.287 15.4809 118.291 15.4937 118.295 15.5065C118.303 15.5304 118.311 15.5545 118.311 15.5777C118.714 16.8976 119.563 18.0365 120.713 18.7996C121.307 19.1996 121.971 19.4848 122.671 19.6403L122.732 19.655C122.885 19.6865 123.043 19.7096 123.202 19.7285L123.312 19.7433C123.497 19.7622 123.686 19.7727 123.877 19.7727C125.696 19.7727 127.722 18.7597 129.129 17.5323L132.111 20.4263C129.842 22.5406 126.633 23.9824 123.875 23.9824C123.545 23.9824 123.217 23.9635 122.894 23.9319C122.858 23.9285 122.823 23.9217 122.787 23.915C122.738 23.9056 122.689 23.8962 122.639 23.8962C122.4 23.8647 122.162 23.8311 121.931 23.7848C121.868 23.7731 121.806 23.7574 121.743 23.7418C121.716 23.735 121.689 23.7282 121.662 23.7218C121.44 23.6713 121.213 23.6167 121.003 23.5494C120.943 23.531 120.885 23.5101 120.827 23.4893C120.792 23.4769 120.758 23.4645 120.723 23.4528C120.526 23.3939 120.326 23.3225 120.135 23.2426C120.017 23.1943 119.904 23.1417 119.79 23.0892L119.79 23.0892C119.643 23.024 119.53 22.9694 119.358 22.879C119.185 22.7886 119.015 22.6961 118.851 22.5953L118.719 22.5112C118.187 22.1809 117.687 21.8016 117.225 21.3784L117.179 21.3363C116.745 20.9342 116.348 20.4954 115.99 20.0249C115.937 19.9555 115.887 19.8862 115.836 19.8147C115.693 19.6235 115.557 19.4133 115.429 19.2031C115.418 19.1853 115.407 19.1674 115.396 19.1493C115.328 19.0374 115.258 18.922 115.202 18.8206C115.137 18.7029 115.074 18.5831 115.013 18.4633C114.935 18.3078 114.861 18.1502 114.79 17.9904C114.774 17.9545 114.758 17.9189 114.743 17.8833C114.716 17.8232 114.689 17.7633 114.664 17.7025C114.565 17.4629 114.479 17.217 114.399 16.969C114.379 16.9061 114.36 16.8422 114.342 16.778C114.334 16.7499 114.326 16.7218 114.317 16.6937C114.246 16.452 114.183 16.2061 114.13 15.956C114.127 15.9435 114.123 15.9307 114.119 15.9179C114.111 15.894 114.103 15.8699 114.103 15.8467C114.044 15.5588 114.004 15.2645 113.971 14.9703C113.968 14.9428 113.965 14.9153 113.961 14.8878C113.955 14.8396 113.95 14.7915 113.95 14.7433C113.922 14.4386 113.903 14.1317 113.903 13.8207C113.903 8.21123 118.376 3.64844 123.877 3.64844C124.192 3.64844 124.511 3.66735 124.822 3.69678C124.917 3.70729 125.026 3.722 125.127 3.73671C125.335 3.76403 125.532 3.79345 125.743 3.83339C125.862 3.85651 125.98 3.88383 126.098 3.91115C126.278 3.95318 126.459 3.99942 126.635 4.05196C126.757 4.08769 126.879 4.12342 127.001 4.16546C127.167 4.2222 127.331 4.28525 127.495 4.35041C127.523 4.36141 127.55 4.3723 127.578 4.38319C127.672 4.42012 127.766 4.45694 127.858 4.49752C128.016 4.56688 128.169 4.64675 128.323 4.72661C128.573 4.86322 128.812 4.99983 129.05 5.14695C129.097 5.17847 129.148 5.20851 129.198 5.23875C129.252 5.27101 129.306 5.30349 129.358 5.3382C129.484 5.42396 129.605 5.51509 129.726 5.60622C129.756 5.629 129.786 5.65178 129.816 5.67448C129.841 5.69303 129.866 5.71158 129.891 5.7302C129.945 5.77064 130 5.81139 130.052 5.85312C130.207 5.97922 130.356 6.10953 130.503 6.24404C130.524 6.26296 130.544 6.28188 130.565 6.3008C130.606 6.33862 130.647 6.37645 130.686 6.41427C130.84 6.5635 130.991 6.71482 131.136 6.87245L131.245 6.99645C132.324 8.20579 133.099 9.65452 133.508 11.223C133.594 11.555 133.663 11.8976 133.718 12.2423C133.723 12.2737 133.728 12.3048 133.733 12.3358C133.748 12.4211 133.762 12.506 133.773 12.5954ZM119.539 9.87911C119.185 10.2844 118.886 10.7355 118.652 11.2203H129.122C128.888 10.7355 128.589 10.2844 128.235 9.87911L128.216 9.85599C127.869 9.46365 127.472 9.11872 127.035 8.83009L126.964 8.78594C126.774 8.66529 126.577 8.55579 126.374 8.45799L126.264 8.40543C126.039 8.30129 125.806 8.2121 125.569 8.13845L125.468 8.11112C125.261 8.05265 125.05 8.00563 124.838 7.97026L124.644 7.94083C124.143 7.86608 123.633 7.86608 123.132 7.94083L122.936 7.97026C122.724 8.00573 122.513 8.05275 122.306 8.11112L122.205 8.13845C121.968 8.2121 121.735 8.30129 121.51 8.40543L121.4 8.45799C121.197 8.55554 121 8.66505 120.81 8.78594L120.739 8.83009C120.302 9.11872 119.905 9.46365 119.558 9.85599L119.539 9.87911Z" fill="#333132"/>
<path d="M111.286 3.39062H110.208H99.0337V7.63044H107.684L98.0674 23.796H102.93H114.059V19.5561H105.452L115.069 3.39062H111.286Z" fill="#333132"/>
</svg>
