<svg width="42" height="42" viewBox="0 0 42 42" fill="none" xmlns="http://www.w3.org/2000/svg">
<path d="M9.1875 15.75H19.6875C20.0356 15.75 20.3694 15.6117 20.6156 15.3656C20.8617 15.1194 21 14.7856 21 14.4375C21 14.0894 20.8617 13.7556 20.6156 13.5094C20.3694 13.2633 20.0356 13.125 19.6875 13.125H9.1875C8.8394 13.125 8.50556 13.2633 8.25942 13.5094C8.01328 13.7556 7.875 14.0894 7.875 14.4375C7.875 14.7856 8.01328 15.1194 8.25942 15.3656C8.50556 15.6117 8.8394 15.75 9.1875 15.75Z" fill="black"/>
<path d="M21 18.375C21 18.0269 20.8617 17.6931 20.6156 17.4469C20.3694 17.2008 20.0356 17.0625 19.6875 17.0625H9.1875C8.8394 17.0625 8.50556 17.2008 8.25942 17.4469C8.01328 17.6931 7.875 18.0269 7.875 18.375C7.875 18.7231 8.01328 19.0569 8.25942 19.3031C8.50556 19.5492 8.8394 19.6875 9.1875 19.6875H19.6875C20.0356 19.6875 20.3694 19.5492 20.6156 19.3031C20.8617 19.0569 21 18.7231 21 18.375Z" fill="black"/>
<path d="M35.8706 13.125H26.25V11.3794C26.2465 10.451 25.8762 9.56168 25.2198 8.90523C24.5633 8.24878 23.674 7.87846 22.7456 7.875H6.12937C5.20102 7.87846 4.31168 8.24878 3.65523 8.90523C2.99878 9.56168 2.62846 10.451 2.625 11.3794V21.4331C2.62846 22.3615 2.99878 23.2508 3.65523 23.9073C4.31168 24.5637 5.20102 24.934 6.12937 24.9375H7.875V27.5625C7.8754 27.7951 7.93759 28.0234 8.05521 28.224C8.17282 28.4246 8.34164 28.5904 8.54438 28.7044C8.74054 28.8155 8.96203 28.8743 9.1875 28.875C9.42307 28.8749 9.65428 28.8115 9.85688 28.6912L15.75 25.1606V26.6831C15.7535 27.6115 16.1238 28.5008 16.7802 29.1573C17.4367 29.8137 18.326 30.184 19.2544 30.1875H25.8169L32.0775 33.9412C32.2991 34.0734 32.5548 34.1373 32.8125 34.125C33.038 34.1243 33.2595 34.0655 33.4556 33.9544C33.6584 33.8404 33.8272 33.6746 33.9448 33.474C34.0624 33.2734 34.1246 33.0451 34.125 32.8125V30.1875H35.8706C36.799 30.184 37.6883 29.8137 38.3448 29.1573C39.0012 28.5008 39.3715 27.6115 39.375 26.6831V16.6294C39.3715 15.701 39.0012 14.8117 38.3448 14.1552C37.6883 13.4988 36.799 13.1285 35.8706 13.125ZM10.5 25.2394V23.625C10.5 23.2769 10.3617 22.9431 10.1156 22.6969C9.86944 22.4508 9.5356 22.3125 9.1875 22.3125H6.12937C5.89615 22.3125 5.67248 22.2199 5.50756 22.0549C5.34265 21.89 5.25 21.6663 5.25 21.4331V11.3794C5.25 11.1462 5.34265 10.9225 5.50756 10.7576C5.67248 10.5926 5.89615 10.5 6.12937 10.5H22.7456C22.9788 10.5 23.2025 10.5926 23.3674 10.7576C23.5324 10.9225 23.625 11.1462 23.625 11.3794V21.4331C23.625 21.6663 23.5324 21.89 23.3674 22.0549C23.2025 22.2199 22.9788 22.3125 22.7456 22.3125H15.75C15.5144 22.3126 15.2832 22.376 15.0806 22.4962L10.5 25.2394ZM36.75 26.6831C36.75 26.7986 36.7273 26.913 36.6831 27.0196C36.6389 27.1263 36.5741 27.2233 36.4924 27.3049C36.4108 27.3866 36.3138 27.4514 36.2071 27.4956C36.1005 27.5398 35.9861 27.5625 35.8706 27.5625H32.8125C32.4644 27.5625 32.1306 27.7008 31.8844 27.9469C31.6383 28.1931 31.5 28.5269 31.5 28.875V30.4894L26.9194 27.7463C26.7168 27.626 26.4856 27.5626 26.25 27.5625H19.2544C19.0212 27.5625 18.7975 27.4699 18.6326 27.3049C18.4676 27.14 18.375 26.9163 18.375 26.6831V24.9375H22.7456C23.674 24.934 24.5633 24.5637 25.2198 23.9073C25.8762 23.2508 26.2465 22.3615 26.25 21.4331V15.75H35.8706C36.1039 15.75 36.3275 15.8426 36.4924 16.0076C36.6574 16.1725 36.75 16.3962 36.75 16.6294V26.6831Z" fill="black"/>
</svg>
