<svg width="42" height="42" viewBox="0 0 42 42" fill="none" xmlns="http://www.w3.org/2000/svg">
<path d="M38.0625 34.1239H36.75V31.4989C36.7503 31.3061 36.7081 31.1156 36.6265 30.9409C36.5448 30.7662 36.4257 30.6117 36.2775 30.4883C34.1643 28.6979 31.5142 27.6637 28.7469 27.5496C25.9797 27.4355 23.2534 28.248 21 29.8583C18.6791 28.227 15.8795 27.4186 13.0462 27.5614C10.3563 27.7354 7.79145 28.7604 5.7225 30.4883C5.57434 30.6117 5.45519 30.7662 5.37353 30.9409C5.29186 31.1156 5.24969 31.3061 5.25 31.4989V34.1239H3.9375C3.5894 34.1239 3.25556 34.2622 3.00942 34.5083C2.76328 34.7545 2.625 35.0883 2.625 35.4364C2.625 35.7845 2.76328 36.1183 3.00942 36.3645C3.25556 36.6106 3.5894 36.7489 3.9375 36.7489H38.0625C38.4106 36.7489 38.7444 36.6106 38.9906 36.3645C39.2367 36.1183 39.375 35.7845 39.375 35.4364C39.375 35.0883 39.2367 34.7545 38.9906 34.5083C38.7444 34.2622 38.4106 34.1239 38.0625 34.1239ZM7.875 32.142C9.42365 30.9865 11.2753 30.307 13.2038 30.1864C15.5247 30.0807 17.8121 30.7706 19.6875 32.142V34.1239H7.875V32.142ZM22.3125 34.1239V32.142C24.185 30.7648 26.4745 30.0743 28.7963 30.1864C30.7247 30.307 32.5763 30.9865 34.125 32.142V34.1239H22.3125Z" fill="black"/>
<path d="M17.0623 18.5076V22.3138C17.0623 23.3581 17.4772 24.3597 18.2156 25.0981C18.954 25.8365 19.9556 26.2513 20.9998 26.2513C22.0441 26.2513 23.0457 25.8365 23.7841 25.0981C24.5225 24.3597 24.9373 23.3581 24.9373 22.3138V18.5076C24.9572 18.0992 25.0989 17.706 25.3442 17.3788C25.8867 16.5906 26.2035 15.6692 26.2603 14.714C26.3171 13.7589 26.1118 12.8064 25.6665 11.9594C25.2213 11.1125 24.5531 10.4033 23.734 9.90858C22.915 9.41384 21.9764 9.15234 21.0195 9.15234C20.0627 9.15234 19.124 9.41384 18.305 9.90858C17.486 10.4033 16.8178 11.1125 16.3725 11.9594C15.9273 12.8064 15.722 13.7589 15.7788 14.714C15.8356 15.6692 16.1524 16.5906 16.6948 17.3788C16.9371 17.705 17.0661 18.1014 17.0623 18.5076ZM20.9998 23.6263C20.6517 23.6263 20.3179 23.4881 20.0718 23.2419C19.8256 22.9958 19.6873 22.6619 19.6873 22.3138H22.3123C22.3123 22.6619 22.1741 22.9958 21.9279 23.2419C21.6818 23.4881 21.3479 23.6263 20.9998 23.6263ZM19.3067 12.4307C19.7806 12.0318 20.3804 11.8132 20.9998 11.8138C21.1615 11.8009 21.3239 11.8009 21.4855 11.8138C22.0211 11.9069 22.5145 12.164 22.8977 12.5496C23.281 12.9352 23.535 13.4302 23.6248 13.9663C23.7487 14.6421 23.6026 15.3395 23.218 15.9088C22.665 16.6734 22.3624 17.5904 22.3517 18.5338V19.6888H19.6873V18.5076C19.6803 17.5879 19.3866 16.6933 18.8473 15.9482C18.5429 15.5034 18.3784 14.9778 18.3748 14.4388C18.3745 14.0565 18.4578 13.6786 18.6187 13.3317C18.7797 12.9849 19.0145 12.6774 19.3067 12.4307Z" fill="black"/>
<path d="M11.2217 9.04257L13.8467 10.3551C14.0283 10.4522 14.2315 10.5019 14.4374 10.4994C14.6797 10.4987 14.9172 10.4309 15.1234 10.3035C15.3295 10.176 15.4964 9.99402 15.6055 9.77757C15.7612 9.4676 15.7878 9.10861 15.6796 8.77905C15.5714 8.44949 15.3371 8.17617 15.028 8.01882L12.403 6.70632C12.0971 6.57893 11.7543 6.57198 11.4434 6.68687C11.1326 6.80177 10.8767 7.03 10.7271 7.32574C10.5776 7.62149 10.5455 7.96286 10.6372 8.2813C10.729 8.59975 10.9378 8.87171 11.2217 9.04257Z" fill="black"/>
<path d="M27.5626 10.5006C27.7685 10.503 27.9717 10.4533 28.1532 10.3562L30.7782 9.04368C30.9449 8.97429 31.0954 8.87129 31.2204 8.74111C31.3454 8.61092 31.4422 8.45636 31.5048 8.28706C31.5674 8.11777 31.5943 7.93739 31.5841 7.7572C31.5738 7.57701 31.5264 7.40087 31.445 7.2398C31.3635 7.07874 31.2498 6.9362 31.1107 6.82109C30.9717 6.70598 30.8105 6.62079 30.637 6.57082C30.4636 6.52086 30.2817 6.5072 30.1028 6.53071C29.9238 6.55421 29.7516 6.61437 29.597 6.70743L26.972 8.01993C26.6629 8.17728 26.4286 8.4506 26.3204 8.78015C26.2122 9.10971 26.2388 9.4687 26.3945 9.77868C26.5036 9.99513 26.6704 10.1771 26.8766 10.3046C27.0828 10.432 27.3202 10.4998 27.5626 10.5006Z" fill="black"/>
<path d="M10.5 15.75H13.125C13.4731 15.75 13.8069 15.6117 14.0531 15.3656C14.2992 15.1194 14.4375 14.7856 14.4375 14.4375C14.4375 14.0894 14.2992 13.7556 14.0531 13.5094C13.8069 13.2633 13.4731 13.125 13.125 13.125H10.5C10.1519 13.125 9.81806 13.2633 9.57192 13.5094C9.32578 13.7556 9.1875 14.0894 9.1875 14.4375C9.1875 14.7856 9.32578 15.1194 9.57192 15.3656C9.81806 15.6117 10.1519 15.75 10.5 15.75Z" fill="black"/>
<path d="M27.5625 14.4375C27.5625 14.7856 27.7008 15.1194 27.9469 15.3656C28.1931 15.6117 28.5269 15.75 28.875 15.75H31.5C31.8481 15.75 32.1819 15.6117 32.4281 15.3656C32.6742 15.1194 32.8125 14.7856 32.8125 14.4375C32.8125 14.0894 32.6742 13.7556 32.4281 13.5094C32.1819 13.2633 31.8481 13.125 31.5 13.125H28.875C28.5269 13.125 28.1931 13.2633 27.9469 13.5094C27.7008 13.7556 27.5625 14.0894 27.5625 14.4375Z" fill="black"/>
<path d="M21 7.875C21.3481 7.875 21.6819 7.73672 21.9281 7.49058C22.1742 7.24444 22.3125 6.9106 22.3125 6.5625V3.9375C22.3125 3.5894 22.1742 3.25556 21.9281 3.00942C21.6819 2.76328 21.3481 2.625 21 2.625C20.6519 2.625 20.3181 2.76328 20.0719 3.00942C19.8258 3.25556 19.6875 3.5894 19.6875 3.9375V6.5625C19.6875 6.9106 19.8258 7.24444 20.0719 7.49058C20.3181 7.73672 20.6519 7.875 21 7.875Z" fill="black"/>
</svg>
