<svg width="42" height="42" viewBox="0 0 42 42" fill="none" xmlns="http://www.w3.org/2000/svg">
<path d="M38.0623 2.625H19.6873C19.3393 2.625 19.0054 2.76328 18.7593 3.00942C18.5131 3.25556 18.3748 3.5894 18.3748 3.9375V7.875C18.3748 8.2231 18.5131 8.55694 18.7593 8.80308C19.0054 9.04922 19.3393 9.1875 19.6873 9.1875V14.4375H5.78797C4.94906 14.4375 4.14451 14.7708 3.55131 15.364C2.9581 15.9572 2.62485 16.7617 2.62485 17.6006V23.0869C2.61388 23.8404 2.87228 24.573 3.35352 25.1529C3.83477 25.7328 4.50724 26.1219 5.24985 26.25V33.4688C5.24985 34.339 5.59555 35.1736 6.2109 35.7889C6.82626 36.4043 7.66086 36.75 8.5311 36.75C9.24062 36.7606 9.93341 36.5343 10.4998 36.1069C11.0327 36.5125 11.6809 36.7378 12.3505 36.75H12.5867C13.0021 36.75 13.4134 36.6682 13.7972 36.5092C14.181 36.3503 14.5297 36.1173 14.8234 35.8235C15.1171 35.5298 15.3501 35.1811 15.5091 34.7973C15.668 34.4136 15.7498 34.0023 15.7498 33.5869V21.6562C15.7498 21.4822 15.819 21.3153 15.9421 21.1922C16.0651 21.0691 16.232 21 16.4061 21H19.6873V24.9375C19.6865 25.2702 19.8121 25.5909 20.0387 25.8345C20.2653 26.0782 20.576 26.2267 20.908 26.25H26.3286L21.2492 33.3638C21.0819 33.6463 21.0265 33.9814 21.0941 34.3028C21.1617 34.6242 21.3474 34.9085 21.6144 35.0997C21.8814 35.2909 22.2104 35.3751 22.5365 35.3355C22.8625 35.296 23.1619 35.1357 23.3755 34.8862L27.5623 29.0325V32.8125C27.5623 33.1606 27.7006 33.4944 27.9468 33.7406C28.1929 33.9867 28.5268 34.125 28.8748 34.125C29.2229 34.125 29.5568 33.9867 29.8029 33.7406C30.0491 33.4944 30.1873 33.1606 30.1873 32.8125V29.0325L34.3742 34.8862C34.495 35.0559 34.6544 35.1943 34.8393 35.2902C35.0241 35.386 35.2291 35.4365 35.4373 35.4375C35.7109 35.4357 35.977 35.3485 36.1986 35.1881C36.4795 34.9854 36.6688 34.6799 36.7254 34.3381C36.7819 33.9964 36.7011 33.6461 36.5005 33.3638L31.4211 26.25H36.8417C37.1737 26.2267 37.4844 26.0782 37.711 25.8345C37.9376 25.5909 38.0632 25.2702 38.0623 24.9375V9.1875C38.4104 9.1875 38.7443 9.04922 38.9904 8.80308C39.2366 8.55694 39.3748 8.2231 39.3748 7.875V3.9375C39.3748 3.5894 39.2366 3.25556 38.9904 3.00942C38.7443 2.76328 38.4104 2.625 38.0623 2.625ZM20.9998 5.25H36.7498V6.5625H20.9998V5.25ZM16.4061 18.375C15.5359 18.375 14.7013 18.7207 14.0859 19.3361C13.4705 19.9514 13.1248 20.786 13.1248 21.6562V33.5869C13.1248 33.7296 13.0682 33.8665 12.9672 33.9674C12.8663 34.0683 12.7294 34.125 12.5867 34.125H12.3505C12.2078 34.125 12.0709 34.0683 11.97 33.9674C11.869 33.8665 11.8123 33.7296 11.8123 33.5869V27.5625C11.8123 27.2144 11.6741 26.8806 11.4279 26.6344C11.1818 26.3883 10.8479 26.25 10.4998 26.25C10.1518 26.25 9.81791 26.3883 9.57177 26.6344C9.32563 26.8806 9.18735 27.2144 9.18735 27.5625V33.4688C9.18735 33.6428 9.11821 33.8097 8.99514 33.9328C8.87207 34.0559 8.70515 34.125 8.5311 34.125C8.35705 34.125 8.19013 34.0559 8.06706 33.9328C7.94399 33.8097 7.87485 33.6428 7.87485 33.4688V26.25C7.87639 26.0682 7.83596 25.8886 7.75672 25.725C8.19478 25.4411 8.55504 25.0523 8.80486 24.5939C9.05467 24.1355 9.18614 23.622 9.18735 23.1V19.6875C9.18735 19.3394 9.04907 19.0056 8.80292 18.7594C8.55678 18.5133 8.22294 18.375 7.87485 18.375C7.52675 18.375 7.19291 18.5133 6.94677 18.7594C6.70063 19.0056 6.56235 19.3394 6.56235 19.6875V23.0869C6.56235 23.2296 6.50565 23.3665 6.40473 23.4674C6.30382 23.5683 6.16694 23.625 6.02422 23.625H5.78797C5.64525 23.625 5.50838 23.5683 5.40746 23.4674C5.30654 23.3665 5.24985 23.2296 5.24985 23.0869V17.6006C5.24985 17.4579 5.30654 17.321 5.40746 17.2201C5.50838 17.1192 5.64525 17.0625 5.78797 17.0625H21.4461C21.5515 17.0608 21.6557 17.0851 21.7496 17.1331C21.8434 17.1812 21.924 17.2516 21.9842 17.3381C22.0473 17.4239 22.0876 17.5243 22.1014 17.6299C22.1151 17.7354 22.1019 17.8428 22.063 17.9419C22.0171 18.0687 21.9333 18.1783 21.8229 18.2558C21.7125 18.3333 21.581 18.3749 21.4461 18.375H16.4061ZM35.4373 23.625H22.3123V20.8819C22.8216 20.7448 23.2902 20.4864 23.6779 20.1289C24.0657 19.7714 24.3612 19.3254 24.5391 18.8289C24.7171 18.3324 24.7722 17.8002 24.6999 17.2778C24.6275 16.7553 24.4298 16.2582 24.1236 15.8288C23.6964 15.1886 23.0537 14.7229 22.3123 14.5163V9.1875H35.4373V23.625Z" fill="#231F20"/>
<path d="M10.5 13.125C11.5384 13.125 12.5534 12.8171 13.4167 12.2402C14.2801 11.6633 14.953 10.8434 15.3504 9.88409C15.7477 8.92478 15.8517 7.86918 15.6491 6.85078C15.4466 5.83238 14.9465 4.89692 14.2123 4.16269C13.4781 3.42847 12.5426 2.92845 11.5242 2.72588C10.5058 2.52331 9.45022 2.62727 8.49091 3.02463C7.5316 3.42199 6.71166 4.0949 6.13478 4.95826C5.55791 5.82162 5.25 6.83665 5.25 7.875C5.25 9.26739 5.80312 10.6027 6.78769 11.5873C7.77226 12.5719 9.10761 13.125 10.5 13.125ZM10.5 5.25C11.0192 5.25 11.5267 5.40396 11.9584 5.69239C12.3901 5.98083 12.7265 6.3908 12.9252 6.87046C13.1239 7.35011 13.1758 7.87791 13.0746 8.38711C12.9733 8.89631 12.7233 9.36404 12.3562 9.73116C11.989 10.0983 11.5213 10.3483 11.0121 10.4496C10.5029 10.5508 9.97511 10.4989 9.49546 10.3002C9.0158 10.1015 8.60583 9.76505 8.31739 9.33337C8.02895 8.90169 7.875 8.39418 7.875 7.875C7.875 7.17881 8.15156 6.51113 8.64384 6.01885C9.13613 5.52656 9.80381 5.25 10.5 5.25Z" fill="#231F20"/>
</svg>
