<svg width="42" height="42" viewBox="0 0 42 42" fill="none" xmlns="http://www.w3.org/2000/svg">
<path d="M38.0625 7.87482H35.4375V6.70669C35.4443 6.40148 35.3445 6.10344 35.1552 5.86388C34.966 5.62432 34.6991 5.45823 34.4006 5.39419C33.1408 5.10994 31.9137 4.6965 30.7388 4.16044C30.2389 3.93981 29.7524 3.69 29.2819 3.41232C28.8711 3.15402 28.4304 2.94686 27.9694 2.79544C25.9612 2.21794 23.625 2.93982 21 5.01357C18.375 2.93982 16.0387 2.21794 14.0569 2.83482C13.5959 2.98624 13.1551 3.1934 12.7444 3.45169C12.2738 3.72938 11.7874 3.97919 11.2875 4.19982C10.1125 4.73587 8.88542 5.14931 7.62563 5.43357C7.32712 5.4976 7.06028 5.6637 6.87103 5.90325C6.68178 6.14281 6.58196 6.44085 6.58875 6.74607V7.87482H3.9375C3.5894 7.87482 3.25556 8.0131 3.00942 8.25924C2.76328 8.50538 2.625 8.83922 2.625 9.18732V32.8123C2.625 33.1604 2.76328 33.4943 3.00942 33.7404C3.25556 33.9865 3.5894 34.1248 3.9375 34.1248H17.2856C17.5572 34.8928 18.0602 35.5577 18.7255 36.0279C19.3907 36.498 20.1854 36.7502 21 36.7498C21.472 36.7516 21.9399 36.6625 22.3781 36.4873L23.3888 38.6267C23.4961 38.8521 23.6655 39.0422 23.877 39.1747C24.0886 39.3072 24.3335 39.3766 24.5831 39.3748C24.7747 39.3754 24.9636 39.3304 25.1344 39.2436L29.7412 37.0779C29.8989 37.0047 30.0404 36.9009 30.1575 36.7726C30.2747 36.6442 30.3652 36.4939 30.4239 36.3302C30.4825 36.1666 30.508 35.993 30.499 35.8194C30.4899 35.6459 30.4465 35.4758 30.3713 35.3192L29.8069 34.1248H38.0625C38.4106 34.1248 38.7444 33.9865 38.9906 33.7404C39.2367 33.4943 39.375 33.1604 39.375 32.8123V9.18732C39.375 8.83922 39.2367 8.50538 38.9906 8.25924C38.7444 8.0131 38.4106 7.87482 38.0625 7.87482ZM27.1819 5.34169C27.4628 5.44219 27.7314 5.57428 27.9825 5.73544C28.519 6.0396 29.071 6.3156 29.6362 6.56232C30.6612 7.04152 31.7235 7.43657 32.8125 7.74357V27.3129C32.104 27.093 31.4112 26.8255 30.7388 26.5123C30.2389 26.2917 29.7524 26.0419 29.2819 25.7642C28.8711 25.5059 28.4304 25.2987 27.9694 25.1473C27.1774 24.9077 26.3378 24.8716 25.5281 25.0423L25.3969 24.7667C25.3237 24.6074 25.2194 24.4644 25.0901 24.3461C24.9607 24.2278 24.809 24.1366 24.6439 24.0778C24.4787 24.0191 24.3035 23.9941 24.1285 24.0042C23.9535 24.0143 23.7823 24.0593 23.625 24.1367L22.47 24.6748L22.3125 24.3204V22.3123C23.1861 21.6232 23.9078 20.7609 24.4322 19.7795C24.9567 18.7982 25.2726 17.719 25.3601 16.6097C25.4476 15.5005 25.3048 14.3851 24.9408 13.3337C24.5767 12.2822 23.9991 11.3174 23.2444 10.4998C22.9632 10.177 22.6511 9.88247 22.3125 9.62044V7.87482C22.3162 7.71254 22.2849 7.55138 22.2206 7.40232C24.3075 5.69607 26.0137 4.98732 27.1819 5.34169ZM17.2987 10.4998C18.3648 10.4995 19.4077 10.8113 20.2986 11.3967C21.1896 11.9821 21.8897 12.8156 22.3125 13.7942C22.7649 14.8394 22.8816 15.9993 22.6465 17.1137C22.4114 18.2281 21.8361 19.242 21 20.0154C19.9899 20.9422 18.6695 21.4572 17.2987 21.4592C16.5566 21.4955 15.8148 21.3807 15.1183 21.1217C14.4219 20.8628 13.7853 20.465 13.2472 19.9526C12.709 19.4402 12.2806 18.8238 11.9879 18.1408C11.6952 17.4579 11.5442 16.7226 11.5442 15.9795C11.5442 15.2365 11.6952 14.5011 11.9879 13.8182C12.2806 13.1352 12.709 12.5188 13.2472 12.0064C13.7853 11.494 14.4219 11.0963 15.1183 10.8373C15.8148 10.5783 16.5566 10.4635 17.2987 10.4998ZM9.1875 7.74357C10.2765 7.43657 11.3388 7.04152 12.3638 6.56232C12.9295 6.30704 13.4815 6.02227 14.0175 5.70919C14.2686 5.54803 14.5372 5.41594 14.8181 5.31544C15.9862 4.96107 17.6925 5.66982 19.7794 7.37607C19.7113 7.5332 19.6799 7.70375 19.6875 7.87482H17.2987C16.207 7.83087 15.1176 8.00796 14.096 8.39546C13.0743 8.78295 12.1415 9.37287 11.3535 10.1298C10.5655 10.8867 9.93858 11.795 9.51031 12.8003C9.08204 13.8055 8.86128 14.8869 8.86128 15.9795C8.86128 17.0722 9.08204 18.1535 9.51031 19.1588C9.93858 20.164 10.5655 21.0723 11.3535 21.8292C12.1415 22.5861 13.0743 23.1761 14.096 23.5636C15.1176 23.951 16.207 24.1281 17.2987 24.0842C17.946 24.077 18.5897 23.9888 19.215 23.8217L19.6875 24.9373V26.0661L19.32 26.2367C18.1759 25.4606 16.8417 25.0114 15.4612 24.9373C14.985 24.9335 14.5111 25.0043 14.0569 25.1473C13.5959 25.2987 13.1551 25.5059 12.7444 25.7642C12.2738 26.0419 11.7874 26.2917 11.2875 26.5123C10.6065 26.8266 9.90487 27.0941 9.1875 27.3129V7.74357ZM21 34.1248C20.6519 34.1248 20.3181 33.9865 20.0719 33.7404C19.8258 33.4943 19.6875 33.1604 19.6875 32.8123C19.6875 32.4642 19.5492 32.1304 19.3031 31.8842C19.0569 31.6381 18.7231 31.4998 18.375 31.4998H5.25V10.4998H6.5625V29.0192C6.56183 29.2153 6.60511 29.409 6.68915 29.5862C6.77318 29.7633 6.89585 29.9194 7.04812 30.0429C7.20061 30.1663 7.37879 30.2539 7.56958 30.2993C7.76037 30.3447 7.95892 30.3468 8.15063 30.3054C9.60246 29.9818 11.015 29.5022 12.3638 28.8748C12.9295 28.6195 13.4815 28.3348 14.0175 28.0217C14.2686 27.8605 14.5372 27.7284 14.8181 27.6279C15.8025 27.3261 17.1806 27.7854 18.8475 28.9404L21.2494 34.1248H21ZM27.4312 35.2536L25.2 36.3167L24.4388 34.7154L23.0081 31.6704L22.1287 29.8067L22.0631 29.6623L21.3412 28.1267L22.3256 27.6542H22.3912L23.5725 27.0898L24.1763 28.4023L25.6594 31.4998L26.8931 34.1248L27.4312 35.2536ZM36.75 31.4998H28.56L26.6963 27.5623C26.8613 27.5618 27.0254 27.5884 27.1819 27.6411C27.4628 27.7416 27.7314 27.8737 27.9825 28.0348C28.5185 28.3479 29.0705 28.6327 29.6362 28.8879C30.986 29.5063 32.3986 29.9771 33.8494 30.2923C33.9408 30.3052 34.0336 30.3052 34.125 30.2923C34.4256 30.2936 34.7174 30.1917 34.9519 30.0036C35.1042 29.88 35.2268 29.724 35.3109 29.5468C35.3949 29.3696 35.4382 29.1759 35.4375 28.9798V10.4998H36.75V31.4998Z" fill="#231F20"/>
</svg>
