<svg width="31" height="30" viewBox="0 0 31 30" fill="none" xmlns="http://www.w3.org/2000/svg">
<g clip-path="url(#clip0_1986_3245)">
<path d="M4.59913 13.699V15.7038C4.59913 16.7187 3.77638 17.5415 2.76148 17.5415C1.74658 17.5415 0.923828 16.7187 0.923828 15.7038V13.699C0.923828 12.6841 1.74658 11.8613 2.76148 11.8613C3.77638 11.8613 4.59913 12.6841 4.59913 13.699Z" fill="#0066D9"/>
<path d="M26.6516 13.7513C26.6511 13.7338 26.6509 13.7164 26.6509 13.699C26.6509 12.6841 27.4736 11.8613 28.4885 11.8613C29.5034 11.8613 30.3262 12.6841 30.3262 13.699C30.3262 13.7165 30.326 13.7339 30.3254 13.7513H30.3262V15.756H30.3254C30.2979 16.7467 29.486 17.5414 28.4885 17.5414C27.4911 17.5414 26.6792 16.7467 26.6516 15.756H26.6509V13.7512H26.6516V13.7513Z" fill="#4285F4"/>
<path d="M10.9473 19.7136V21.7183C10.9473 22.7332 10.1246 23.556 9.10962 23.556C8.09467 23.556 7.27197 22.7332 7.27197 21.7183V19.7135C7.27197 18.6987 8.09472 17.8759 9.10962 17.8759C10.1245 17.8759 10.9473 18.6987 10.9473 19.7135V19.7136ZM10.9473 7.68531V14.2424H10.9468C10.9247 15.238 10.1106 16.0383 9.10962 16.0383C8.10868 16.0383 7.29466 15.238 7.27249 14.2424H7.27197V7.68531C7.27197 6.67041 8.09472 5.84766 9.10962 5.84766C10.1245 5.84766 10.9473 6.67041 10.9473 7.68531Z" fill="#EA4335"/>
<path d="M20.3027 9.69004C20.3027 10.7049 21.1254 11.5277 22.1404 11.5277C23.1553 11.5277 23.978 10.7049 23.978 9.69004V7.68532C23.978 6.67041 23.1553 5.84766 22.1404 5.84766C21.1255 5.84766 20.3027 6.67041 20.3027 7.68532V9.69004Z" fill="#34A853"/>
<path d="M13.7876 3.84242C13.7876 4.85726 14.6103 5.68007 15.6252 5.68007C16.6402 5.68007 17.4629 4.85726 17.4629 3.84242V1.83765C17.4629 0.822751 16.6402 0 15.6252 0C14.6103 0 13.7876 0.822751 13.7876 1.83765V3.84242ZM13.7876 25.56C13.7876 24.5452 14.6103 23.7224 15.6252 23.7224C16.6402 23.7224 17.4629 24.5452 17.4629 25.56V27.5648C17.4629 28.5797 16.6402 29.4024 15.6252 29.4024C14.6103 29.4024 13.7876 28.5797 13.7876 27.5648V25.56Z" fill="#FAB908"/>
<path d="M20.3027 15.2029C20.3027 14.188 21.1254 13.3652 22.1404 13.3652C23.1553 13.3652 23.978 14.188 23.978 15.2029V21.7182C23.978 22.7331 23.1553 23.5559 22.1404 23.5559C21.1255 23.5559 20.3027 22.7331 20.3027 21.7182V15.2029Z" fill="#34A853"/>
<path d="M17.4629 9.35523V20.0469C17.4629 21.0619 16.6402 21.8846 15.6252 21.8846C14.6103 21.8846 13.7876 21.0619 13.7876 20.0469V9.35523C13.7876 8.34027 14.6103 7.51758 15.6252 7.51758C16.6402 7.51758 17.4629 8.34027 17.4629 9.35523Z" fill="#FAB908"/>
</g>
<defs>
<clipPath id="clip0_1986_3245">
<rect width="29.4024" height="29.4024" fill="white" transform="translate(0.923828)"/>
</clipPath>
</defs>
</svg>
