<svg width="31" height="31" viewBox="0 0 31 31" fill="none" xmlns="http://www.w3.org/2000/svg">
<path d="M15.4123 0C7.07225 0 0.302734 6.76953 0.302734 15.1096C0.302734 23.4677 7.07225 30.2192 15.4123 30.2192C23.7704 30.2192 30.5219 23.4496 30.5219 15.1096C30.5399 6.76953 23.7704 0 15.4123 0ZM22.3443 21.8069C22.0735 22.2582 21.4958 22.3846 21.0445 22.1138C17.4883 19.9475 13.0294 19.4601 7.75823 20.6516C7.25277 20.7599 6.74731 20.453 6.639 19.9475C6.53069 19.4421 6.83758 18.9366 7.34303 18.8283C13.1016 17.5105 18.0479 18.0701 22.0193 20.5071C22.4887 20.7779 22.6331 21.3556 22.3443 21.8069ZM24.2036 17.691C23.8607 18.2506 23.1386 18.4131 22.579 18.0882C18.5173 15.5789 12.3254 14.8569 7.52355 16.3191C6.89173 16.4996 6.24186 16.1566 6.06134 15.5428C5.88082 14.911 6.22381 14.2611 6.85563 14.0806C12.3434 12.4198 19.1671 13.2141 23.8426 16.0844C24.3661 16.4093 24.5466 17.1314 24.2036 17.691ZM24.3661 13.3946C19.4921 10.5063 11.4589 10.2355 6.80147 11.6436C6.06134 11.8783 5.26705 11.445 5.03237 10.7049C4.79769 9.96474 5.23094 9.17045 5.97108 8.93577C11.3145 7.31109 20.1961 7.63602 25.7922 10.9576C26.4601 11.3548 26.6768 12.2213 26.2796 12.8892C25.9005 13.5752 25.034 13.7918 24.3661 13.3946Z" fill="#1ED760"/>
</svg>
