<svg width="421" height="471" viewBox="0 0 421 471" fill="none" xmlns="http://www.w3.org/2000/svg">
<g clip-path="url(#clip0_2916_5594)">
<path d="M302.213 86.1257V445.295C302.213 450.666 297.621 451.973 292.408 452.316L110.864 467.708L108.068 467.893C102.331 468.273 97.624 463.955 97.624 458.305V80.0699C97.624 74.4146 102.334 69.9367 108.068 70.1217L111.862 70.2445L294.038 84.1727C299.232 84.3359 302.213 80.7579 302.213 86.1257Z" fill="url(#paint0_linear_2916_5594)"/>
<path d="M307.768 86.126V445.114C307.768 450.483 303.519 455.156 298.311 455.501L113.814 467.698C108.081 468.077 103.385 463.762 103.385 458.11V80.0703C103.385 74.4166 108.095 69.9421 113.814 70.1271L298.311 76.0634C303.519 76.2232 307.768 80.7532 307.768 86.126Z" fill="url(#paint1_linear_2916_5594)"/>
<path d="M301.974 105.876V438.604C301.974 443.616 297.96 447.977 293.094 448.289L119.596 459.42C114.265 459.757 109.88 455.731 109.88 450.468V101.176C109.877 99.5221 110.318 97.8978 111.156 96.4722C111.994 95.0465 113.199 93.8716 114.645 93.0696C116.149 92.2297 117.851 91.8124 119.572 91.8618L293.094 96.5197C297.96 96.6509 301.974 100.858 301.974 105.876Z" fill="#30ADE2"/>
<path d="M211.64 84.3763C211.646 84.8246 211.56 85.2695 211.39 85.6841C211.219 86.0987 210.966 86.4745 210.646 86.7888C210.326 87.1031 209.946 87.3494 209.529 87.513C209.111 87.6766 208.665 87.754 208.217 87.7405C207.296 87.7049 206.425 87.3148 205.786 86.6517C205.147 85.9885 204.789 85.1039 204.787 84.1828C204.782 83.7345 204.868 83.2899 205.04 82.8757C205.211 82.4615 205.465 82.0863 205.785 81.7728C206.106 81.4592 206.486 81.2138 206.904 81.0512C207.322 80.8887 207.769 80.8124 208.217 80.8269C209.135 80.8638 210.003 81.2534 210.641 81.9146C211.278 82.5758 211.636 83.4576 211.64 84.3763Z" fill="#DE8BDF"/>
<path style="mix-blend-mode:multiply" opacity="0.3" d="M301.974 413.158V438.605C301.974 443.618 297.96 447.978 293.094 448.291L119.596 459.42C114.265 459.756 109.88 455.731 109.88 450.467V101.176C109.877 99.5218 110.318 97.8975 111.156 96.4719C111.994 95.0462 113.199 93.8713 114.645 93.0693C128.986 97.7894 170.829 120.283 174.181 223.084C177.47 323.787 280.089 346.154 301.974 413.158Z" fill="#0F7FCD"/>
<path d="M362.02 25.1147L272.194 19.6074C265.598 19.2709 260.225 24.425 260.225 31.1284V115.047C260.225 121.75 265.598 127.236 272.194 127.298L277.191 127.345V148.01C277.191 151.109 280.862 152.619 283.893 149.188L302.686 127.579L362.025 127.759C367.576 127.811 372.054 122.901 372.054 116.792V36.6946C372.049 30.585 367.569 25.4007 362.02 25.1147Z" fill="url(#paint2_linear_2916_5594)"/>
<path d="M364.868 125.577L275.041 125.109C268.446 125.047 263.075 119.558 263.075 112.858V28.9329C263.075 22.2295 268.446 17.0721 275.041 17.4119L364.868 22.9192C370.419 23.2052 374.897 28.3895 374.897 34.4991V114.603C374.897 120.719 370.417 125.629 364.868 125.577Z" fill="#F9A94A"/>
<path d="M266.488 115.117V26.8889C266.488 23.3211 269.347 20.5741 272.861 20.7507L366.703 26.1824C369.659 26.3304 372.049 29.0925 372.049 32.3525V116.589C372.049 119.847 369.659 122.465 366.703 122.433L272.861 121.646C269.346 121.607 266.488 118.685 266.488 115.117Z" fill="#F9A94A"/>
<path d="M280.034 145.822V120.906L309.153 121.229L285.81 148.056C283.797 150.37 280.034 148.92 280.034 145.822Z" fill="#F9A94A"/>
<path d="M303.959 72.6267C303.959 76.3711 300.808 79.3367 296.907 79.2493C293.006 79.1618 289.812 76.033 289.812 72.265C289.812 68.497 292.998 65.5364 296.912 65.6424C300.827 65.7484 303.959 68.8822 303.959 72.6267Z" fill="white"/>
<path d="M327.706 73.2338C327.706 76.9345 324.627 79.8665 320.819 79.7807C317.011 79.6949 313.885 76.6065 313.885 72.8839C313.885 69.1614 316.996 66.226 320.819 66.337C324.643 66.4481 327.706 69.5331 327.706 73.2338Z" fill="white"/>
<path d="M350.904 73.8277C350.904 77.4847 347.896 80.388 344.175 80.3006C340.454 80.2131 337.401 77.1651 337.401 73.4812C337.401 69.7973 340.439 66.9006 344.175 67.0083C347.911 67.1159 350.904 70.169 350.904 73.8277Z" fill="white"/>
<path d="M324.875 357.045C324.875 339.3 340.351 324.916 358.93 324.916C376.958 324.916 391.185 338.541 391.185 355.351C391.185 372.161 376.958 386.511 358.93 387.433C340.354 388.383 324.875 374.79 324.875 357.045Z" fill="url(#paint3_linear_2916_5594)"/>
<path d="M326.876 355.63C326.876 337.883 341.908 323.501 359.947 323.501C377.453 323.501 391.269 337.126 391.269 353.936C391.269 370.746 377.453 385.094 359.947 386.016C341.908 386.968 326.876 373.375 326.876 355.63Z" fill="#FF9085"/>
<g style="mix-blend-mode:soft-light" opacity="0.5">
<g style="mix-blend-mode:soft-light" opacity="0.5">
<path d="M332.023 355.494C332.023 340.585 344.651 328.5 359.807 328.502C374.514 328.502 386.121 339.952 386.121 354.071C386.121 368.189 374.514 380.25 359.807 381.024C344.65 381.824 332.023 370.408 332.023 355.494Z" fill="white"/>
</g>
</g>
<g style="mix-blend-mode:soft-light" opacity="0.5">
<path d="M358.764 330.795C373.471 330.795 385.078 342.244 385.078 356.363C385.073 359.649 384.442 362.903 383.218 365.952C385.118 362.277 386.114 358.202 386.121 354.066C386.121 339.936 374.514 328.497 359.807 328.497C348.118 328.497 337.94 335.688 333.891 345.823C338.476 336.916 347.977 330.793 358.764 330.795Z" fill="white"/>
</g>
<path d="M344.482 367.73C343.584 367.737 342.718 367.392 342.071 366.769C341.752 366.465 341.498 366.1 341.325 365.695C341.151 365.29 341.062 364.855 341.062 364.414V346.052C341.062 344.181 342.63 342.634 344.556 342.602L374.912 342.097C375.357 342.09 375.799 342.171 376.213 342.335C376.627 342.499 377.005 342.744 377.324 343.054C377.636 343.359 377.883 343.724 378.052 344.127C378.22 344.529 378.306 344.961 378.305 345.398V363.216C378.292 364.106 377.939 364.957 377.317 365.594C376.696 366.23 375.855 366.605 374.966 366.64L344.61 367.728L344.482 367.73ZM374.95 344.117L344.595 344.622C343.765 344.635 343.081 345.276 343.081 346.05V364.407C343.08 364.577 343.114 364.744 343.181 364.9C343.247 365.055 343.345 365.196 343.467 365.312C343.61 365.446 343.777 365.55 343.961 365.618C344.144 365.685 344.339 365.715 344.534 365.706L374.89 364.616C375.257 364.604 375.606 364.453 375.865 364.192C376.124 363.931 376.273 363.58 376.281 363.213V345.396C376.282 345.228 376.248 345.062 376.183 344.907C376.118 344.752 376.023 344.612 375.903 344.494C375.777 344.369 375.627 344.271 375.461 344.206C375.296 344.142 375.119 344.111 374.942 344.117H374.95Z" fill="white"/>
<path d="M359.863 356.369C358.926 356.371 358.017 356.046 357.293 355.452L343.772 344.397C343.669 344.313 343.584 344.209 343.521 344.092C343.458 343.975 343.419 343.847 343.406 343.715C343.393 343.583 343.406 343.45 343.444 343.323C343.482 343.195 343.545 343.077 343.629 342.974C343.713 342.872 343.817 342.787 343.934 342.724C344.051 342.661 344.179 342.622 344.311 342.609C344.443 342.596 344.576 342.609 344.704 342.647C344.831 342.685 344.949 342.748 345.052 342.832L358.571 353.887C358.961 354.198 359.448 354.36 359.947 354.344C360.445 354.329 360.922 354.136 361.291 353.802L374.42 342.343C374.622 342.166 374.886 342.077 375.154 342.096C375.422 342.114 375.671 342.237 375.847 342.44C376.024 342.642 376.113 342.906 376.095 343.173C376.077 343.441 375.953 343.69 375.751 343.867L362.62 355.326C361.858 355.996 360.878 356.366 359.863 356.369Z" fill="white"/>
<path d="M206.598 9.68727C215.988 19.3074 215.988 34.4703 206.598 43.7389C197.106 53.1084 181.489 53.0563 171.716 43.4311C161.833 33.6965 161.833 18.0559 171.716 8.69144C181.482 -0.568753 197.106 -0.0371945 206.598 9.68727Z" fill="url(#paint4_linear_2916_5594)"/>
<path d="M208.304 7.63017C217.694 17.2503 217.694 32.4115 208.304 41.6801C198.81 51.0513 183.194 50.9992 173.421 41.3723C163.539 31.6377 163.539 15.9972 173.421 6.63266C183.194 -2.62753 198.808 -2.09598 208.304 7.63017Z" fill="#FF9085"/>
<g style="mix-blend-mode:soft-light" opacity="0.5">
<g style="mix-blend-mode:soft-light" opacity="0.5">
<path d="M204.884 10.8697C212.454 18.6227 212.454 30.8418 204.884 38.3122C197.232 45.865 184.646 45.8213 176.771 38.0632C168.806 30.2194 168.806 17.6134 176.771 10.0657C184.646 2.60199 197.232 3.02757 204.884 10.8697Z" fill="white"/>
</g>
</g>
<g style="mix-blend-mode:soft-light" opacity="0.5">
<path d="M204.884 10.87C197.232 3.03119 184.646 2.60225 176.77 10.0659C176.696 10.1349 176.629 10.2089 176.557 10.2779C184.389 5.15405 195.122 6.24072 201.94 13.2351C209.51 20.9881 209.51 33.2072 201.94 40.6776L201.873 40.7398C202.955 40.0326 203.963 39.2195 204.884 38.3125C212.45 30.8421 212.45 18.623 204.884 10.87Z" fill="white"/>
</g>
<path d="M199.032 35.5349L202.695 35.5787V15.43L199.032 15.3408V35.5349Z" fill="white"/>
<path d="M192.478 35.4542L196.17 35.4997V25.3866L192.478 25.3193V35.4542Z" fill="white"/>
<path d="M185.874 35.3719L189.595 35.419V13.1911L185.874 13.0986V35.3719Z" fill="white"/>
<path d="M179.22 35.2894L182.969 35.3365V16.335L179.22 16.2476V35.2894Z" fill="white"/>
<path d="M340.324 212.527C340.324 190.971 359.128 173.501 381.696 173.501C403.594 173.501 420.878 190.057 420.878 210.473C420.878 230.889 403.594 248.321 381.696 249.445C359.128 250.597 340.324 234.084 340.324 212.527Z" fill="url(#paint5_linear_2916_5594)"/>
<path d="M342.757 210.808C342.757 189.251 361.017 171.782 382.93 171.782C404.196 171.782 420.979 188.338 420.979 208.754C420.979 229.17 404.196 246.602 382.93 247.726C361.017 248.878 342.757 232.365 342.757 210.808Z" fill="#AA80F9"/>
<g style="mix-blend-mode:soft-light" opacity="0.5">
<g style="mix-blend-mode:soft-light" opacity="0.5">
<path d="M349.009 210.643C349.009 192.533 364.35 177.853 382.761 177.855C400.627 177.855 414.722 191.765 414.722 208.917C414.722 226.07 400.62 240.71 382.761 241.66C364.35 242.629 349.009 228.755 349.009 210.643Z" fill="white"/>
</g>
</g>
<g style="mix-blend-mode:soft-light" opacity="0.5">
<path d="M381.489 180.637C399.355 180.637 413.449 194.546 413.449 211.699C413.445 215.694 412.678 219.65 411.189 223.356C413.5 218.893 414.711 213.943 414.721 208.917C414.721 191.759 400.62 177.856 382.76 177.854C368.561 177.854 356.196 186.588 351.277 198.891C356.847 188.075 368.39 180.637 381.489 180.637Z" fill="white"/>
</g>
<path d="M377.067 217.483V215.181C377.067 213.193 377.491 211.463 378.34 209.992C379.189 208.521 380.743 206.956 383.003 205.299C385.177 203.745 386.612 202.48 387.307 201.506C387.994 200.557 388.359 199.413 388.349 198.242C388.349 196.897 387.851 195.871 386.857 195.166C385.862 194.46 384.474 194.108 382.692 194.109C379.584 194.109 376.041 195.125 372.062 197.156L368.674 190.348C373.154 187.796 378.221 186.457 383.376 186.464C387.644 186.464 391.037 187.489 393.555 189.541C396.072 191.592 397.331 194.327 397.331 197.746C397.331 200.025 396.813 201.993 395.777 203.65C394.741 205.308 392.772 207.173 389.871 209.245C387.883 210.718 386.624 211.839 386.095 212.609C385.565 213.38 385.301 214.385 385.302 215.624V217.489L377.067 217.483ZM376.072 228.112C376.072 226.372 376.538 225.056 377.47 224.164C378.402 223.273 379.76 222.827 381.543 222.828C383.262 222.828 384.593 223.284 385.536 224.196C386.479 225.108 386.951 226.413 386.951 228.112C386.951 229.749 386.474 231.039 385.521 231.981C384.568 232.923 383.242 233.395 381.543 233.396C379.801 233.396 378.455 232.934 377.506 232.011C376.556 231.088 376.078 229.789 376.072 228.112Z" fill="white"/>
<g style="mix-blend-mode:multiply">
<path style="mix-blend-mode:multiply" opacity="0.3" d="M287.457 210.456C286.407 210.456 285.425 211.009 284.633 211.946C275.847 187.259 246.907 168.895 212.178 168.569C205.311 168.495 198.455 169.152 191.728 170.53H191.708C165.759 175.857 145.097 191.557 137.724 211.721C136.883 210.753 135.749 210.183 134.643 210.18C131.817 210.18 129.366 213.86 129.366 218.407V242.329C129.366 246.882 131.706 250.551 134.533 250.536H134.619H134.7C136.382 250.528 137.973 249.2 138.905 247.172C149.297 270.907 178.346 287.69 212.178 287.277C221.271 287.189 230.304 285.798 239.003 283.146C260.03 276.693 276.447 263.191 283.549 246.475C284.431 248.447 285.874 249.727 287.47 249.719C290.14 249.705 292.332 246.112 292.332 241.696V218.461C292.315 214.044 290.123 210.461 287.457 210.456Z" fill="url(#paint6_linear_2916_5594)"/>
<path style="mix-blend-mode:multiply" opacity="0.3" d="M234.619 296.075L189.524 296.698C183.806 296.785 178.212 298.377 173.305 301.314C169.384 303.646 165.982 306.757 163.308 310.454C157.131 318.979 155.305 329.895 158.386 339.836C158.45 340.04 158.514 340.248 158.576 340.45L159.754 344.247C162.141 351.924 164.523 359.592 166.898 367.25C172.964 386.79 190.919 399.616 211.18 398.959C217.463 398.753 223.647 397.333 229.39 394.777C242.51 388.952 252.901 377.501 257.246 363.038C259.361 355.996 261.476 348.96 263.593 341.932L264.726 338.158L264.91 337.547C267.872 327.683 266.117 317.047 260.168 308.883C257.249 304.856 253.404 301.59 248.957 299.361C244.51 297.131 239.593 296.005 234.619 296.075Z" fill="url(#paint7_linear_2916_5594)"/>
</g>
<path d="M288.703 224.061C288.696 230.333 287.418 236.538 284.947 242.303C278.003 258.645 261.951 271.844 241.4 278.152C232.897 280.745 224.066 282.105 215.177 282.19C182.103 282.593 153.708 266.186 143.55 242.982C138.682 232.017 138.282 219.586 142.433 208.33C149.639 188.624 169.818 173.269 195.186 168.061C201.763 166.715 208.464 166.072 215.177 166.144C249.128 166.463 277.416 184.417 286.005 208.55C287.788 213.528 288.7 218.775 288.703 224.061Z" fill="white"/>
<path d="M249.675 255.221L182.623 255.704C168.89 255.803 157.705 244.629 157.705 230.746V216.066C157.705 209.793 162.763 204.72 168.991 204.733L262.905 204.94C268.905 204.954 273.758 209.941 273.758 216.079V230.453C273.758 244.033 263.002 255.125 249.675 255.221Z" fill="#D8DEE8"/>
<path d="M219.949 267.676L210.395 267.767C197.146 267.893 186.358 257.082 186.358 243.62C186.358 230.162 197.146 219.24 210.395 219.229H219.949C233.087 219.229 243.689 230.014 243.689 243.335C243.689 256.655 233.087 267.551 219.949 267.676Z" fill="#D8DEE8"/>
<path d="M251.459 243.911L180.035 244.274C170.269 244.324 162.326 236.368 162.326 226.504V219.991C162.326 213.723 167.372 208.65 173.596 208.66L257.725 208.784C263.737 208.784 268.6 213.782 268.6 219.925V226.317C268.598 235.981 260.94 243.86 251.459 243.911Z" fill="url(#paint8_linear_2916_5594)"/>
<path d="M201.087 228.484C201.786 227.525 202.172 226.374 202.193 225.189C202.193 221.32 198.132 218.171 193.117 218.172C188.103 218.174 184.01 221.328 184.01 225.217C184.031 226.406 184.42 227.56 185.122 228.519L201.087 228.484Z" fill="#D8DEE8"/>
<path d="M246.357 228.386C247.045 227.433 247.424 226.292 247.445 225.117C247.445 221.274 243.454 218.158 238.52 218.16C233.586 218.162 229.566 221.289 229.566 225.146C229.586 226.323 229.968 227.466 230.659 228.42L246.357 228.386Z" fill="#D8DEE8"/>
<path d="M144.009 214.862V238.205C144.009 239.987 143.905 241.638 143.292 242.977C142.387 244.964 141.105 246.261 139.455 246.269C136.691 246.285 134.631 242.697 134.631 238.244V214.862C134.631 210.416 136.818 206.815 139.585 206.82C140.666 206.82 141.64 207.38 142.458 208.334C142.682 208.591 142.626 208.879 142.818 209.192C143.723 210.637 144.009 212.643 144.009 214.862Z" fill="url(#paint9_linear_2916_5594)"/>
<path d="M288.753 245.463C286.142 245.477 284.022 241.981 284.022 237.656V214.909C284.022 210.584 286.142 207.082 288.753 207.087C291.362 207.087 293.476 210.594 293.476 214.912V237.621C293.476 241.938 291.362 245.448 288.753 245.463Z" fill="url(#paint10_linear_2916_5594)"/>
<path d="M266.743 331.332C266.682 331.529 266.623 331.732 266.563 331.929L265.454 335.62C263.391 342.494 261.323 349.372 259.251 356.253C255.001 370.393 244.84 381.586 232.018 387.282C226.404 389.78 220.358 391.168 214.216 391.369C194.409 392.012 176.854 379.473 170.925 360.372C168.6 352.88 166.272 345.383 163.94 337.882L162.788 334.171C162.727 333.973 162.665 333.769 162.603 333.571C159.589 323.851 161.375 313.181 167.414 304.846C170.028 301.232 173.354 298.191 177.187 295.911C181.984 293.039 187.453 291.483 193.043 291.399L237.129 290.789C241.991 290.719 246.799 291.821 251.146 294C255.494 296.18 259.253 299.373 262.107 303.311C267.922 311.291 269.638 321.69 266.743 331.332Z" fill="white"/>
<path d="M266.563 331.929L265.455 335.62L163.941 337.882L162.789 334.171L266.563 331.929Z" fill="#D8DEE8"/>
<g style="mix-blend-mode:multiply" opacity="0.3">
<path d="M220.508 267.663C227.082 271.947 234.211 275.444 241.395 278.146C232.892 280.739 224.061 282.098 215.172 282.183C182.098 282.587 153.703 266.179 143.545 242.976C142.64 244.962 141.228 246.257 139.58 246.268C136.816 246.283 134.626 242.695 134.626 238.242V214.86C134.626 210.414 136.813 206.813 139.58 206.818C140.662 206.818 141.635 207.378 142.453 208.332C149.659 188.626 169.827 173.271 195.195 168.063C197.594 176.625 197.52 187.281 193.117 200.506C192.635 201.955 192.214 203.385 191.846 204.796C191.509 206.108 191.213 207.41 190.968 208.699C190.341 211.964 190.019 215.281 190.004 218.606C189.992 221.933 190.317 225.253 190.973 228.514C191.016 228.711 191.052 228.904 191.101 229.096C192.26 234.418 194.272 239.518 197.06 244.197C199.501 248.3 202.405 252.109 205.717 255.548C210.078 260.093 215.098 264.144 220.508 267.663Z" fill="#D8DEE8"/>
</g>
<g style="mix-blend-mode:multiply" opacity="0.3">
<path d="M232.018 387.281C226.404 389.78 220.358 391.168 214.216 391.369C194.409 392.011 176.854 379.473 170.925 360.372C168.6 352.88 166.272 345.383 163.94 337.882L162.788 334.171C162.727 333.973 162.665 333.769 162.603 333.57C159.589 323.851 161.375 313.181 167.414 304.846C170.028 301.232 173.354 298.191 177.187 295.911C177.404 306.845 175.362 319.197 190.476 333.572C191.732 334.773 193.109 335.982 194.607 337.199C198.308 340.21 202.776 343.298 208.186 346.471C234.065 361.632 240.485 376.632 232.018 387.281Z" fill="#D8DEE8"/>
</g>
<path d="M132.517 442.288C136.84 445.107 142.431 443.568 145.001 438.843C147.572 434.118 146.142 427.998 141.805 425.185C141.58 425.041 141.351 424.913 141.121 424.79C142.016 422.136 142.716 419.42 143.217 416.664C143.469 416.691 143.721 416.712 143.98 416.716C149.027 416.781 153.163 412.369 153.222 406.86C153.281 401.351 149.235 396.846 144.194 396.794C143.932 396.794 143.671 396.808 143.414 396.829C142.973 394.064 142.334 391.333 141.501 388.659C141.736 388.542 141.97 388.419 142.201 388.277C146.593 385.566 148.154 379.485 145.684 374.701C143.215 369.917 137.661 368.252 133.279 370.97C133.055 371.11 132.843 371.263 132.633 371.419C130.998 369.285 129.198 367.283 127.25 365.431C127.398 365.204 127.544 364.971 127.675 364.726C130.236 359.987 133.551 354.857 129.189 352.162C119.137 345.938 114.63 349.985 112.08 354.717C111.949 354.963 111.833 355.222 111.722 355.466C109.332 354.518 106.866 353.776 104.351 353.247C104.374 352.973 104.395 352.698 104.398 352.418C104.457 346.947 106.08 344.143 101.101 343.558C90.2545 342.283 86.4528 346.883 86.3939 352.34C86.3939 352.624 86.404 352.905 86.4226 353.181C83.9119 353.685 81.4479 354.399 79.0564 355.314C78.9505 355.06 78.8411 354.81 78.72 354.561C76.2977 349.829 70.8409 348.192 66.5363 350.897C62.2317 353.602 60.7093 359.614 63.1215 364.339C63.246 364.581 63.3822 364.81 63.5202 365.035C61.5679 366.851 59.7602 368.816 58.1138 370.913C57.9085 370.744 57.7016 370.596 57.483 370.455C53.2524 367.71 47.7955 369.286 45.2908 373.969C42.7861 378.652 44.1755 384.671 48.396 387.426C48.6147 387.569 48.8384 387.694 49.0689 387.813C48.1943 390.437 47.5102 393.121 47.0217 395.844C46.7761 395.819 46.5289 395.797 46.2782 395.795C41.3731 395.744 37.3545 400.1 37.2956 405.523C37.2367 410.946 41.1645 415.392 46.0612 415.456C46.3186 415.456 46.5659 415.442 46.8215 415.422C47.2504 418.154 47.8727 420.853 48.6837 423.497C48.4532 423.611 48.2261 423.732 48.0108 423.87C43.7146 426.524 42.2007 432.513 44.5961 437.251C46.9914 441.99 55.3433 445.003 59.6361 442.355C59.8565 442.219 57.1381 440.764 57.3434 440.611C58.9493 442.741 60.718 444.743 62.6337 446.599C62.4873 446.824 62.3444 447.053 62.2148 447.295C59.6916 451.963 61.0945 458.016 65.3352 460.818C69.5759 463.621 75.0731 462.112 77.598 457.435C77.7292 457.193 77.8436 456.946 77.953 456.697C80.3246 457.674 82.7747 458.447 85.277 459.01C85.2535 459.282 85.2333 459.558 85.2299 459.837C85.1694 465.298 89.1459 469.804 94.115 469.905C99.084 470.006 103.177 465.649 103.236 460.176C103.236 459.89 103.225 459.609 103.205 459.335C105.731 458.865 108.212 458.184 110.624 457.297C110.73 457.553 110.841 457.802 110.96 458.059C113.407 462.852 118.928 464.586 123.295 461.928C127.662 459.271 129.223 453.212 126.765 448.412C126.639 448.167 126.5 447.935 126.358 447.706C128.345 445.894 130.186 443.929 131.864 441.828C132.081 441.982 132.293 442.141 132.517 442.288ZM78.1599 437.044C62.7346 426.92 57.6663 404.979 66.8004 387.965C75.9546 370.911 95.9586 365.16 111.52 375.195C127.149 385.273 132.32 407.402 123.028 424.546C113.756 441.65 93.6507 447.211 78.1599 437.044Z" fill="url(#paint11_linear_2916_5594)"/>
<path d="M143.984 416.715C149.03 416.779 153.167 412.367 153.225 406.86C153.284 401.352 149.239 396.844 144.197 396.794C143.935 396.794 143.674 396.807 143.417 396.829C142.977 394.063 142.337 391.333 141.504 388.659C141.74 388.541 141.974 388.418 142.204 388.277C146.596 385.566 152.149 378.489 149.237 373.962C143.718 365.383 137.664 368.243 133.282 370.97C133.058 371.109 132.846 371.262 132.638 371.419C131 369.285 129.197 367.282 127.246 365.43C127.394 365.203 127.541 364.971 127.672 364.725C129.014 362.214 129.305 359.272 128.479 356.547C124.116 363.769 119.822 371.019 115.598 378.299C127.985 389.342 131.455 408.998 123.026 424.546C115.899 437.697 102.359 444.017 89.442 441.613C88.8179 443.127 88.2039 444.641 87.5411 446.139C85.7396 450.187 83.7159 454.12 81.689 458.044C82.8788 458.417 84.0748 458.739 85.277 459.01C85.2534 459.282 85.2332 459.558 85.2299 459.837C85.1693 465.297 88.1703 470.285 97.1731 470.808C102.159 471.099 103.182 465.649 103.241 460.175C103.241 459.889 103.23 459.608 103.21 459.334C105.736 458.865 108.217 458.183 110.629 457.297C110.735 457.553 110.846 457.802 110.965 458.059C113.413 462.852 122.325 465.78 126.696 463.119C131.068 460.458 129.228 453.208 126.77 448.409C126.644 448.163 126.505 447.931 126.363 447.702C128.35 445.89 130.191 443.925 131.869 441.825C132.078 441.993 132.29 442.148 132.513 442.292C136.836 445.113 142.428 443.574 144.998 438.849C147.568 434.124 146.139 428.004 141.802 425.192C141.577 425.047 141.348 424.919 141.117 424.796C142.013 422.142 142.713 419.426 143.213 416.67C143.466 416.69 143.726 416.712 143.984 416.715Z" fill="url(#paint12_linear_2916_5594)"/>
<path d="M137.225 443.369C141.555 446.19 147.149 444.651 149.726 439.924C152.303 435.197 150.867 429.072 146.53 426.258C146.305 426.112 146.074 425.984 145.844 425.863C146.74 423.206 147.442 420.488 147.943 417.73C148.196 417.757 148.448 417.778 148.709 417.782C153.755 417.847 157.902 413.433 157.96 407.923C158.019 402.412 153.97 397.901 148.922 397.848C148.658 397.848 148.399 397.862 148.14 397.884C147.699 395.116 147.059 392.384 146.226 389.708C146.461 389.589 146.695 389.468 146.926 389.325C151.323 386.613 152.887 380.527 150.413 375.74C147.938 370.953 142.379 369.287 137.992 372.006C137.768 372.145 137.556 372.298 137.346 372.455C135.707 370.319 133.902 368.315 131.948 366.463C132.098 366.234 132.242 366.002 132.375 365.756C134.939 361.015 133.512 354.925 129.194 352.161C124.876 349.398 119.318 351.006 116.766 355.741C116.635 355.985 116.519 356.236 116.408 356.488C114.015 355.539 111.546 354.796 109.027 354.267C109.05 353.993 109.071 353.719 109.074 353.438C109.133 347.964 105.138 343.513 100.159 343.5C95.1796 343.487 91.1071 347.897 91.0482 353.357C91.0482 353.643 91.06 353.924 91.0785 354.198C88.5645 354.702 86.0971 355.416 83.7023 356.331C83.5963 356.077 83.487 355.827 83.3658 355.576C80.9402 350.843 75.4766 349.202 71.167 351.909C66.8573 354.616 65.3333 360.631 67.7488 365.366C67.8716 365.608 68.0079 365.837 68.1475 366.063C66.1932 367.882 64.3834 369.85 62.7344 371.95C62.5308 371.782 62.3239 371.634 62.1036 371.493C57.8679 368.744 52.4043 370.315 49.8963 375.007C47.3882 379.698 48.781 385.715 53.0065 388.464C53.2252 388.605 53.4489 388.729 53.6794 388.851C52.8016 391.475 52.1136 394.158 51.6205 396.881C51.3749 396.858 51.1276 396.836 50.877 396.832C45.9668 396.782 41.9431 401.139 41.8825 406.565C41.822 411.992 45.7515 416.441 50.6616 416.505C50.9173 416.505 51.1663 416.493 51.422 416.473C51.8525 419.205 52.4753 421.903 53.2858 424.547C53.0553 424.662 52.8282 424.781 52.6028 424.921C48.3184 427.577 46.7961 433.569 49.1998 438.311C51.6036 443.053 57.0336 444.76 61.3298 442.112C61.5501 441.976 61.757 441.826 61.9623 441.673C63.57 443.805 65.341 445.809 67.2593 447.667C67.113 447.892 66.97 448.121 66.8388 448.363C64.3156 453.034 65.7185 459.09 69.9642 461.894C74.2099 464.698 79.7207 463.191 82.2439 458.511C82.3751 458.269 82.4878 458.022 82.5988 457.771C84.9728 458.75 87.4258 459.525 89.9313 460.088C89.9077 460.362 89.8858 460.636 89.8842 460.917C89.8236 466.379 93.8052 470.89 98.7793 470.991C103.753 471.092 107.853 466.734 107.913 461.258C107.913 460.972 107.902 460.69 107.883 460.409C110.412 459.941 112.896 459.259 115.31 458.372C115.416 458.628 115.527 458.885 115.655 459.134C118.105 463.93 123.635 465.666 128.007 463.003C132.378 460.34 133.939 454.281 131.48 449.478C131.354 449.233 131.214 449.001 131.073 448.77C133.062 446.956 134.906 444.987 136.585 442.883C136.789 443.063 137.001 443.223 137.225 443.369ZM82.799 438.114C67.3552 427.982 62.2768 406.027 71.4243 388.995C80.5903 371.932 100.62 366.18 116.201 376.224C131.845 386.317 137.026 408.454 127.722 425.609C118.44 442.728 98.31 448.291 82.799 438.114Z" fill="#FF9085"/>
<path d="M10.9498 151.709C25.1942 139.318 47.5667 140.639 60.9397 154.094C74.0015 167.235 74.0015 187.532 60.9397 199.961C47.5667 212.688 25.1942 212.788 10.9498 199.625C-3.65123 186.126 -3.65123 164.408 10.9498 151.709Z" fill="url(#paint13_linear_2916_5594)"/>
<path d="M12.46 150.047C26.7044 137.656 49.0769 138.977 62.45 152.432C75.5118 165.575 75.5118 185.87 62.45 198.301C49.0769 211.026 26.7044 211.127 12.46 197.964C-2.14097 184.457 -2.14097 162.737 12.46 150.047Z" fill="#AA80F9"/>
<g style="mix-blend-mode:soft-light" opacity="0.5">
<g style="mix-blend-mode:soft-light" opacity="0.5">
<path d="M16.0311 153.64C28.1913 143.063 47.2921 144.19 58.7088 155.677C69.8597 166.897 69.8597 184.223 58.7088 194.836C47.2921 205.699 28.1913 205.785 16.0311 194.545C3.56645 183.017 3.56645 164.481 16.0311 153.64Z" fill="white"/>
</g>
</g>
<g style="mix-blend-mode:soft-light" opacity="0.3">
<path d="M14.5208 156.113C26.6827 145.536 45.7818 146.663 57.1985 158.15C66.2063 167.213 67.9373 180.258 62.3862 190.533C69.68 179.957 68.4537 165.484 58.7057 155.677C47.289 144.19 28.1882 143.061 16.028 153.64C13.51 155.817 11.409 158.434 9.82764 161.363C11.164 159.422 12.7409 157.658 14.5208 156.113Z" fill="white"/>
</g>
<path d="M54.9445 172.703C54.9708 174.692 54.6286 176.668 53.9353 178.533C53.2557 180.296 52.2969 181.679 51.0588 182.683C49.8436 183.68 48.3146 184.216 46.7424 184.195C45.7212 184.214 44.7158 183.942 43.8441 183.409C43.0378 182.926 42.403 182.203 42.0291 181.34H41.6758C40.0811 183.247 38.0525 184.2 35.5898 184.2C32.9791 184.2 30.9213 183.415 29.4163 181.845C27.9114 180.275 27.1595 178.125 27.1606 175.396C27.1606 172.284 28.1486 169.776 30.1245 167.873C32.1005 165.97 34.6798 165.017 37.8624 165.013C39.2677 165.025 40.6699 165.147 42.056 165.378C43.3353 165.563 44.5969 165.855 45.8273 166.252L45.3227 177.073C45.3227 179.122 45.8834 180.147 47.0048 180.148C47.948 180.148 48.6999 179.458 49.2606 178.079C49.8213 176.699 50.1017 174.896 50.1017 172.669C50.1017 170.294 49.6077 168.196 48.6197 166.374C47.6771 164.598 46.2241 163.145 44.448 162.203C42.6537 161.244 40.6071 160.764 38.3082 160.764C35.3285 160.764 32.7397 161.377 30.5417 162.601C28.3602 163.814 26.5999 165.662 25.4953 167.9C24.3211 170.21 23.7346 172.876 23.7357 175.899C23.7357 179.972 24.8235 183.095 26.9991 185.27C29.1747 187.444 32.3276 188.532 36.4578 188.533C38.1886 188.517 39.9143 188.343 41.6136 188.013C43.497 187.665 45.3477 187.159 47.1461 186.499V190.747C43.9882 192.093 40.4848 192.765 36.6361 192.765C31.029 192.765 26.6588 191.291 23.5255 188.341C20.3922 185.392 18.8233 181.285 18.8188 176.021C18.8188 172.378 19.619 169.07 21.2193 166.097C22.7834 163.161 25.1557 160.734 28.0555 159.104C31.0149 157.415 34.419 156.571 38.2678 156.571C41.5121 156.571 44.4104 157.235 46.9628 158.562C49.4476 159.826 51.5031 161.797 52.8705 164.226C54.2543 166.677 54.9457 169.502 54.9445 172.703ZM32.2861 175.468C32.2861 178.582 33.555 180.139 36.0928 180.138C37.4205 180.138 38.4298 179.669 39.1206 178.733C39.8114 177.797 40.232 176.273 40.3822 174.163L40.6699 169.273C39.8324 169.103 38.9793 169.022 38.1248 169.03C36.2812 169.03 34.8469 169.606 33.8219 170.756C32.7969 171.907 32.285 173.477 32.2861 175.468Z" fill="white"/>
</g>
<defs>
<linearGradient id="paint0_linear_2916_5594" x1="341.703" y1="394.335" x2="168.647" y2="246.711" gradientUnits="userSpaceOnUse">
<stop stop-color="#444B8C"/>
<stop offset="1" stop-color="#26264F"/>
</linearGradient>
<linearGradient id="paint1_linear_2916_5594" x1="198.645" y1="448.851" x2="222.598" y2="-195.059" gradientUnits="userSpaceOnUse">
<stop stop-color="#444B8C"/>
<stop offset="1" stop-color="#26264F"/>
</linearGradient>
<linearGradient id="paint2_linear_2916_5594" x1="222.762" y1="193.882" x2="610.629" y2="-304.259" gradientUnits="userSpaceOnUse">
<stop stop-color="#AB316D"/>
<stop offset="1" stop-color="#792D3D"/>
</linearGradient>
<linearGradient id="paint3_linear_2916_5594" x1="-443.265" y1="1111.77" x2="-372.373" y2="1044.92" gradientUnits="userSpaceOnUse">
<stop stop-color="#311944"/>
<stop offset="1" stop-color="#893976"/>
</linearGradient>
<linearGradient id="paint4_linear_2916_5594" x1="216.205" y1="0.714723" x2="110.44" y2="100.447" gradientUnits="userSpaceOnUse">
<stop stop-color="#311944"/>
<stop offset="1" stop-color="#893976"/>
</linearGradient>
<linearGradient id="paint5_linear_2916_5594" x1="-592.811" y1="1129.36" x2="-506.69" y2="1048.16" gradientUnits="userSpaceOnUse">
<stop stop-color="#444B8C"/>
<stop offset="1" stop-color="#26264F"/>
</linearGradient>
<linearGradient id="paint6_linear_2916_5594" x1="129.354" y1="227.921" x2="292.315" y2="227.921" gradientUnits="userSpaceOnUse">
<stop stop-color="#444B8C"/>
<stop offset="1" stop-color="#26264F"/>
</linearGradient>
<linearGradient id="paint7_linear_2916_5594" x1="156.918" y1="347.527" x2="266.323" y2="347.527" gradientUnits="userSpaceOnUse">
<stop stop-color="#444B8C"/>
<stop offset="1" stop-color="#26264F"/>
</linearGradient>
<linearGradient id="paint8_linear_2916_5594" x1="162.329" y1="226.465" x2="268.598" y2="226.465" gradientUnits="userSpaceOnUse">
<stop stop-color="#444B8C"/>
<stop offset="1" stop-color="#26264F"/>
</linearGradient>
<linearGradient id="paint9_linear_2916_5594" x1="134.631" y1="226.543" x2="144.009" y2="226.543" gradientUnits="userSpaceOnUse">
<stop stop-color="#444B8C"/>
<stop offset="1" stop-color="#26264F"/>
</linearGradient>
<linearGradient id="paint10_linear_2916_5594" x1="284.022" y1="226.275" x2="293.476" y2="226.275" gradientUnits="userSpaceOnUse">
<stop stop-color="#444B8C"/>
<stop offset="1" stop-color="#26264F"/>
</linearGradient>
<linearGradient id="paint11_linear_2916_5594" x1="165.312" y1="449.357" x2="95.2728" y2="405.434" gradientUnits="userSpaceOnUse">
<stop stop-color="#311944"/>
<stop offset="1" stop-color="#893976"/>
</linearGradient>
<linearGradient id="paint12_linear_2916_5594" x1="79.2265" y1="398.341" x2="94.9049" y2="405.968" gradientUnits="userSpaceOnUse">
<stop stop-color="#311944"/>
<stop offset="1" stop-color="#893976"/>
</linearGradient>
<linearGradient id="paint13_linear_2916_5594" x1="-12.216" y1="189.367" x2="105.437" y2="157.092" gradientUnits="userSpaceOnUse">
<stop stop-color="#444B8C"/>
<stop offset="1" stop-color="#26264F"/>
</linearGradient>
<clipPath id="clip0_2916_5594">
<rect width="420.98" height="471" fill="white"/>
</clipPath>
</defs>
</svg>
