<svg width="27" height="26" viewBox="0 0 27 26" fill="none" xmlns="http://www.w3.org/2000/svg">
<g opacity="0.5" clip-path="url(#clip0_1986_2114)">
<path d="M1.85645 10.4861C0.959445 10.4861 0.231445 11.2141 0.231445 12.1111V13.8759C0.231445 16.0428 3.48145 16.0428 3.48145 13.8759V12.1111C3.48145 11.2141 2.75345 10.4861 1.85645 10.4861ZM24.6064 10.4861C23.7094 10.4861 22.9814 11.2141 22.9814 12.1111V13.8759C22.9814 16.0428 26.2314 16.0428 26.2314 13.8759V12.1111C26.2314 11.2141 25.5034 10.4861 24.6064 10.4861ZM7.46757 15.8056C6.57057 15.8056 5.84257 16.5336 5.84257 17.4306V19.1953C5.84257 21.3622 9.09257 21.3622 9.09257 19.1953V17.4436C9.09257 16.5425 8.36863 15.8186 7.46757 15.8186V15.8056ZM7.46757 5.16669C6.57057 5.16669 5.84257 5.89469 5.84257 6.79169V12.5978C5.84257 14.7648 9.09257 14.7648 9.09257 12.5978V6.78356C9.09257 5.8825 8.36863 5.15856 7.46757 5.15856V5.16669ZM18.9953 5.16669C18.0943 5.16669 17.3703 5.89469 17.3703 6.79169V8.56944C17.3703 10.7364 20.6203 10.7364 20.6203 8.56944V6.79169C20.6203 5.89469 19.8923 5.16669 18.9953 5.16669ZM13.2314 0C12.3344 0 11.6064 0.728 11.6064 1.625V3.38975C11.6064 5.55669 14.8564 5.55669 14.8564 3.38975V1.625C14.8564 0.728 14.1284 0 13.2314 0V0ZM13.2314 20.9731C12.3344 20.9731 11.6064 21.7011 11.6064 22.5981V24.3758C11.5983 26.5427 14.8483 26.5549 14.8564 24.3888V22.6111C14.8564 21.7222 14.1284 20.9861 13.2314 20.9861V20.9731ZM18.9953 11.8064C18.0943 11.8064 17.3703 12.5426 17.3703 13.4314V19.2075C17.3703 21.3744 20.6203 21.3744 20.6203 19.2075V13.4314C20.6203 12.5344 19.8923 11.8064 18.9953 11.8064ZM13.2314 6.63975C12.3344 6.63975 11.6064 7.37587 11.6064 8.26475V17.7231C11.6064 19.89 14.8564 19.89 14.8564 17.7231V8.27775C14.8564 7.37669 14.1284 6.65275 13.2314 6.65275V6.63975Z" fill="white"/>
</g>
<defs>
<clipPath id="clip0_1986_2114">
<rect width="26" height="26" fill="white" transform="translate(0.231445)"/>
</clipPath>
</defs>
</svg>
