<svg width="43" height="44" viewBox="0 0 43 44" fill="none" xmlns="http://www.w3.org/2000/svg">
<rect opacity="0.4" y="0.625" width="42.8565" height="42.8565" rx="7.61893" fill="#DDECFB"/>
<rect x="9.89551" y="10.627" width="19.9881" height="19.334" fill="white"/>
<rect width="13.0982" height="3.83952" transform="matrix(0.728694 -0.684839 0.673489 0.739197 23.71 23.4648)" fill="#DDECFB"/>
<mask id="path-4-outside-1_1439_1822" maskUnits="userSpaceOnUse" x="8.51367" y="9.62695" width="29" height="23" fill="black">
<rect fill="white" x="8.51367" y="9.62695" width="29" height="23"/>
<path d="M11.6838 10.627C10.4976 10.627 9.51367 11.6264 9.51367 12.8312V30.0785C9.51367 31.2833 10.4976 32.2827 11.6838 32.2827H28.6641C29.8503 32.2827 30.8342 31.2833 30.8342 30.0785V24.6354L36.6593 18.7284C36.8319 18.5544 36.9282 18.3175 36.9282 18.071C36.9282 17.8244 36.8319 17.5876 36.6593 17.4136L33.8991 14.6099C33.7254 14.4335 33.4886 14.3356 33.2423 14.3392C33.0032 14.3416 32.7736 14.4383 32.6046 14.6099L30.8342 16.4081V12.8312C30.8342 11.6264 29.8503 10.627 28.6641 10.627H11.6838ZM11.6838 12.4832H28.6641C28.8711 12.4832 29.0068 12.6209 29.0068 12.8312V18.2742L23.7908 23.5817C23.6195 23.7558 23.5243 23.9926 23.5243 24.2391V27.0235C23.5243 27.5358 23.9336 27.9516 24.4381 27.9516H27.1793C27.422 27.9516 27.6552 27.8549 27.8265 27.6809L29.0068 26.4821V30.0785C29.0068 30.2887 28.8711 30.4265 28.6641 30.4265H11.6838C11.4768 30.4265 11.3411 30.2887 11.3411 30.0785V12.8312C11.3411 12.6209 11.4768 12.4832 11.6838 12.4832ZM13.9872 14.9581C13.7445 14.9714 13.5172 15.0814 13.3554 15.2638C13.1924 15.4475 13.108 15.688 13.121 15.9346C13.1329 16.1811 13.2424 16.4119 13.4221 16.5762C13.6029 16.7418 13.8397 16.8276 14.0824 16.8143H26.2656C26.5107 16.8179 26.7462 16.7213 26.9199 16.5472C27.0948 16.3732 27.1924 16.1352 27.1924 15.8862C27.1924 15.6373 27.0948 15.3992 26.9199 15.2252C26.7462 15.0512 26.5106 14.9545 26.2656 14.9581H14.0824C14.0503 14.9569 14.0193 14.9569 13.9872 14.9581L13.9872 14.9581ZM33.2519 16.5823L34.7176 18.0711L33.7373 19.0669L32.2715 17.5781L33.2519 16.5823ZM13.9872 18.6705C13.7445 18.6838 13.5172 18.7938 13.3554 18.9763C13.1924 19.16 13.108 19.4004 13.121 19.647C13.1329 19.8935 13.2424 20.1243 13.4221 20.2887C13.6029 20.4542 13.8397 20.54 14.0824 20.5267H24.7427C24.9878 20.5304 25.2233 20.4337 25.397 20.2597C25.5719 20.0856 25.6695 19.8476 25.6695 19.5986C25.6695 19.3497 25.5719 19.1116 25.397 18.9376C25.2233 18.7636 24.9877 18.6669 24.7427 18.6705H14.0824C14.0503 18.6693 14.0193 18.6693 13.9872 18.6705L13.9872 18.6705ZM30.9769 18.8929L32.4427 20.3817L26.7986 26.0954H25.3518V24.6259L30.9769 18.8929ZM13.9872 22.3829C13.7445 22.3962 13.5172 22.5061 13.3554 22.6886C13.1924 22.8723 13.108 23.1128 13.121 23.3593C13.1329 23.6058 13.2424 23.8367 13.4221 24.001C13.6029 24.1666 13.8397 24.2524 14.0824 24.2391H21.3923C21.6374 24.2427 21.873 24.146 22.0467 23.972C22.2215 23.798 22.3191 23.5599 22.3191 23.311C22.3191 23.062 22.2215 22.824 22.0467 22.6499C21.8729 22.4759 21.6374 22.3793 21.3923 22.3829H14.0824C14.0503 22.3817 14.0193 22.3817 13.9872 22.3829L13.9872 22.3829ZM13.9872 26.0953C13.7445 26.1086 13.5172 26.2185 13.3554 26.401C13.1924 26.5847 13.108 26.8252 13.121 27.0717C13.1329 27.3183 13.2424 27.5491 13.4221 27.7134C13.6029 27.879 13.8397 27.9648 14.0824 27.9515H21.3923C21.6374 27.9551 21.873 27.8584 22.0467 27.6844C22.2215 27.5104 22.3191 27.2723 22.3191 27.0234C22.3191 26.7744 22.2215 26.5364 22.0467 26.3624C21.8729 26.1883 21.6374 26.0917 21.3923 26.0953H14.0824C14.0503 26.0941 14.0193 26.0941 13.9872 26.0953L13.9872 26.0953Z"/>
</mask>
<path d="M11.6838 10.627C10.4976 10.627 9.51367 11.6264 9.51367 12.8312V30.0785C9.51367 31.2833 10.4976 32.2827 11.6838 32.2827H28.6641C29.8503 32.2827 30.8342 31.2833 30.8342 30.0785V24.6354L36.6593 18.7284C36.8319 18.5544 36.9282 18.3175 36.9282 18.071C36.9282 17.8244 36.8319 17.5876 36.6593 17.4136L33.8991 14.6099C33.7254 14.4335 33.4886 14.3356 33.2423 14.3392C33.0032 14.3416 32.7736 14.4383 32.6046 14.6099L30.8342 16.4081V12.8312C30.8342 11.6264 29.8503 10.627 28.6641 10.627H11.6838ZM11.6838 12.4832H28.6641C28.8711 12.4832 29.0068 12.6209 29.0068 12.8312V18.2742L23.7908 23.5817C23.6195 23.7558 23.5243 23.9926 23.5243 24.2391V27.0235C23.5243 27.5358 23.9336 27.9516 24.4381 27.9516H27.1793C27.422 27.9516 27.6552 27.8549 27.8265 27.6809L29.0068 26.4821V30.0785C29.0068 30.2887 28.8711 30.4265 28.6641 30.4265H11.6838C11.4768 30.4265 11.3411 30.2887 11.3411 30.0785V12.8312C11.3411 12.6209 11.4768 12.4832 11.6838 12.4832ZM13.9872 14.9581C13.7445 14.9714 13.5172 15.0814 13.3554 15.2638C13.1924 15.4475 13.108 15.688 13.121 15.9346C13.1329 16.1811 13.2424 16.4119 13.4221 16.5762C13.6029 16.7418 13.8397 16.8276 14.0824 16.8143H26.2656C26.5107 16.8179 26.7462 16.7213 26.9199 16.5472C27.0948 16.3732 27.1924 16.1352 27.1924 15.8862C27.1924 15.6373 27.0948 15.3992 26.9199 15.2252C26.7462 15.0512 26.5106 14.9545 26.2656 14.9581H14.0824C14.0503 14.9569 14.0193 14.9569 13.9872 14.9581L13.9872 14.9581ZM33.2519 16.5823L34.7176 18.0711L33.7373 19.0669L32.2715 17.5781L33.2519 16.5823ZM13.9872 18.6705C13.7445 18.6838 13.5172 18.7938 13.3554 18.9763C13.1924 19.16 13.108 19.4004 13.121 19.647C13.1329 19.8935 13.2424 20.1243 13.4221 20.2887C13.6029 20.4542 13.8397 20.54 14.0824 20.5267H24.7427C24.9878 20.5304 25.2233 20.4337 25.397 20.2597C25.5719 20.0856 25.6695 19.8476 25.6695 19.5986C25.6695 19.3497 25.5719 19.1116 25.397 18.9376C25.2233 18.7636 24.9877 18.6669 24.7427 18.6705H14.0824C14.0503 18.6693 14.0193 18.6693 13.9872 18.6705L13.9872 18.6705ZM30.9769 18.8929L32.4427 20.3817L26.7986 26.0954H25.3518V24.6259L30.9769 18.8929ZM13.9872 22.3829C13.7445 22.3962 13.5172 22.5061 13.3554 22.6886C13.1924 22.8723 13.108 23.1128 13.121 23.3593C13.1329 23.6058 13.2424 23.8367 13.4221 24.001C13.6029 24.1666 13.8397 24.2524 14.0824 24.2391H21.3923C21.6374 24.2427 21.873 24.146 22.0467 23.972C22.2215 23.798 22.3191 23.5599 22.3191 23.311C22.3191 23.062 22.2215 22.824 22.0467 22.6499C21.8729 22.4759 21.6374 22.3793 21.3923 22.3829H14.0824C14.0503 22.3817 14.0193 22.3817 13.9872 22.3829L13.9872 22.3829ZM13.9872 26.0953C13.7445 26.1086 13.5172 26.2185 13.3554 26.401C13.1924 26.5847 13.108 26.8252 13.121 27.0717C13.1329 27.3183 13.2424 27.5491 13.4221 27.7134C13.6029 27.879 13.8397 27.9648 14.0824 27.9515H21.3923C21.6374 27.9551 21.873 27.8584 22.0467 27.6844C22.2215 27.5104 22.3191 27.2723 22.3191 27.0234C22.3191 26.7744 22.2215 26.5364 22.0467 26.3624C21.8729 26.1883 21.6374 26.0917 21.3923 26.0953H14.0824C14.0503 26.0941 14.0193 26.0941 13.9872 26.0953L13.9872 26.0953Z" fill="#4379BA"/>
<path d="M11.6838 10.627C10.4976 10.627 9.51367 11.6264 9.51367 12.8312V30.0785C9.51367 31.2833 10.4976 32.2827 11.6838 32.2827H28.6641C29.8503 32.2827 30.8342 31.2833 30.8342 30.0785V24.6354L36.6593 18.7284C36.8319 18.5544 36.9282 18.3175 36.9282 18.071C36.9282 17.8244 36.8319 17.5876 36.6593 17.4136L33.8991 14.6099C33.7254 14.4335 33.4886 14.3356 33.2423 14.3392C33.0032 14.3416 32.7736 14.4383 32.6046 14.6099L30.8342 16.4081V12.8312C30.8342 11.6264 29.8503 10.627 28.6641 10.627H11.6838ZM11.6838 12.4832H28.6641C28.8711 12.4832 29.0068 12.6209 29.0068 12.8312V18.2742L23.7908 23.5817C23.6195 23.7558 23.5243 23.9926 23.5243 24.2391V27.0235C23.5243 27.5358 23.9336 27.9516 24.4381 27.9516H27.1793C27.422 27.9516 27.6552 27.8549 27.8265 27.6809L29.0068 26.4821V30.0785C29.0068 30.2887 28.8711 30.4265 28.6641 30.4265H11.6838C11.4768 30.4265 11.3411 30.2887 11.3411 30.0785V12.8312C11.3411 12.6209 11.4768 12.4832 11.6838 12.4832ZM13.9872 14.9581C13.7445 14.9714 13.5172 15.0814 13.3554 15.2638C13.1924 15.4475 13.108 15.688 13.121 15.9346C13.1329 16.1811 13.2424 16.4119 13.4221 16.5762C13.6029 16.7418 13.8397 16.8276 14.0824 16.8143H26.2656C26.5107 16.8179 26.7462 16.7213 26.9199 16.5472C27.0948 16.3732 27.1924 16.1352 27.1924 15.8862C27.1924 15.6373 27.0948 15.3992 26.9199 15.2252C26.7462 15.0512 26.5106 14.9545 26.2656 14.9581H14.0824C14.0503 14.9569 14.0193 14.9569 13.9872 14.9581L13.9872 14.9581ZM33.2519 16.5823L34.7176 18.0711L33.7373 19.0669L32.2715 17.5781L33.2519 16.5823ZM13.9872 18.6705C13.7445 18.6838 13.5172 18.7938 13.3554 18.9763C13.1924 19.16 13.108 19.4004 13.121 19.647C13.1329 19.8935 13.2424 20.1243 13.4221 20.2887C13.6029 20.4542 13.8397 20.54 14.0824 20.5267H24.7427C24.9878 20.5304 25.2233 20.4337 25.397 20.2597C25.5719 20.0856 25.6695 19.8476 25.6695 19.5986C25.6695 19.3497 25.5719 19.1116 25.397 18.9376C25.2233 18.7636 24.9877 18.6669 24.7427 18.6705H14.0824C14.0503 18.6693 14.0193 18.6693 13.9872 18.6705L13.9872 18.6705ZM30.9769 18.8929L32.4427 20.3817L26.7986 26.0954H25.3518V24.6259L30.9769 18.8929ZM13.9872 22.3829C13.7445 22.3962 13.5172 22.5061 13.3554 22.6886C13.1924 22.8723 13.108 23.1128 13.121 23.3593C13.1329 23.6058 13.2424 23.8367 13.4221 24.001C13.6029 24.1666 13.8397 24.2524 14.0824 24.2391H21.3923C21.6374 24.2427 21.873 24.146 22.0467 23.972C22.2215 23.798 22.3191 23.5599 22.3191 23.311C22.3191 23.062 22.2215 22.824 22.0467 22.6499C21.8729 22.4759 21.6374 22.3793 21.3923 22.3829H14.0824C14.0503 22.3817 14.0193 22.3817 13.9872 22.3829L13.9872 22.3829ZM13.9872 26.0953C13.7445 26.1086 13.5172 26.2185 13.3554 26.401C13.1924 26.5847 13.108 26.8252 13.121 27.0717C13.1329 27.3183 13.2424 27.5491 13.4221 27.7134C13.6029 27.879 13.8397 27.9648 14.0824 27.9515H21.3923C21.6374 27.9551 21.873 27.8584 22.0467 27.6844C22.2215 27.5104 22.3191 27.2723 22.3191 27.0234C22.3191 26.7744 22.2215 26.5364 22.0467 26.3624C21.8729 26.1883 21.6374 26.0917 21.3923 26.0953H14.0824C14.0503 26.0941 14.0193 26.0941 13.9872 26.0953L13.9872 26.0953Z" stroke="#4379BA" stroke-width="0.380947" mask="url(#path-4-outside-1_1439_1822)"/>
</svg>
