<svg width="166" height="127" viewBox="0 0 166 127" fill="none" xmlns="http://www.w3.org/2000/svg">
<path d="M140.526 11.3983C129.946 6.56593 118.6 3.00567 106.737 0.966562C106.521 0.927207 106.305 1.02556 106.194 1.22226C104.735 3.80555 103.119 7.17568 101.987 9.82458C89.2278 7.9232 76.5342 7.9232 64.0367 9.82458C62.9046 7.1168 61.2297 3.80555 59.764 1.22226C59.6527 1.03212 59.4369 0.93377 59.2208 0.966562C47.3647 2.99916 36.019 6.55942 25.4321 11.3983C25.3405 11.4376 25.2619 11.5032 25.2098 11.5884C3.68929 43.5917 -2.20607 74.8083 0.685996 105.638C0.699082 105.789 0.784142 105.933 0.90192 106.025C15.1005 116.404 28.8543 122.705 42.3527 126.882C42.5687 126.947 42.7976 126.868 42.9351 126.691C46.1281 122.351 48.9744 117.774 51.4149 112.962C51.5589 112.68 51.4214 112.345 51.1271 112.234C46.6123 110.529 42.3134 108.451 38.1781 106.09C37.851 105.9 37.8249 105.435 38.1258 105.212C38.996 104.562 39.8664 103.887 40.6974 103.205C40.8477 103.081 41.0572 103.054 41.2339 103.133C68.4009 115.48 97.8123 115.48 124.659 103.133C124.836 103.048 125.045 103.074 125.202 103.199C126.033 103.881 126.903 104.562 127.78 105.212C128.081 105.435 128.061 105.9 127.734 106.09C123.599 108.497 119.3 110.529 114.779 112.227C114.484 112.339 114.353 112.68 114.497 112.962C116.99 117.768 119.837 122.344 122.971 126.685C123.102 126.868 123.337 126.947 123.553 126.882C137.117 122.705 150.871 116.404 165.069 106.025C165.194 105.933 165.272 105.795 165.285 105.644C168.746 70.002 159.488 39.0414 140.742 11.5949C140.696 11.5032 140.618 11.4376 140.526 11.3983ZM55.4718 86.8659C47.2927 86.8659 40.5533 79.3914 40.5533 70.212C40.5533 61.0325 47.162 53.558 55.4718 53.558C63.8469 53.558 70.521 61.0981 70.3901 70.212C70.3901 79.3914 63.7814 86.8659 55.4718 86.8659ZM110.63 86.8659C102.451 86.8659 95.7121 79.3914 95.7121 70.212C95.7121 61.0325 102.321 53.558 110.63 53.558C119.006 53.558 125.68 61.0981 125.549 70.212C125.549 79.3914 119.006 86.8659 110.63 86.8659Z" fill="white"/>
</svg>
