<svg width="42" height="42" viewBox="0 0 42 42" fill="none" xmlns="http://www.w3.org/2000/svg">
<path d="M32.9306 6.32625L28.7963 3.21563C28.2789 2.83457 27.6538 2.62775 27.0113 2.625H10.8544C10.0642 2.625 9.30638 2.9389 8.74764 3.49764C8.1889 4.05638 7.875 4.8142 7.875 5.60437V36.3956C7.875 37.1858 8.1889 37.9436 8.74764 38.5024C9.30638 39.0611 10.0642 39.375 10.8544 39.375H31.1456C31.9358 39.375 32.6936 39.0611 33.2524 38.5024C33.8111 37.9436 34.125 37.1858 34.125 36.3956V8.715C34.1265 8.25118 34.0193 7.79346 33.8119 7.3786C33.6044 6.96374 33.3026 6.60331 32.9306 6.32625ZM31.3556 8.42625C31.4008 8.45951 31.4375 8.50303 31.4626 8.55323C31.4877 8.60343 31.5005 8.65888 31.5 8.715V9.1875H27.5625V5.57812L31.3556 8.42625ZM31.1456 36.75H10.8544C10.7604 36.75 10.6703 36.7127 10.6038 36.6462C10.5373 36.5798 10.5 36.4896 10.5 36.3956V5.60437C10.5 5.51039 10.5373 5.42025 10.6038 5.35379C10.6703 5.28734 10.7604 5.25 10.8544 5.25H24.9375V10.5C24.9375 10.8481 25.0758 11.1819 25.3219 11.4281C25.5681 11.6742 25.9019 11.8125 26.25 11.8125H31.5V36.3956C31.5 36.4896 31.4627 36.5798 31.3962 36.6462C31.3298 36.7127 31.2396 36.75 31.1456 36.75Z" fill="black"/>
<path d="M27.5625 19.6875H14.4375C14.0894 19.6875 13.7556 19.8258 13.5094 20.0719C13.2633 20.3181 13.125 20.6519 13.125 21C13.125 21.3481 13.2633 21.6819 13.5094 21.9281C13.7556 22.1742 14.0894 22.3125 14.4375 22.3125H27.5625C27.9106 22.3125 28.2444 22.1742 28.4906 21.9281C28.7367 21.6819 28.875 21.3481 28.875 21C28.875 20.6519 28.7367 20.3181 28.4906 20.0719C28.2444 19.8258 27.9106 19.6875 27.5625 19.6875Z" fill="black"/>
<path d="M27.5625 24.9375H14.4375C14.0894 24.9375 13.7556 25.0758 13.5094 25.3219C13.2633 25.5681 13.125 25.9019 13.125 26.25C13.125 26.5981 13.2633 26.9319 13.5094 27.1781C13.7556 27.4242 14.0894 27.5625 14.4375 27.5625H27.5625C27.9106 27.5625 28.2444 27.4242 28.4906 27.1781C28.7367 26.9319 28.875 26.5981 28.875 26.25C28.875 25.9019 28.7367 25.5681 28.4906 25.3219C28.2444 25.0758 27.9106 24.9375 27.5625 24.9375Z" fill="black"/>
<path d="M27.5625 30.1875H14.4375C14.0894 30.1875 13.7556 30.3258 13.5094 30.5719C13.2633 30.8181 13.125 31.1519 13.125 31.5C13.125 31.8481 13.2633 32.1819 13.5094 32.4281C13.7556 32.6742 14.0894 32.8125 14.4375 32.8125H27.5625C27.9106 32.8125 28.2444 32.6742 28.4906 32.4281C28.7367 32.1819 28.875 31.8481 28.875 31.5C28.875 31.1519 28.7367 30.8181 28.4906 30.5719C28.2444 30.3258 27.9106 30.1875 27.5625 30.1875Z" fill="black"/>
<path d="M14.4375 16.1696L14.9494 14.4371H18.1519L18.5588 15.1065C18.6344 15.2738 18.7443 15.4235 18.8814 15.5457C19.0185 15.6679 19.1797 15.76 19.3546 15.816C19.5295 15.872 19.7142 15.8906 19.8968 15.8708C20.0793 15.8509 20.2557 15.7929 20.4145 15.7006C20.5732 15.6083 20.7109 15.4837 20.8185 15.3349C20.9261 15.1861 21.0012 15.0163 21.0391 14.8366C21.0769 14.6569 21.0767 14.4712 21.0383 14.2917C20.9999 14.1121 20.9243 13.9425 20.8163 13.794L16.8788 7.2315C16.751 7.01452 16.5635 6.83888 16.3387 6.72551C16.1139 6.61215 15.8612 6.56585 15.6107 6.59213C15.3603 6.61842 15.1227 6.71619 14.9264 6.87377C14.73 7.03135 14.5831 7.2421 14.5031 7.48087L11.8781 15.3559C11.8164 15.5219 11.7889 15.6988 11.7974 15.8757C11.8058 16.0527 11.85 16.2261 11.9273 16.3855C12.0045 16.545 12.1133 16.6871 12.2469 16.8034C12.3806 16.9197 12.5364 17.0077 12.705 17.0621C12.8444 17.0801 12.9856 17.0801 13.125 17.0621C13.4112 17.0771 13.6945 16.9979 13.9315 16.8367C14.1685 16.6756 14.3462 16.4413 14.4375 16.1696ZM16.5769 11.8121H15.8156L16.0913 10.9984L16.5769 11.8121Z" fill="black"/>
</svg>
