<svg width="42" height="42" viewBox="0 0 42 42" fill="none" xmlns="http://www.w3.org/2000/svg">
<path d="M36.3694 10.3034C36.3211 9.8741 36.1783 9.4608 35.9514 9.09318C35.7245 8.72556 35.419 8.41274 35.0569 8.17716L27.3919 3.09778C27.0317 2.86074 26.625 2.70359 26.199 2.63691C25.7731 2.57023 25.3378 2.59557 24.9224 2.71122C24.5071 2.82687 24.1213 3.03015 23.7911 3.30738C23.4609 3.5846 23.1939 3.92935 23.0081 4.31841C21.3369 7.78442 19.4882 11.162 17.4694 14.4378C17.0092 14.4373 16.5562 14.551 16.1507 14.7686C15.7453 14.9862 15.4002 15.3009 15.1462 15.6847L13.8337 17.6009C13.5805 17.9846 13.4254 18.4246 13.3819 18.8823C13.3384 19.34 13.4079 19.8014 13.5844 20.2259C11.3636 23.3627 8.98036 26.3812 6.44436 29.269C6.17003 29.5947 5.9677 29.9747 5.85066 30.3841C5.73361 30.7935 5.70451 31.223 5.76524 31.6445C5.82598 32.066 5.9752 32.4698 6.20308 32.8295C6.43097 33.1892 6.73237 33.4966 7.08749 33.7315L14.7525 38.8109C15.2342 39.1615 15.8107 39.3583 16.4062 39.3753C16.6764 39.3727 16.9452 39.3375 17.2069 39.2703C17.6242 39.1526 18.0119 38.948 18.3444 38.6697C18.677 38.3915 18.9468 38.0459 19.1362 37.6559C20.5406 34.7422 22.0894 31.8678 23.7431 29.0984L29.1112 32.6422C29.3248 32.7857 29.5758 32.8633 29.8331 32.8653C30.053 32.8664 30.2696 32.8122 30.4631 32.7078C30.6702 32.5944 30.843 32.4273 30.9631 32.2241C31.0832 32.0208 31.1463 31.7889 31.1456 31.5528V27.6284L34.7025 26.1322C34.9233 26.0414 35.1151 25.8922 35.2574 25.7005C35.3997 25.5088 35.487 25.282 35.51 25.0444C35.5329 24.8068 35.4906 24.5674 35.3877 24.352C35.2847 24.1367 35.125 23.9535 34.9256 23.8222L29.5575 20.2784C31.4869 17.6534 33.495 15.1072 35.6737 12.6659C35.9514 12.3445 36.1571 11.9674 36.2771 11.5599C36.3971 11.1524 36.4285 10.724 36.3694 10.3034ZM25.3706 5.46028C25.3974 5.40755 25.4344 5.36067 25.4795 5.32237C25.5245 5.28406 25.5768 5.2551 25.6331 5.23716C25.7341 5.19629 25.8471 5.19629 25.9481 5.23716L26.6306 5.69653C24.9423 9.2859 23.0627 12.7822 21 16.1703L19.9106 15.4484C21.8794 12.2197 23.7169 8.87278 25.3706 5.46028ZM16.065 19.0053L17.3775 17.1022C17.4093 17.0717 17.4516 17.0547 17.4956 17.0547C17.5396 17.0547 17.582 17.0717 17.6137 17.1022L26.0925 22.7197C26.1193 22.7507 26.134 22.7903 26.134 22.8312C26.134 22.8722 26.1193 22.9118 26.0925 22.9428L24.78 24.859C24.7482 24.8895 24.7059 24.9065 24.6619 24.9065C24.6178 24.9065 24.5755 24.8895 24.5437 24.859L19.215 21.3284L16.065 19.2547C16.0479 19.2387 16.0343 19.2194 16.025 19.1979C16.0156 19.1765 16.0108 19.1534 16.0108 19.13C16.0108 19.1066 16.0156 19.0834 16.025 19.062C16.0343 19.0405 16.0479 19.0212 16.065 19.0053ZM8.45249 30.9622C10.9669 28.1019 13.3325 25.1142 15.54 22.0109L16.6425 22.7328C14.3269 25.9541 11.8383 29.0474 9.18749 31.999L8.54437 31.5003C8.4953 31.4721 8.45402 31.4321 8.42424 31.384C8.39445 31.3359 8.3771 31.2811 8.37374 31.2247C8.36878 31.1779 8.37319 31.1306 8.38671 31.0855C8.40023 31.0404 8.42259 30.9985 8.45249 30.9622ZM16.7737 36.4484C16.7164 36.5524 16.6231 36.6317 16.5112 36.6715C16.4102 36.7124 16.2973 36.7124 16.1962 36.6715L11.4319 33.469C14.0584 30.5096 16.5251 27.4121 18.8212 24.1897L22.1812 26.4078C22.0868 26.5469 22.02 26.7028 21.9844 26.8672C20.1075 29.9647 18.375 33.1803 16.7737 36.4484ZM29.3081 25.5415C29.0688 25.6429 28.865 25.813 28.7225 26.0303C28.5799 26.2476 28.5051 26.5023 28.5075 26.7622V29.0328L25.8037 27.2478C26.2803 27.0342 26.6889 26.6936 26.985 26.2634L28.2975 24.3472C28.5865 23.9104 28.7458 23.4007 28.7569 22.8772L31.4475 24.6622L29.3081 25.5415ZM33.6787 10.9334C31.29 13.6634 29.0062 16.5378 26.88 19.4909C26.7402 19.5852 26.6199 19.7055 26.5256 19.8453L23.1787 17.6272C25.257 14.2546 27.1583 10.7761 28.875 7.20591L33.6394 10.3559C33.6856 10.3903 33.7245 10.4335 33.7538 10.4831C33.7831 10.5327 33.8022 10.5876 33.81 10.6447C33.8131 10.6998 33.8028 10.7549 33.78 10.8052C33.7571 10.8555 33.7224 10.8995 33.6787 10.9334Z" fill="black"/>
</svg>
