<svg width="42" height="42" viewBox="0 0 42 42" fill="none" xmlns="http://www.w3.org/2000/svg">
<path d="M21 2.625C17.3658 2.625 13.8132 3.70268 10.7914 5.72175C7.76965 7.74082 5.41448 10.6106 4.02372 13.9682C2.63296 17.3258 2.26908 21.0204 2.97808 24.5848C3.68708 28.1492 5.43713 31.4233 8.00692 33.9931C10.5767 36.5629 13.8508 38.3129 17.4152 39.0219C20.9796 39.7309 24.6742 39.367 28.0318 37.9763C31.3894 36.5855 34.2592 34.2304 36.2783 31.2086C38.2973 28.1868 39.375 24.6342 39.375 21C39.375 16.1266 37.4391 11.4529 33.9931 8.00691C30.5471 4.56093 25.8734 2.625 21 2.625ZM21 36.75C17.885 36.75 14.8399 35.8263 12.2498 34.0956C9.6597 32.365 7.64099 29.9052 6.44891 27.0273C5.25683 24.1493 4.94492 20.9825 5.55264 17.9273C6.16036 14.8721 7.6604 12.0657 9.86308 9.86307C12.0658 7.66039 14.8721 6.16035 17.9273 5.55263C20.9825 4.94491 24.1493 5.25682 27.0273 6.4489C29.9052 7.64098 32.365 9.6597 34.0957 12.2498C35.8263 14.8398 36.75 17.8849 36.75 21C36.75 25.1772 35.0906 29.1832 32.1369 32.1369C29.1832 35.0906 25.1772 36.75 21 36.75Z" fill="black"/>
<path d="M20.9998 14.4375C20.6517 14.4375 20.3179 14.5758 20.0717 14.8219C19.8256 15.0681 19.6873 15.4019 19.6873 15.75V20.4619L16.1304 24.0056C16.0074 24.1276 15.9098 24.2728 15.8431 24.4327C15.7765 24.5927 15.7422 24.7642 15.7422 24.9375C15.7422 25.1108 15.7765 25.2823 15.8431 25.4423C15.9098 25.6022 16.0074 25.7474 16.1304 25.8694C16.2524 25.9924 16.3976 26.09 16.5575 26.1567C16.7175 26.2233 16.889 26.2576 17.0623 26.2576C17.2356 26.2576 17.4071 26.2233 17.5671 26.1567C17.727 26.09 17.8722 25.9924 17.9942 25.8694L21.9317 21.9319C22.0533 21.8092 22.1496 21.6638 22.2149 21.5039C22.2802 21.344 22.3133 21.1727 22.3123 21V15.75C22.3123 15.4019 22.174 15.0681 21.9279 14.8219C21.6817 14.5758 21.3479 14.4375 20.9998 14.4375Z" fill="black"/>
<path d="M21 6.5625C20.6519 6.5625 20.3181 6.70078 20.0719 6.94692C19.8258 7.19306 19.6875 7.5269 19.6875 7.875V9.1875C19.6875 9.5356 19.8258 9.86944 20.0719 10.1156C20.3181 10.3617 20.6519 10.5 21 10.5C21.3481 10.5 21.6819 10.3617 21.9281 10.1156C22.1742 9.86944 22.3125 9.5356 22.3125 9.1875V7.875C22.3125 7.5269 22.1742 7.19306 21.9281 6.94692C21.6819 6.70078 21.3481 6.5625 21 6.5625Z" fill="black"/>
<path d="M21 31.5C20.6519 31.5 20.3181 31.6383 20.0719 31.8844C19.8258 32.1306 19.6875 32.4644 19.6875 32.8125V34.125C19.6875 34.4731 19.8258 34.8069 20.0719 35.0531C20.3181 35.2992 20.6519 35.4375 21 35.4375C21.3481 35.4375 21.6819 35.2992 21.9281 35.0531C22.1742 34.8069 22.3125 34.4731 22.3125 34.125V32.8125C22.3125 32.4644 22.1742 32.1306 21.9281 31.8844C21.6819 31.6383 21.3481 31.5 21 31.5Z" fill="black"/>
<path d="M34.125 19.6875H32.8125C32.4644 19.6875 32.1306 19.8258 31.8844 20.0719C31.6383 20.3181 31.5 20.6519 31.5 21C31.5 21.3481 31.6383 21.6819 31.8844 21.9281C32.1306 22.1742 32.4644 22.3125 32.8125 22.3125H34.125C34.4731 22.3125 34.8069 22.1742 35.0531 21.9281C35.2992 21.6819 35.4375 21.3481 35.4375 21C35.4375 20.6519 35.2992 20.3181 35.0531 20.0719C34.8069 19.8258 34.4731 19.6875 34.125 19.6875Z" fill="black"/>
<path d="M9.1875 19.6875H7.875C7.5269 19.6875 7.19306 19.8258 6.94692 20.0719C6.70078 20.3181 6.5625 20.6519 6.5625 21C6.5625 21.3481 6.70078 21.6819 6.94692 21.9281C7.19306 22.1742 7.5269 22.3125 7.875 22.3125H9.1875C9.5356 22.3125 9.86944 22.1742 10.1156 21.9281C10.3617 21.6819 10.5 21.3481 10.5 21C10.5 20.6519 10.3617 20.3181 10.1156 20.0719C9.86944 19.8258 9.5356 19.6875 9.1875 19.6875Z" fill="black"/>
</svg>
