<svg width="42" height="42" viewBox="0 0 42 42" fill="none" xmlns="http://www.w3.org/2000/svg">
<path d="M35.7262 3.9375H6.27375C5.30711 3.94096 4.38104 4.32649 3.69751 5.01001C3.01399 5.69354 2.62846 6.61961 2.625 7.58625V26.5387C2.62846 27.5054 3.01399 28.4315 3.69751 29.115C4.38104 29.7985 5.30711 30.184 6.27375 30.1875H13.9781L13.3219 34.125H11.8125C11.4644 34.125 11.1306 34.2633 10.8844 34.5094C10.6383 34.7556 10.5 35.0894 10.5 35.4375C10.5 35.7856 10.6383 36.1194 10.8844 36.3656C11.1306 36.6117 11.4644 36.75 11.8125 36.75H30.1875C30.5356 36.75 30.8694 36.6117 31.1156 36.3656C31.3617 36.1194 31.5 35.7856 31.5 35.4375C31.5 35.0894 31.3617 34.7556 31.1156 34.5094C30.8694 34.2633 30.5356 34.125 30.1875 34.125H28.6781L28.0219 30.1875H35.7262C36.6929 30.184 37.619 29.7985 38.3025 29.115C38.986 28.4315 39.3715 27.5054 39.375 26.5387V7.58625C39.3715 6.61961 38.986 5.69354 38.3025 5.01001C37.619 4.32649 36.6929 3.94096 35.7262 3.9375ZM5.25 7.58625C5.25 7.31473 5.35786 7.05434 5.54985 6.86235C5.74184 6.67036 6.00223 6.5625 6.27375 6.5625H35.7262C35.8607 6.5625 35.9938 6.58898 36.118 6.64043C36.2422 6.69188 36.3551 6.76729 36.4501 6.86235C36.5452 6.95741 36.6206 7.07027 36.6721 7.19448C36.7235 7.31868 36.75 7.45181 36.75 7.58625V22.3125H5.25V7.58625ZM26.0138 34.125H15.9862L16.6425 30.1875H25.3575L26.0138 34.125ZM35.7262 27.5625H6.27375C6.00223 27.5625 5.74184 27.4546 5.54985 27.2627C5.35786 27.0707 5.25 26.8103 5.25 26.5387V24.9375H36.75V26.5387C36.75 26.6732 36.7235 26.8063 36.6721 26.9305C36.6206 27.0547 36.5452 27.1676 36.4501 27.2627C36.3551 27.3577 36.2422 27.4331 36.118 27.4846C35.9938 27.536 35.8607 27.5625 35.7262 27.5625Z" fill="black"/>
</svg>
