<svg width="289" height="86" viewBox="0 0 289 86" fill="none" xmlns="http://www.w3.org/2000/svg">
<path d="M36.8817 80.6228H13.6824V73.0185H36.8817C48.6066 73.0786 59.4666 66.8579 65.3464 56.7138C71.2263 46.5696 71.2263 34.0542 65.3464 23.91C59.4666 13.7659 48.6066 7.5452 36.8817 7.60528H0.171875V0.000998007H36.8817C51.3316 -0.0715083 64.7149 7.59581 71.9609 20.0978C79.2068 32.5998 79.2068 48.0239 71.9609 60.526C64.7149 73.028 51.3316 80.6953 36.8817 80.6228Z" fill="#5E2BFF"/>
<path d="M62.9337 60.2377C61.9736 61.4781 60.9261 62.6482 59.7991 63.7392L59.803 63.7431C60.9277 62.6528 61.9751 61.4854 62.9376 60.2494L62.9337 60.2377Z" fill="#D1D1D1"/>
<path d="M62.9359 60.248C61.9757 61.4872 60.9282 62.6561 59.8013 63.7459L61.4798 72.3261C62.6243 71.4491 63.7227 70.5136 64.7706 69.5233L62.9359 60.248Z" fill="#4D24D1"/>
<path d="M42.4413 72.5482C40.6856 72.8451 38.909 73.0017 37.1284 73.0166C38.9091 73.0037 40.6858 72.8471 42.4413 72.5482Z" fill="#D1D1D1"/>
<path d="M42.4424 72.5493C40.6854 72.8463 38.9075 73.0029 37.1256 73.0178H36.6182L45.0734 79.7945C46.6738 79.4661 48.2526 79.0398 49.8007 78.518L42.4424 72.5493Z" fill="#4D24D1"/>
<path d="M35.4874 53.062H13.7676V45.4577H35.4874C38.6103 45.4577 41.1418 42.9261 41.1418 39.8033C41.1418 36.6804 38.6103 34.1489 35.4874 34.1489H20.9854V26.5446H35.4874C40.2396 26.5215 44.6407 29.0436 47.0235 33.1553C49.4063 37.267 49.4063 42.3396 47.0235 46.4513C44.6407 50.563 40.2396 53.0851 35.4874 53.062Z" fill="#5E2BFF"/>
<path d="M57.1482 82.9916C55.9448 82.9881 54.7795 82.5689 53.8496 81.8049L35.2761 66.7369H17.5068V59.0389H37.9774L53.5608 71.6828L50.0319 53.6402L51.2225 52.2271C56.0291 46.5127 57.1029 38.5363 53.9785 31.7543C50.8541 24.9724 44.0936 20.6051 36.6268 20.5451H13.7671V12.8472H36.6268C46.7378 12.928 55.955 18.655 60.5062 27.6841C65.0574 36.7133 64.1786 47.5292 58.2295 55.7052L62.3244 76.6326C62.6374 78.1883 62.2384 79.8026 61.2366 81.0333C60.2348 82.2641 58.7351 82.9824 57.1482 82.9916Z" fill="#5E2BFF"/>
<rect x="21.3301" y="73.0181" width="4.41892" height="7.60428" fill="#4D24D1"/>
<rect x="21.3301" y="59.0391" width="4.41892" height="7.69789" fill="#4D24D1"/>
<path fill-rule="evenodd" clip-rule="evenodd" d="M21.3296 45.4316H25.7485V45.459H21.3296V45.4316ZM21.3296 53.0664H25.7485V53.1328H21.3296V53.0664Z" fill="#D1D1D1"/>
<rect x="21.3301" y="45.4561" width="4.41892" height="7.60428" fill="#4D24D1"/>
<path fill-rule="evenodd" clip-rule="evenodd" d="M21.3296 26.5137H25.7485V26.5449H21.3296V26.5137ZM21.3296 34.1528H25.7485V34.2153H21.3296V34.1528Z" fill="#D1D1D1"/>
<rect x="21.3301" y="26.5444" width="4.41892" height="7.60428" fill="#4D24D1"/>
<path d="M13.6822 12.9293V73.0141H7.64722V0.000488281H0V73.0141V80.6223H7.64722H13.6822H21.3295V73.0141V12.9293H13.6822Z" fill="#5E2BFF"/>
<path fill-rule="evenodd" clip-rule="evenodd" d="M114.111 53.7282H122.457V53.7284C125.837 53.8831 129.138 52.6751 131.619 50.3752C134.01 47.9281 135.266 44.5907 135.082 41.1743C135.156 38.005 133.877 34.954 131.564 32.7852C129.124 30.4999 125.872 29.2842 122.531 29.4086H114.111V53.7282ZM119.846 33.9948H122.348C124.29 33.8756 126.19 34.5898 127.571 35.9583C128.881 37.4823 129.545 39.4568 129.422 41.4624C129.529 43.5006 128.876 45.5061 127.591 47.0915C126.256 48.5326 124.345 49.299 122.384 49.1799H119.846V33.9948Z" fill="#333333"/>
<path fill-rule="evenodd" clip-rule="evenodd" d="M144.697 53.7268H150.283L150.283 45.2833H151.989L157.282 53.7268H163.961L157.754 44.3815C160.639 43.2064 162.441 40.3097 162.22 37.2027C162.286 35.0467 161.372 32.9769 159.734 31.5737C157.881 30.0641 155.535 29.2925 153.148 29.4072H144.697V53.7268ZM150.283 33.9199H153.039C153.98 33.8687 154.904 34.1851 155.616 34.8021C156.265 35.4412 156.609 36.3282 156.56 37.238C156.688 38.2268 156.343 39.2181 155.629 39.9138C154.915 40.6095 153.915 40.9284 152.93 40.7747H150.283V33.9199Z" fill="#333333"/>
<rect x="173.142" y="29.4038" width="5.58611" height="24.3196" fill="#333333"/>
<path d="M204.227 53.7269H189.608V29.4072H195.194V48.8551H204.227V53.7269Z" fill="#333333"/>
<path d="M227.738 53.7269H213.119V29.4072H218.705V48.8551H227.738V53.7269Z" fill="#333333"/>
<path d="M251.823 53.7269H236.623V29.4072H251.679V33.8496H242.248V39.3654H250.664V43.7687H242.248V49.2884H251.823V53.7269Z" fill="#333333"/>
<path fill-rule="evenodd" clip-rule="evenodd" d="M281.83 32.4391C279.569 30.1103 276.418 28.8623 273.176 29.0115V29.0117C269.925 28.8635 266.767 30.119 264.506 32.4588C262.273 34.932 261.106 38.1864 261.258 41.5151C261.106 44.8344 262.265 48.0805 264.486 50.552C269.357 55.1297 276.95 55.1211 281.811 50.5325C284.041 48.0591 285.208 44.807 285.058 41.48C285.211 38.1593 284.052 34.9118 281.83 32.4391ZM267.242 41.4941C267.138 39.5548 267.701 37.6383 268.839 36.0641C269.913 34.794 271.492 34.0615 273.156 34.0615C274.82 34.0615 276.399 34.794 277.473 36.0641C278.612 37.6374 279.176 39.5545 279.07 41.4941C279.177 43.4337 278.613 45.351 277.473 46.924C276.399 48.1941 274.82 48.9266 273.156 48.9266C271.492 48.9266 269.913 48.1941 268.839 46.924C267.7 45.3501 267.137 43.4334 267.242 41.4941Z" fill="#333333"/>
</svg>
