<svg width="42" height="42" viewBox="0 0 42 42" fill="none" xmlns="http://www.w3.org/2000/svg">
<path d="M32.8123 33.705C32.7209 33.4333 32.5432 33.199 32.3062 33.0379C32.0692 32.8767 31.786 32.7975 31.4998 32.8125H24.9373V31.5C27.8145 31.2694 30.5718 30.2473 32.9041 28.5469C33.0437 28.4452 33.162 28.317 33.252 28.1696C33.3421 28.0222 33.4023 27.8585 33.4291 27.6879C33.4559 27.5173 33.4488 27.343 33.4083 27.1751C33.3678 27.0072 33.2946 26.849 33.1929 26.7094C33.0912 26.5697 32.963 26.4515 32.8156 26.3615C32.6682 26.2714 32.5046 26.2112 32.3339 26.1844C32.1633 26.1576 31.9891 26.1647 31.8212 26.2052C31.6533 26.2457 31.495 26.3189 31.3554 26.4206C28.5341 28.4709 25.0138 29.3164 21.5691 28.7712C18.1243 28.226 15.0372 26.3347 12.9869 23.5134C10.9367 20.6921 10.0911 17.1719 10.6363 13.7271C11.1815 10.2824 13.0728 7.19527 15.8941 5.14499C16.1761 4.93961 16.3649 4.63064 16.4191 4.28604C16.4732 3.94144 16.3883 3.58944 16.1829 3.30749C15.9775 3.02553 15.6685 2.8367 15.3239 2.78255C14.9793 2.7284 14.6273 2.81336 14.3454 3.01874C11.7574 4.91303 9.80938 7.55225 8.76181 10.5835C7.71424 13.6148 7.61705 16.8937 8.48323 19.9817C9.34942 23.0697 11.1377 25.8196 13.6089 27.8639C16.0802 29.9082 19.1166 31.1492 22.3123 31.4212V32.8125H15.7498C15.4746 32.8118 15.2062 32.8976 14.9824 33.0577C14.7587 33.2179 14.5909 33.4443 14.5029 33.705L13.1904 37.6425C13.1253 37.8399 13.108 38.0499 13.14 38.2552C13.1719 38.4606 13.2522 38.6555 13.3741 38.8237C13.4949 38.9934 13.6543 39.1318 13.8392 39.2277C14.024 39.3235 14.229 39.374 14.4373 39.375H32.8123C33.0205 39.374 33.2255 39.3235 33.4104 39.2277C33.5952 39.1318 33.7546 38.9934 33.8754 38.8237C33.9973 38.6555 34.0776 38.4606 34.1096 38.2552C34.1415 38.0499 34.1242 37.8399 34.0591 37.6425L32.8123 33.705ZM16.2616 36.75L16.6948 35.4375H30.5548L30.9879 36.75H16.2616Z" fill="black"/>
<path d="M35.4374 15.7502C35.4526 12.7019 34.2887 9.76568 32.1891 7.55559C30.0895 5.3455 27.2168 4.03265 24.1717 3.89157C21.1266 3.75049 18.1448 4.7921 15.8499 6.7986C13.555 8.80509 12.1246 11.6211 11.8578 14.6578C11.5911 17.6945 12.5087 20.7168 14.4186 23.0926C16.3286 25.4685 19.0832 27.0139 22.1063 27.4059C25.1294 27.7978 28.1869 27.0059 30.6396 25.1956C33.0924 23.3854 34.7503 20.6971 35.2668 17.6927C35.3897 17.4118 35.4174 17.0984 35.3455 16.8002C35.4374 16.4327 35.4374 16.0915 35.4374 15.7502ZM32.8124 14.9234L32.2349 14.6346C31.7285 14.3773 31.1725 14.2325 30.605 14.2103C30.0374 14.1881 29.4718 14.2889 28.9469 14.5058C28.422 14.7228 27.9502 15.0507 27.564 15.4672C27.1777 15.8836 26.8862 16.3786 26.7093 16.9184C26.5926 17.2522 26.3533 17.5291 26.0399 17.6927L25.4755 17.9684C24.9608 18.2283 24.5094 18.5982 24.1533 19.0518C23.7973 19.5054 23.5452 20.0316 23.4149 20.5934L22.3124 24.6227C22.3124 24.6227 22.3124 24.7671 22.3124 24.8327C21.5727 24.735 20.8491 24.5409 20.1599 24.2552L21.9318 20.6984C22.1775 20.2171 22.2726 19.673 22.2047 19.1369C22.1368 18.6008 21.9091 18.0976 21.5511 17.6927C21.1832 17.28 20.7031 16.9833 20.1694 16.8388C19.6357 16.6943 19.0714 16.7082 18.5455 16.879L14.608 13.9521C14.6679 13.6728 14.7424 13.3968 14.8311 13.1252H18.9261C19.7618 13.1244 20.5634 12.7943 21.1574 12.2065L22.3124 11.0515C22.3883 10.9758 22.4856 10.9251 22.5912 10.9063C22.6968 10.8876 22.8056 10.9016 22.903 10.9465C23.5889 11.2904 24.3767 11.3722 25.1186 11.1765C25.8605 10.9807 26.5055 10.5209 26.9324 9.88337L28.2449 7.849C29.515 8.57867 30.5923 9.60147 31.3868 10.8321C32.1814 12.0627 32.6701 13.4655 32.8124 14.9234ZM23.6249 6.56275C24.3595 6.56718 25.091 6.65971 25.8036 6.83837L24.7405 8.4265C24.6728 8.53242 24.5675 8.60885 24.4458 8.64048C24.3242 8.67212 24.195 8.65663 24.0843 8.59712C23.4929 8.30164 22.8236 8.19968 22.1711 8.30568C21.5186 8.41168 20.916 8.72027 20.4486 9.18775L19.2936 10.3427C19.2476 10.3943 19.1909 10.4351 19.1274 10.4623C19.0639 10.4895 18.9952 10.5025 18.9261 10.5002H16.0911C16.9369 9.28564 18.0635 8.29334 19.3752 7.60778C20.6869 6.92223 22.1448 6.56371 23.6249 6.56275ZM14.5555 17.1546L17.0624 18.979C17.4135 19.2448 17.8242 19.4207 18.2588 19.4917C18.6934 19.5626 19.1388 19.5263 19.5561 19.3859L19.1493 18.139L19.6743 19.5302L17.9811 22.9296C16.1515 21.5058 14.9279 19.4429 14.5555 17.1546ZM25.0555 24.8196L25.9743 21.184C26.0198 20.9975 26.1057 20.8233 26.2259 20.6736C26.3461 20.524 26.4976 20.4025 26.6699 20.3177L27.2211 20.0421C27.6869 19.8093 28.102 19.4865 28.4422 19.0922C28.7823 18.698 29.041 18.2401 29.203 17.7452C29.2624 17.5621 29.3614 17.3942 29.493 17.2536C29.6245 17.1129 29.7854 17.003 29.9643 16.9315C30.137 16.8515 30.3251 16.8101 30.5155 16.8101C30.7059 16.8101 30.894 16.8515 31.0668 16.9315L32.6418 17.719C32.2383 19.5373 31.2918 21.1901 29.9276 22.4582C28.5633 23.7263 26.8459 24.5499 25.003 24.8196H25.0555Z" fill="black"/>
</svg>
