<svg width="42" height="42" viewBox="0 0 42 42" fill="none" xmlns="http://www.w3.org/2000/svg">
<path d="M38.0625 34.1249H36.75V31.4999C36.7503 31.3071 36.7081 31.1165 36.6265 30.9419C36.5448 30.7672 36.4257 30.6127 36.2775 30.4893C34.1643 28.6989 31.5142 27.6647 28.7469 27.5506C25.9797 27.4365 23.2534 28.2489 21 29.8593C18.6791 28.228 15.8795 27.4195 13.0462 27.5624C10.3563 27.7364 7.79145 28.7614 5.7225 30.4893C5.57434 30.6127 5.45519 30.7672 5.37353 30.9419C5.29186 31.1165 5.24969 31.3071 5.25 31.4999V34.1249H3.9375C3.5894 34.1249 3.25556 34.2632 3.00942 34.5093C2.76328 34.7554 2.625 35.0893 2.625 35.4374C2.625 35.7855 2.76328 36.1193 3.00942 36.3655C3.25556 36.6116 3.5894 36.7499 3.9375 36.7499H38.0625C38.4106 36.7499 38.7444 36.6116 38.9906 36.3655C39.2367 36.1193 39.375 35.7855 39.375 35.4374C39.375 35.0893 39.2367 34.7554 38.9906 34.5093C38.7444 34.2632 38.4106 34.1249 38.0625 34.1249ZM7.875 32.143C9.42365 30.9875 11.2753 30.308 13.2038 30.1874C15.5247 30.0817 17.8121 30.7716 19.6875 32.143V34.1249H7.875V32.143ZM22.3125 34.1249V32.143C24.185 30.7658 26.4745 30.0753 28.7963 30.1874C30.7247 30.308 32.5763 30.9875 34.125 32.143V34.1249H22.3125Z" fill="black"/>
<path d="M17.0623 18.5066V22.3129C17.0623 23.3572 17.4772 24.3587 18.2156 25.0971C18.954 25.8355 19.9556 26.2504 20.9998 26.2504C22.0441 26.2504 23.0457 25.8355 23.7841 25.0971C24.5225 24.3587 24.9373 23.3572 24.9373 22.3129V18.5066C24.9572 18.0982 25.0989 17.705 25.3442 17.3779C25.8867 16.5897 26.2035 15.6682 26.2603 14.713C26.3171 13.7579 26.1118 12.8054 25.6665 11.9584C25.2213 11.1115 24.5531 10.4023 23.734 9.9076C22.915 9.41286 21.9764 9.15137 21.0195 9.15137C20.0627 9.15137 19.124 9.41286 18.305 9.9076C17.486 10.4023 16.8178 11.1115 16.3725 11.9584C15.9273 12.8054 15.722 13.7579 15.7788 14.713C15.8356 15.6682 16.1524 16.5897 16.6948 17.3779C16.9371 17.704 17.0661 18.1004 17.0623 18.5066ZM20.9998 23.6254C20.6517 23.6254 20.3179 23.4871 20.0718 23.241C19.8256 22.9948 19.6873 22.661 19.6873 22.3129H22.3123C22.3123 22.661 22.1741 22.9948 21.9279 23.241C21.6818 23.4871 21.3479 23.6254 20.9998 23.6254ZM19.3067 12.4297C19.7806 12.0308 20.3804 11.8123 20.9998 11.8129C21.1615 11.7999 21.3239 11.7999 21.4855 11.8129C22.0211 11.906 22.5145 12.1631 22.8977 12.5486C23.281 12.9342 23.535 13.4292 23.6248 13.9654C23.7487 14.6412 23.6026 15.3386 23.218 15.9079C22.665 16.6724 22.3624 17.5894 22.3517 18.5329V19.6879H19.6873V18.5066C19.6803 17.5869 19.3866 16.6923 18.8473 15.9472C18.5429 15.5025 18.3784 14.9768 18.3748 14.4379C18.3745 14.0555 18.4578 13.6776 18.6187 13.3308C18.7797 12.9839 19.0145 12.6764 19.3067 12.4297Z" fill="black"/>
<path d="M11.2217 9.04355L13.8467 10.3561C14.0283 10.4532 14.2315 10.5029 14.4374 10.5004C14.6797 10.4997 14.9172 10.4319 15.1234 10.3044C15.3295 10.177 15.4964 9.995 15.6055 9.77855C15.7612 9.46858 15.7878 9.10959 15.6796 8.78003C15.5714 8.45047 15.3371 8.17715 15.028 8.0198L12.403 6.7073C12.0971 6.5799 11.7543 6.57295 11.4434 6.68785C11.1326 6.80274 10.8767 7.03097 10.7271 7.32672C10.5776 7.62247 10.5455 7.96383 10.6372 8.28228C10.729 8.60073 10.9378 8.87269 11.2217 9.04355Z" fill="black"/>
<path d="M27.5626 10.4996C27.7685 10.502 27.9717 10.4524 28.1532 10.3552L30.7782 9.0427C30.9449 8.97332 31.0954 8.87032 31.2204 8.74013C31.3454 8.60995 31.4422 8.45538 31.5048 8.28609C31.5674 8.11679 31.5943 7.93642 31.5841 7.75622C31.5738 7.57603 31.5264 7.3999 31.445 7.23883C31.3635 7.07776 31.2498 6.93522 31.1107 6.82011C30.9717 6.70501 30.8105 6.61981 30.637 6.56985C30.4636 6.51988 30.2817 6.50623 30.1028 6.52973C29.9238 6.55324 29.7516 6.61339 29.597 6.70645L26.972 8.01895C26.6629 8.1763 26.4286 8.44962 26.3204 8.77918C26.2122 9.10873 26.2388 9.46773 26.3945 9.7777C26.5036 9.99415 26.6704 10.1762 26.8766 10.3036C27.0828 10.431 27.3202 10.4988 27.5626 10.4996Z" fill="black"/>
<path d="M10.5 15.75H13.125C13.4731 15.75 13.8069 15.6117 14.0531 15.3656C14.2992 15.1194 14.4375 14.7856 14.4375 14.4375C14.4375 14.0894 14.2992 13.7556 14.0531 13.5094C13.8069 13.2633 13.4731 13.125 13.125 13.125H10.5C10.1519 13.125 9.81806 13.2633 9.57192 13.5094C9.32578 13.7556 9.1875 14.0894 9.1875 14.4375C9.1875 14.7856 9.32578 15.1194 9.57192 15.3656C9.81806 15.6117 10.1519 15.75 10.5 15.75Z" fill="black"/>
<path d="M27.5625 14.4375C27.5625 14.7856 27.7008 15.1194 27.9469 15.3656C28.1931 15.6117 28.5269 15.75 28.875 15.75H31.5C31.8481 15.75 32.1819 15.6117 32.4281 15.3656C32.6742 15.1194 32.8125 14.7856 32.8125 14.4375C32.8125 14.0894 32.6742 13.7556 32.4281 13.5094C32.1819 13.2633 31.8481 13.125 31.5 13.125H28.875C28.5269 13.125 28.1931 13.2633 27.9469 13.5094C27.7008 13.7556 27.5625 14.0894 27.5625 14.4375Z" fill="black"/>
<path d="M21 7.875C21.3481 7.875 21.6819 7.73672 21.9281 7.49058C22.1742 7.24444 22.3125 6.9106 22.3125 6.5625V3.9375C22.3125 3.5894 22.1742 3.25556 21.9281 3.00942C21.6819 2.76328 21.3481 2.625 21 2.625C20.6519 2.625 20.3181 2.76328 20.0719 3.00942C19.8258 3.25556 19.6875 3.5894 19.6875 3.9375V6.5625C19.6875 6.9106 19.8258 7.24444 20.0719 7.49058C20.3181 7.73672 20.6519 7.875 21 7.875Z" fill="black"/>
</svg>
