<svg width="42" height="42" viewBox="0 0 42 42" fill="none" xmlns="http://www.w3.org/2000/svg">
<path d="M38.5348 10.5919L21.4723 4.02941C21.1683 3.91207 20.8314 3.91207 20.5273 4.02941L3.46484 10.5919C3.22003 10.6887 3.00997 10.8568 2.86195 11.0745C2.71392 11.2921 2.63477 11.5493 2.63477 11.8125C2.63477 12.0758 2.71392 12.3329 2.86195 12.5506C3.00997 12.7683 3.22003 12.9364 3.46484 13.0332L6.56234 14.2407C6.55618 14.3061 6.55618 14.3721 6.56234 14.4375V22.3125C6.56346 22.5287 6.61796 22.7413 6.721 22.9313C6.82404 23.1214 6.97242 23.283 7.15297 23.4019C11.269 26.099 16.0789 27.5443 20.9998 27.5625C23.6768 27.5331 26.3331 27.0903 28.8748 26.25V29.0719C28.1026 29.3449 27.4347 29.852 26.9642 30.5224C26.4937 31.1929 26.244 31.9935 26.2498 32.8125V36.75C26.2498 37.0981 26.3881 37.432 26.6343 37.6781C26.8804 37.9243 27.2142 38.0625 27.5623 38.0625H32.8123C33.1604 38.0625 33.4943 37.9243 33.7404 37.6781C33.9866 37.432 34.1248 37.0981 34.1248 36.75V32.8125C34.1226 32.0002 33.8691 31.2084 33.3991 30.5458C32.9292 29.8831 32.2658 29.3821 31.4998 29.1113V25.2394C32.6621 24.7159 33.7812 24.1015 34.8467 23.4019C35.0273 23.283 35.1757 23.1214 35.2787 22.9313C35.3817 22.7413 35.4362 22.5287 35.4373 22.3125V14.4375C35.4435 14.3721 35.4435 14.3061 35.4373 14.2407L38.5742 13.0332C38.819 12.9364 39.0291 12.7683 39.1771 12.5506C39.3251 12.3329 39.4043 12.0758 39.4043 11.8125C39.4043 11.5493 39.3251 11.2921 39.1771 11.0745C39.0291 10.8568 38.819 10.6887 38.5742 10.5919H38.5348ZM31.4998 35.4375H28.8748V32.8125C28.8748 32.4644 29.0131 32.1306 29.2593 31.8845C29.5054 31.6383 29.8392 31.5 30.1873 31.5C30.5354 31.5 30.8693 31.6383 31.1154 31.8845C31.3616 32.1306 31.4998 32.4644 31.4998 32.8125V35.4375ZM20.9998 6.65441L34.4005 11.8125L31.4998 12.9413C31.4553 12.6259 31.2975 12.3375 31.0561 12.1298C30.8146 11.9222 30.5058 11.8094 30.1873 11.8125H24.9373C24.5892 11.8125 24.2554 11.9508 24.0093 12.197C23.7631 12.4431 23.6248 12.7769 23.6248 13.125C23.6248 13.4731 23.7631 13.807 24.0093 14.0531C24.2554 14.2993 24.5892 14.4375 24.9373 14.4375H27.5623L20.9998 16.9707L7.59922 11.8125L20.9998 6.65441ZM20.9998 24.9375C16.8307 24.9211 12.7455 23.7636 9.18734 21.5907V15.2382L20.5273 19.5957C20.8314 19.713 21.1683 19.713 21.4723 19.5957L28.8748 16.7475V23.4938C26.3531 24.4269 23.6886 24.9154 20.9998 24.9375ZM32.8123 21.5907C32.3792 21.8663 31.933 22.0894 31.4998 22.3257V15.75L32.8123 15.2513V21.5907Z" fill="black"/>
</svg>
