<svg width="305" height="86" viewBox="0 0 305 86" fill="none" xmlns="http://www.w3.org/2000/svg">
<path d="M125.217 39.7703C133.205 39.7703 139.09 34.278 139.09 26.7886C139.09 19.2992 133.205 13.8069 125.217 13.8069C117.228 13.8069 111.343 19.2992 111.343 26.7886C111.343 34.278 117.228 39.7703 125.217 39.7703ZM125.217 33.9214C121.436 33.9214 118.476 31.1039 118.476 26.7886C118.476 22.4733 121.436 19.6558 125.217 19.6558C128.997 19.6558 131.957 22.4733 131.957 26.7886C131.957 31.1039 128.997 33.9214 125.217 33.9214ZM154.201 14.3062H142.788V39.271H149.85V32.7445H154.201C161.013 32.7445 165.292 29.2137 165.292 23.5432C165.292 17.8369 161.013 14.3062 154.201 14.3062ZM153.773 27.1809H149.85V19.8698H153.773C156.697 19.8698 158.16 21.225 158.16 23.5432C158.16 25.8257 156.697 27.1809 153.773 27.1809ZM175.726 33.8144V29.2494H186.817V23.9711H175.726V19.7628H188.315V14.3062H168.735V39.271H188.779V33.8144H175.726ZM209.531 14.3062V27.6089L198.51 14.3062H192.697V39.271H199.616V25.9683L210.636 39.271H216.449V14.3062H209.531ZM131.315 72.271H138.662L127.606 47.3062H120.652L109.632 72.271H116.836L118.797 67.4207H129.354L131.315 72.271ZM120.866 62.2137L124.075 54.225L127.285 62.2137H120.866ZM152.762 72.7703C157.363 72.7703 161.072 71.0941 163.497 68.0626L159.004 63.9969C157.434 65.8871 155.509 66.9214 153.119 66.9214C149.018 66.9214 146.165 64.0683 146.165 59.7886C146.165 55.5089 149.018 52.6558 153.119 52.6558C155.509 52.6558 157.434 53.6901 159.004 55.5802L163.497 51.5146C161.072 48.4831 157.363 46.8069 152.762 46.8069C144.845 46.8069 139.032 52.1922 139.032 59.7886C139.032 67.385 144.845 72.7703 152.762 72.7703ZM184.916 72.271H192.263L181.207 47.3062H174.252L163.232 72.271H170.436L172.398 67.4207H182.954L184.916 72.271ZM174.466 62.2137L177.676 54.225L180.886 62.2137H174.466ZM194.264 72.271H206.069C214.343 72.271 220.014 67.4564 220.014 59.7886C220.014 52.1208 214.343 47.3062 206.069 47.3062H194.264V72.271ZM201.326 66.6361V52.9411H205.784C210.028 52.9411 212.881 55.4733 212.881 59.7886C212.881 64.1039 210.028 66.6361 205.784 66.6361H201.326ZM230.719 66.8144V62.2494H241.811V56.9711H230.719V52.7628H243.309V47.3062H223.729V72.271H243.772V66.8144H230.719ZM276.721 72.271L276.65 47.3062H270.837L262.277 61.7145L253.504 47.3062H247.691V72.271H254.217V59.3963L260.601 69.8102H263.74L270.159 59.0397L270.23 72.271H276.721ZM304.65 47.3062H297.802L291.882 57.2208L285.962 47.3062H278.508L288.03 63.2123V72.271H295.092V63.3193L304.65 47.3062Z" fill="#322D1E"/>
<path fill-rule="evenodd" clip-rule="evenodd" d="M0 42.9396C-9.04314e-05 19.2249 19.2244 0.00018782 42.9391 0C54.3274 -4.00863e-05 65.2493 4.52393 73.3021 12.5767C81.3549 20.6294 85.8789 31.5513 85.8789 42.9396C85.8788 66.6544 66.6542 85.8789 42.9394 85.8789C19.2247 85.8789 9.04321e-05 66.6544 0 42.9396ZM26.4803 49.6578C29.2573 56.3193 35.7759 60.65 42.993 60.6282L42.9931 60.6284C52.8264 60.6134 60.7858 52.6298 60.7709 42.7965C60.7709 35.5794 56.4205 29.0739 49.7506 26.3171C43.0807 23.5602 35.4068 25.0957 30.3112 30.2067C25.2156 35.3177 23.7033 42.9963 26.4803 49.6578Z" fill="url(#paint0_linear_1875_1494)"/>
<mask id="mask0_1875_1494" style="mask-type:alpha" maskUnits="userSpaceOnUse" x="0" y="0" width="86" height="86">
<path fill-rule="evenodd" clip-rule="evenodd" d="M3.19039e-10 42.9396C-9.04311e-05 19.2249 19.2244 0.000187821 42.9391 2.66398e-10C54.3274 -4.0086e-05 65.2493 4.52393 73.3021 12.5767C81.3549 20.6294 85.8789 31.5513 85.8789 42.9396C85.8788 66.6544 66.6542 85.8789 42.9394 85.8789C19.2247 85.8789 9.04324e-05 66.6544 3.19039e-10 42.9396ZM26.4803 49.6578C29.2573 56.3193 35.7759 60.65 42.993 60.6282L42.9931 60.6284C52.8264 60.6134 60.7858 52.6298 60.7709 42.7965C60.7709 35.5794 56.4205 29.0739 49.7506 26.3171C43.0807 23.5602 35.4068 25.0957 30.3112 30.2067C25.2156 35.3177 23.7033 42.9963 26.4803 49.6578Z" fill="white"/>
</mask>
<g mask="url(#mask0_1875_1494)">
<g filter="url(#filter0_f_1875_1494)">
<rect x="55.6836" y="30.3013" width="44.2234" height="35.664" transform="rotate(44 55.6836 30.3013)" fill="url(#paint1_linear_1875_1494)"/>
</g>
</g>
<path fill-rule="evenodd" clip-rule="evenodd" d="M42.9389 60.7709C52.7873 60.7709 60.7709 52.7873 60.7709 42.9389C60.7709 33.0906 52.7873 25.1069 42.9389 25.1069C33.0906 25.1069 25.1069 33.0906 25.1069 42.9389C25.1069 52.7873 33.0906 60.7709 42.9389 60.7709Z" fill="white"/>
<defs>
<filter id="filter0_f_1875_1494" x="27.0314" y="26.4235" width="64.3415" height="64.1301" filterUnits="userSpaceOnUse" color-interpolation-filters="sRGB">
<feFlood flood-opacity="0" result="BackgroundImageFix"/>
<feBlend mode="normal" in="SourceGraphic" in2="BackgroundImageFix" result="shape"/>
<feGaussianBlur stdDeviation="1.9389" result="effect1_foregroundBlur_1875_1494"/>
</filter>
<linearGradient id="paint0_linear_1875_1494" x1="-9.977" y1="39.8935" x2="39.9459" y2="71.0951" gradientUnits="userSpaceOnUse">
<stop stop-color="#8FE0FF"/>
<stop offset="1" stop-color="#1255CC"/>
</linearGradient>
<linearGradient id="paint1_linear_1875_1494" x1="56.0889" y1="52.6649" x2="86.1565" y2="67.2072" gradientUnits="userSpaceOnUse">
<stop stop-color="#062C70"/>
<stop offset="1" stop-color="#1255CC"/>
</linearGradient>
</defs>
</svg>
