<svg width="42" height="42" viewBox="0 0 42 42" fill="none" xmlns="http://www.w3.org/2000/svg">
<path d="M35.2275 3.9375H6.7725C5.67358 3.94096 4.62066 4.37904 3.8436 5.1561C3.06654 5.93316 2.62846 6.98608 2.625 8.085V26.04C2.62846 27.1389 3.06654 28.1918 3.8436 28.9689C4.62066 29.746 5.67358 30.184 6.7725 30.1875H35.2275C36.3264 30.184 37.3793 29.746 38.1564 28.9689C38.9335 28.1918 39.3715 27.1389 39.375 26.04V8.085C39.3715 6.98608 38.9335 5.93316 38.1564 5.1561C37.3793 4.37904 36.3264 3.94096 35.2275 3.9375ZM36.75 26.04C36.75 26.4438 36.5896 26.831 36.3041 27.1166C36.0185 27.4021 35.6313 27.5625 35.2275 27.5625H6.7725C6.36871 27.5625 5.98145 27.4021 5.69593 27.1166C5.41041 26.831 5.25 26.4438 5.25 26.04V8.085C5.25 7.68121 5.41041 7.29395 5.69593 7.00843C5.98145 6.72291 6.36871 6.5625 6.7725 6.5625H35.2275C35.6313 6.5625 36.0185 6.72291 36.3041 7.00843C36.5896 7.29395 36.75 7.68121 36.75 8.085V26.04Z" fill="black"/>
<path d="M38.0625 34.1254H31.2638C30.9879 33.3652 30.4846 32.7085 29.8224 32.2444C29.1602 31.7802 28.3712 31.5312 27.5625 31.5312C26.7538 31.5312 25.9648 31.7802 25.3026 32.2444C24.6404 32.7085 24.1371 33.3652 23.8612 34.1254H3.9375C3.5894 34.1254 3.25556 34.2637 3.00942 34.5098C2.76328 34.7559 2.625 35.0898 2.625 35.4379C2.625 35.786 2.76328 36.1198 3.00942 36.366C3.25556 36.6121 3.5894 36.7504 3.9375 36.7504H23.8612C24.1371 37.5105 24.6404 38.1673 25.3026 38.6314C25.9648 39.0955 26.7538 39.3445 27.5625 39.3445C28.3712 39.3445 29.1602 39.0955 29.8224 38.6314C30.4846 38.1673 30.9879 37.5105 31.2638 36.7504H38.0625C38.4106 36.7504 38.7444 36.6121 38.9906 36.366C39.2367 36.1198 39.375 35.786 39.375 35.4379C39.375 35.0898 39.2367 34.7559 38.9906 34.5098C38.7444 34.2637 38.4106 34.1254 38.0625 34.1254ZM27.5625 36.7504C27.3029 36.7504 27.0492 36.6734 26.8333 36.5292C26.6175 36.385 26.4492 36.18 26.3499 35.9401C26.2506 35.7003 26.2246 35.4364 26.2752 35.1818C26.3259 34.9272 26.4509 34.6934 26.6344 34.5098C26.818 34.3262 27.0518 34.2012 27.3064 34.1506C27.561 34.1 27.8249 34.1259 28.0648 34.2253C28.3046 34.3246 28.5096 34.4928 28.6538 34.7087C28.798 34.9245 28.875 35.1783 28.875 35.4379C28.875 35.786 28.7367 36.1198 28.4906 36.366C28.2444 36.6121 27.9106 36.7504 27.5625 36.7504Z" fill="black"/>
<path d="M26.8406 15.8943L18.9656 11.9568C18.7658 11.8561 18.5436 11.8082 18.3201 11.8176C18.0965 11.8269 17.8791 11.8933 17.6884 12.0103C17.4977 12.1274 17.3401 12.2912 17.2306 12.4863C17.121 12.6814 17.0632 12.9012 17.0625 13.1249V20.9999C17.0621 21.223 17.1185 21.4425 17.2264 21.6377C17.3343 21.8329 17.4902 21.9973 17.6794 22.1156C17.8883 22.245 18.1293 22.3132 18.375 22.3124C18.5805 22.3112 18.7828 22.2618 18.9656 22.1681L26.8406 18.2306C27.0556 18.1204 27.236 17.9531 27.362 17.747C27.488 17.5409 27.5547 17.304 27.5547 17.0624C27.5547 16.8209 27.488 16.584 27.362 16.3779C27.236 16.1718 27.0556 16.0045 26.8406 15.8943ZM19.6875 18.8737V15.2512L23.31 17.0624L19.6875 18.8737Z" fill="black"/>
</svg>
