<svg width="43" height="44" viewBox="0 0 43 44" fill="none" xmlns="http://www.w3.org/2000/svg">
<rect opacity="0.4" y="0.56543" width="42.8565" height="42.8565" rx="7.61893" fill="#DDECFB"/>
<circle cx="24.7622" cy="19.6127" r="1.90473" fill="#EAFDFD"/>
<path d="M11.0443 26.6467L13.4238 22.8204L10.0926 20.4036L15.3275 14.6029L21.5137 14.1191L31.9836 11.702L30.0802 20.8858L28.6525 24.2705L29.1284 29.1041L23.4176 34.421L21.0381 30.5541L17.231 32.4864L11.0443 26.6467Z" fill="white"/>
<path d="M29.3292 22.7367C32.5967 17.8642 33.6767 12.2303 33.6767 10.372C33.6767 9.39775 32.8967 8.60547 31.9375 8.60547C30.108 8.60547 24.5917 9.732 19.7639 13.0212L18.2648 12.4728C15.7467 11.5283 12.8985 12.3205 11.1592 14.3916L7.80145 18.473C7.38218 18.9905 7.2018 19.6911 7.38218 20.3312C7.47236 20.6963 7.65155 21.0009 7.9221 21.2757C8.13175 21.4886 8.37184 21.6409 8.67167 21.7634L11.1007 22.677C11.041 22.7686 10.9813 22.8602 10.9204 22.9506C8.46204 26.8785 9.00197 27.3975 9.39078 27.7921L14.8473 33.3344C15.2373 33.7305 15.7468 34.248 19.614 31.7808C19.7041 31.7201 19.7943 31.6594 19.8833 31.5976L20.7828 34.0648C20.9023 34.3384 21.0522 34.6132 21.263 34.8261C21.5031 35.07 21.8322 35.252 22.193 35.3745C22.8231 35.5577 23.5117 35.4054 24.0224 34.9487L28.0104 31.5071C30.0494 29.7406 30.799 26.8474 29.8995 24.2899L29.3292 22.7367ZM31.7278 10.6159C31.6974 11.4082 31.4585 12.8393 30.9783 14.5143L27.8897 11.3773C29.5388 10.8895 30.9477 10.6469 31.7278 10.6159ZM9.33111 19.8732C9.33111 19.8732 9.30066 19.8732 9.27138 19.8125C9.27138 19.7519 9.27138 19.7519 9.30183 19.7209L12.6902 15.6703C13.8895 14.2392 15.898 13.6908 17.6373 14.3308L17.9676 14.4522C17.5483 14.8174 17.1583 15.1826 16.7683 15.5787C14.8182 17.5594 13.3191 19.4783 12.2394 20.9699L9.33111 19.8732ZM15.8967 31.5679L11.0995 26.6954C11.3091 26.147 11.8795 25.0514 12.7485 23.681L18.8644 29.8929C17.5163 30.7755 16.4365 31.3549 15.8966 31.5678L15.8967 31.5679ZM26.721 29.9537L22.733 33.3952C22.733 33.3952 22.7026 33.4261 22.6429 33.4261C22.5831 33.4261 22.5831 33.3952 22.5831 33.3655L21.5337 30.4105C23.0024 29.3447 24.8915 27.791 26.8113 25.8425C27.2013 25.4464 27.5608 25.0502 27.9204 24.6244L28.0399 24.9289C28.67 26.7252 28.1605 28.7356 26.7211 29.9537L26.721 29.9537ZM25.462 24.441C23.7532 26.1766 22.014 27.6075 20.5149 28.7355L13.8881 22.0358C14.9972 20.4821 16.4062 18.7465 18.1163 17.0109C20.3954 14.696 23.273 13.1126 25.8521 12.1073L30.2898 16.6147C29.299 19.2033 27.7401 22.1274 25.462 24.441Z" fill="#4379BA"/>
<path d="M25.162 17.2854C23.7823 15.884 21.5044 15.884 20.1246 17.2854C18.7449 18.6868 18.7449 21.0006 20.1246 22.4021C21.5043 23.8035 23.7822 23.8035 25.162 22.4021C26.5709 20.971 26.5709 18.6869 25.162 17.2854ZM23.8128 21.0018C23.1826 21.6418 22.1637 21.6418 21.5043 21.0018C20.8742 20.3618 20.8742 19.3268 21.5043 18.657C22.1345 18.017 23.1534 18.017 23.8128 18.657C24.4417 19.2959 24.4417 20.3618 23.8128 21.0018Z" fill="#4379BA"/>
<path d="M12.2393 33.944L10.3501 35.8925C9.96011 36.2886 9.96011 36.8976 10.3501 37.2937C10.7401 37.6898 11.3398 37.6898 11.7298 37.2937L13.6189 35.375C14.0089 34.9789 14.0089 34.3699 13.6189 33.9738C13.2582 33.5776 12.6293 33.5776 12.2393 33.944V33.944Z" fill="#4379BA"/>
<path d="M11.19 31.4768C10.8 31.0807 10.2004 31.0807 9.81035 31.4768L6.78274 34.5828C6.39273 34.9789 6.39273 35.588 6.78274 35.9841C7.17275 36.3803 7.7724 36.3803 8.16241 35.9841L11.2203 32.8782C11.5798 32.482 11.5798 31.8729 11.1898 31.4768H11.19Z" fill="#4379BA"/>
<path d="M8.76053 30.4114C9.15054 30.0153 9.15054 29.4062 8.76053 29.01C8.37052 28.6139 7.77087 28.6139 7.38086 29.01L5.49173 30.9289C5.10172 31.3251 5.10172 31.9342 5.49173 32.3303C5.88174 32.7265 6.48139 32.7265 6.8714 32.3303L8.76053 30.4114Z" fill="#4379BA"/>
</svg>
