<svg width="25" height="26" viewBox="0 0 25 26" fill="none" xmlns="http://www.w3.org/2000/svg">
<path d="M18.5138 11.4736C18.5138 14.8924 15.9555 17.664 12.7996 17.664C9.64378 17.664 6.5 13.4189 6.5 10C6.5 6.58115 9.64378 5.2832 12.7996 5.2832C15.9555 5.2832 18.5138 8.05473 18.5138 11.4736Z" fill="white"/>
<path d="M16.9191 17.4108C16.8907 17.4026 16.8712 17.3743 16.8721 17.3428V16.3778C17.4147 15.646 17.8202 14.8148 18.068 13.9279C18.682 13.2974 18.9553 12.301 19.1032 11.7638C19.3539 10.892 19.5821 9.62803 18.923 8.72279L18.8926 8.68123C19.2109 7.0959 19.6076 3.34842 16.8565 1.44895C17.1797 1.10837 17.354 0.647171 17.3403 0.169733C17.3383 0.124119 17.3168 0.0805325 17.2825 0.0501227C17.2482 0.0217395 17.2041 0.0075505 17.1601 0.0116038C17.1248 0.0116038 13.6853 0.416047 12.028 0.061273C10.3278 -0.304662 8.45821 1.03133 8.07411 2.3967C7.43163 2.48387 6.84792 2.82545 6.4444 3.34851C5.69223 4.3064 5.46403 5.83395 5.7598 7.88157C5.77939 8.14106 5.80975 8.40055 5.8548 8.66004L5.82445 8.69856C5.16532 9.60172 5.40526 10.8657 5.64424 11.7395C5.79212 12.2768 6.06342 13.2732 6.67749 13.9006V13.9026C6.92332 14.7946 7.3288 15.6319 7.87332 16.3698V17.3196C7.87528 17.351 7.85471 17.3794 7.82533 17.3875C5.47382 17.9714 0 19.7666 0 24.2508C0 24.7394 0.38293 25.1357 0.855017 25.1357H23.8922C24.3643 25.1357 24.7473 24.7394 24.7473 24.2508C24.7473 19.7666 19.2735 17.9714 16.9189 17.4109L16.9191 17.4108ZM12.3738 20.849C10.9155 20.8703 9.5366 20.1608 8.67261 18.9444C9.04967 18.7275 9.33662 18.3747 9.47765 17.9531C9.86354 18.2166 10.2788 18.4305 10.7136 18.5916C11.788 18.9849 12.9594 18.9849 14.0337 18.5916C14.4666 18.4274 14.8799 18.2115 15.2648 17.948C15.4049 18.3747 15.6928 18.7325 16.0748 18.9515C15.209 20.1658 13.831 20.8723 12.3736 20.849H12.3738ZM7.12138 11.3309C6.81778 10.223 6.94607 9.82055 7.04891 9.68066C7.1204 9.58639 7.23401 9.53571 7.34957 9.54483H7.42205C7.51019 9.5499 7.5856 9.48097 7.59246 9.38974C7.59246 9.36643 7.78344 6.9793 9.14968 6.11963C9.83135 5.68883 10.7089 5.70709 11.7549 6.1693C13.8959 7.12415 15.4902 7.05624 16.461 6.83324C17.5668 7.67962 17.2484 9.02877 17.173 9.29335V9.3268C17.1544 9.38153 17.1632 9.44235 17.1975 9.48796C17.2318 9.53358 17.2857 9.5579 17.3405 9.55284C17.4766 9.5275 17.6157 9.57716 17.7068 9.68562C17.8096 9.82551 17.9379 10.2279 17.6343 11.3358C17.2455 12.7549 16.9301 12.8928 16.842 12.8928C16.7666 12.8979 16.7049 12.9577 16.6941 13.0357C16.4688 14.548 15.3053 16.4273 13.5199 17.0944C12.7795 17.3661 11.9715 17.3661 11.2311 17.0944C9.36537 16.4163 8.28209 14.5147 8.06171 13.0329C8.05093 12.9548 7.98923 12.896 7.91382 12.8899C7.82568 12.8828 7.51031 12.75 7.12148 11.331L7.12138 11.3309Z" fill="#4379BA"/>
</svg>
