<svg width="43" height="44" viewBox="0 0 43 44" fill="none" xmlns="http://www.w3.org/2000/svg">
<rect opacity="0.4" y="0.192383" width="42.8565" height="42.8565" rx="7.61893" fill="#DDECFB"/>
<path d="M23.5107 12.2645L36.8076 19.2035L23.5107 25.5631L9.63634 18.6241L23.5107 12.2645Z" fill="white"/>
<rect x="14.2852" y="23.0488" width="17.1426" height="7.61893" fill="white"/>
<mask id="path-4-outside-1_1439_1839" maskUnits="userSpaceOnUse" x="4.58594" y="9.62695" width="34" height="24" fill="black">
<rect fill="white" x="4.58594" y="9.62695" width="34" height="24"/>
<path d="M22.3812 10.6277C22.2383 10.6343 22.098 10.6711 21.9704 10.7368L7.46036 18.1992C7.13175 18.3688 6.91686 18.7094 6.89917 19.0894C6.88021 19.4708 7.06095 19.8324 7.37186 20.0349V23.4288C6.33419 23.8548 5.58594 24.9081 5.58594 26.1284V29.872C5.58594 30.1521 5.69211 30.4217 5.88296 30.6202C6.07381 30.8175 6.33165 30.9292 6.60215 30.9279H10.1627C10.4306 30.9279 10.6885 30.8162 10.8768 30.6176C11.0664 30.419 11.1726 30.1508 11.1713 29.872V26.1284C11.1713 24.9107 10.4268 23.8601 9.3942 23.4327V21.0829L12.6273 22.7476V29.1883C12.6273 30.0431 13.1759 30.669 13.7611 31.0832C14.3463 31.4974 15.0654 31.7985 15.9249 32.0549C17.6439 32.5678 19.9077 32.8623 22.4189 32.8623C24.9291 32.8623 27.2016 32.5678 28.9207 32.0549C29.7801 31.7985 30.4993 31.4974 31.0858 31.0832C31.671 30.669 32.2208 30.0444 32.2208 29.1883V22.7449L37.3852 20.0861H37.384C37.729 19.9086 37.9477 19.543 37.9477 19.142C37.9477 18.7422 37.729 18.3767 37.384 18.1991L22.8752 10.7368C22.721 10.6579 22.5518 10.6211 22.3812 10.6277ZM22.4191 12.8487L34.6615 19.146L30.8457 21.1105C30.8154 21.1223 30.7851 21.1355 30.756 21.15L22.4177 25.4352L14.0871 21.15H14.0884C14.077 21.1447 14.0656 21.1408 14.0543 21.1355L10.1915 19.1473L22.4191 12.8487ZM14.6496 23.7891L21.9703 27.5553V27.5566C22.2547 27.7052 22.5896 27.7052 22.8753 27.5566L30.1973 23.7904V29.1882C30.1973 29.0594 30.2516 29.1317 29.9508 29.3447C29.65 29.5577 29.0888 29.8181 28.3608 30.0351C26.9047 30.469 24.7737 30.7557 22.4178 30.7557C20.0631 30.7557 17.9409 30.469 16.4849 30.0351C15.7569 29.8181 15.1957 29.5577 14.8948 29.3447C14.594 29.1317 14.6484 29.0594 14.6484 29.1882L14.6496 23.7891ZM8.37919 25.3276C8.82283 25.3276 9.14766 25.6655 9.14766 26.1271V28.8201L7.61072 28.8214V26.1284C7.61072 25.6668 7.93555 25.3289 8.37919 25.3289V25.3276Z"/>
</mask>
<path d="M22.3812 10.6277C22.2383 10.6343 22.098 10.6711 21.9704 10.7368L7.46036 18.1992C7.13175 18.3688 6.91686 18.7094 6.89917 19.0894C6.88021 19.4708 7.06095 19.8324 7.37186 20.0349V23.4288C6.33419 23.8548 5.58594 24.9081 5.58594 26.1284V29.872C5.58594 30.1521 5.69211 30.4217 5.88296 30.6202C6.07381 30.8175 6.33165 30.9292 6.60215 30.9279H10.1627C10.4306 30.9279 10.6885 30.8162 10.8768 30.6176C11.0664 30.419 11.1726 30.1508 11.1713 29.872V26.1284C11.1713 24.9107 10.4268 23.8601 9.3942 23.4327V21.0829L12.6273 22.7476V29.1883C12.6273 30.0431 13.1759 30.669 13.7611 31.0832C14.3463 31.4974 15.0654 31.7985 15.9249 32.0549C17.6439 32.5678 19.9077 32.8623 22.4189 32.8623C24.9291 32.8623 27.2016 32.5678 28.9207 32.0549C29.7801 31.7985 30.4993 31.4974 31.0858 31.0832C31.671 30.669 32.2208 30.0444 32.2208 29.1883V22.7449L37.3852 20.0861H37.384C37.729 19.9086 37.9477 19.543 37.9477 19.142C37.9477 18.7422 37.729 18.3767 37.384 18.1991L22.8752 10.7368C22.721 10.6579 22.5518 10.6211 22.3812 10.6277ZM22.4191 12.8487L34.6615 19.146L30.8457 21.1105C30.8154 21.1223 30.7851 21.1355 30.756 21.15L22.4177 25.4352L14.0871 21.15H14.0884C14.077 21.1447 14.0656 21.1408 14.0543 21.1355L10.1915 19.1473L22.4191 12.8487ZM14.6496 23.7891L21.9703 27.5553V27.5566C22.2547 27.7052 22.5896 27.7052 22.8753 27.5566L30.1973 23.7904V29.1882C30.1973 29.0594 30.2516 29.1317 29.9508 29.3447C29.65 29.5577 29.0888 29.8181 28.3608 30.0351C26.9047 30.469 24.7737 30.7557 22.4178 30.7557C20.0631 30.7557 17.9409 30.469 16.4849 30.0351C15.7569 29.8181 15.1957 29.5577 14.8948 29.3447C14.594 29.1317 14.6484 29.0594 14.6484 29.1882L14.6496 23.7891ZM8.37919 25.3276C8.82283 25.3276 9.14766 25.6655 9.14766 26.1271V28.8201L7.61072 28.8214V26.1284C7.61072 25.6668 7.93555 25.3289 8.37919 25.3289V25.3276Z" fill="#4379BA"/>
<path d="M22.3812 10.6277C22.2383 10.6343 22.098 10.6711 21.9704 10.7368L7.46036 18.1992C7.13175 18.3688 6.91686 18.7094 6.89917 19.0894C6.88021 19.4708 7.06095 19.8324 7.37186 20.0349V23.4288C6.33419 23.8548 5.58594 24.9081 5.58594 26.1284V29.872C5.58594 30.1521 5.69211 30.4217 5.88296 30.6202C6.07381 30.8175 6.33165 30.9292 6.60215 30.9279H10.1627C10.4306 30.9279 10.6885 30.8162 10.8768 30.6176C11.0664 30.419 11.1726 30.1508 11.1713 29.872V26.1284C11.1713 24.9107 10.4268 23.8601 9.3942 23.4327V21.0829L12.6273 22.7476V29.1883C12.6273 30.0431 13.1759 30.669 13.7611 31.0832C14.3463 31.4974 15.0654 31.7985 15.9249 32.0549C17.6439 32.5678 19.9077 32.8623 22.4189 32.8623C24.9291 32.8623 27.2016 32.5678 28.9207 32.0549C29.7801 31.7985 30.4993 31.4974 31.0858 31.0832C31.671 30.669 32.2208 30.0444 32.2208 29.1883V22.7449L37.3852 20.0861H37.384C37.729 19.9086 37.9477 19.543 37.9477 19.142C37.9477 18.7422 37.729 18.3767 37.384 18.1991L22.8752 10.7368C22.721 10.6579 22.5518 10.6211 22.3812 10.6277ZM22.4191 12.8487L34.6615 19.146L30.8457 21.1105C30.8154 21.1223 30.7851 21.1355 30.756 21.15L22.4177 25.4352L14.0871 21.15H14.0884C14.077 21.1447 14.0656 21.1408 14.0543 21.1355L10.1915 19.1473L22.4191 12.8487ZM14.6496 23.7891L21.9703 27.5553V27.5566C22.2547 27.7052 22.5896 27.7052 22.8753 27.5566L30.1973 23.7904V29.1882C30.1973 29.0594 30.2516 29.1317 29.9508 29.3447C29.65 29.5577 29.0888 29.8181 28.3608 30.0351C26.9047 30.469 24.7737 30.7557 22.4178 30.7557C20.0631 30.7557 17.9409 30.469 16.4849 30.0351C15.7569 29.8181 15.1957 29.5577 14.8948 29.3447C14.594 29.1317 14.6484 29.0594 14.6484 29.1882L14.6496 23.7891ZM8.37919 25.3276C8.82283 25.3276 9.14766 25.6655 9.14766 26.1271V28.8201L7.61072 28.8214V26.1284C7.61072 25.6668 7.93555 25.3289 8.37919 25.3289V25.3276Z" stroke="#4379BA" stroke-width="0.57142" mask="url(#path-4-outside-1_1439_1839)"/>
</svg>
