<svg width="43" height="44" viewBox="0 0 43 44" fill="none" xmlns="http://www.w3.org/2000/svg">
<rect opacity="0.4" y="0.56543" width="42.8565" height="42.8565" rx="7.61893" fill="#DDECFB"/>
<g clip-path="url(#clip0_1439_1785)">
<ellipse cx="21.4281" cy="18.6602" rx="8.09512" ry="8.5713" fill="white"/>
<path d="M27.5311 10.7981C25.3437 9.06479 22.5176 8.45126 19.7438 9.09085C16.5177 9.86478 13.9313 12.398 13.1313 15.6241C12.2511 19.224 13.4782 22.824 16.3844 25.0634C16.5979 25.2238 16.7312 25.5436 16.7312 25.9165V30.7695C16.7312 31.7559 17.5312 32.583 18.5447 32.583H19.6916C20.0114 33.5163 20.8645 34.2361 21.9051 34.2361C22.9447 34.2361 23.7989 33.5424 24.1186 32.583H25.2655C26.2519 32.583 27.079 31.783 27.079 30.7695L27.0769 25.8373C27.0769 25.5175 27.2103 25.2238 27.3967 25.0644C29.6633 23.3311 30.9695 20.7176 30.9695 17.8917C30.9434 15.1179 29.7174 12.5313 27.5308 10.798L27.5311 10.7981ZM24.8645 30.3706H18.9176V28.3175H24.8645V30.3706ZM26.0645 23.3312C25.3176 23.8917 24.8916 24.825 24.8916 25.8374V26.1312H18.9178V25.8916C18.9178 24.8521 18.4647 23.8917 17.7178 23.3052C15.5314 21.625 14.5709 18.8522 15.2647 16.1325C15.8512 13.7055 17.8251 11.7856 20.2511 11.2265C22.3573 10.7202 24.5177 11.1994 26.1979 12.5067C27.851 13.8129 28.8114 15.7869 28.8114 17.893C28.7843 20.0513 27.7979 22.0241 26.0645 23.3316L26.0645 23.3312Z" fill="#4379BA"/>
<path d="M21.9315 13.9455C19.8513 13.9455 18.9179 15.4392 18.7315 16.7183C18.7044 16.8787 18.7586 17.038 18.8649 17.1714C18.9711 17.3047 19.1315 17.3849 19.2919 17.3849H20.0378C20.3044 17.3849 20.544 17.1714 20.5982 16.9047C20.6784 16.4245 20.9982 15.8381 21.9315 15.8381C22.6784 15.8381 22.9711 16.211 23.0784 16.4516C23.2388 16.7985 23.2117 17.1714 23.0252 17.4651C22.8117 17.7589 22.5982 17.9182 22.3586 18.0787C21.745 18.5057 21.2117 18.9849 21.1055 20.2922C21.1055 20.4526 21.1586 20.612 21.2659 20.7193C21.3721 20.8255 21.5326 20.9057 21.693 20.9057H22.4128C22.7065 20.9057 22.9732 20.6661 22.9732 20.3724C23.0003 19.8922 23.1065 19.812 23.4263 19.5995C23.72 19.386 24.12 19.1193 24.52 18.5599C25.1596 17.7068 25.2398 16.5871 24.7336 15.5994C24.2513 14.5578 23.1846 13.9453 21.9315 13.9453L21.9315 13.9455Z" fill="#4379BA"/>
<path d="M23.1565 22.7709C23.1565 24.2646 20.917 24.2646 20.917 22.7709C20.917 21.2782 23.1565 21.2782 23.1565 22.7709Z" fill="#4379BA"/>
</g>
<defs>
<clipPath id="clip0_1439_1785">
<rect width="26.6663" height="26.6663" fill="white" transform="translate(8.57129 8.18457)"/>
</clipPath>
</defs>
</svg>
