<svg width="475" height="405" viewBox="0 0 475 405" fill="none" xmlns="http://www.w3.org/2000/svg">
<g clip-path="url(#clip0_2916_5530)">
<path d="M456.376 237.641L399.294 104.886C387.962 78.5311 358.148 67.0419 333.635 79.9771L322.56 85.8304C318.582 87.9312 314.329 89.4638 309.925 90.3836L283.628 95.8684L175.428 118.437L146.936 124.38C142.056 125.397 137.063 125.759 132.088 125.454L118.062 124.597C86.2651 122.654 58.6537 147.688 58.055 179.603L54.9552 344.013C54.4346 371.512 74.5482 393.537 101.678 395.46C131.856 397.593 158.992 373.398 160.946 343.164L163.968 296.222C164.595 286.484 171.534 278.088 180.88 275.704L337.466 235.815C345.94 233.656 354.547 237.725 358.552 245.736L377.694 284.026C389.884 308.41 418.841 315.449 440.221 299.598C458.889 285.746 465.715 259.362 456.376 237.641Z" fill="url(#paint0_linear_2916_5530)"/>
<path style="mix-blend-mode:multiply" opacity="0.3" d="M297.805 169.112L210.244 189.738C202.45 191.575 194.57 185.652 192.681 176.496L180.487 117.402L295.979 93.2714L307.699 150.069C309.516 158.874 305.097 167.395 297.805 169.112Z" fill="url(#paint1_linear_2916_5530)"/>
<path style="mix-blend-mode:multiply" opacity="0.3" d="M394.417 272.584C392.006 262.297 395.833 255.953 391.518 240.363C389.497 233.075 383.762 212.359 367.705 204.489C352.316 196.951 334.827 204.822 312.208 215.003C283.062 228.121 285.754 235.194 264.919 242.578C234.542 253.34 220.432 241.278 199.158 253.334C188.559 259.342 181.377 268.401 176.44 277.387C177.853 276.667 179.341 276.104 180.877 275.708L337.465 235.815C345.94 233.656 354.547 237.725 358.552 245.736L377.693 284.026C387.586 303.813 408.518 312.177 427.483 306.157C404.409 294.557 396.713 282.383 394.417 272.584Z" fill="url(#paint2_linear_2916_5530)"/>
<path d="M176.913 179.373C182.213 205.058 165.632 230.898 139.527 237.177C113.024 243.55 86.8274 227.391 81.381 200.997C75.9345 174.603 93.4274 148.561 120.072 142.901C146.323 137.327 171.613 153.69 176.913 179.373Z" fill="url(#paint3_linear_2916_5530)"/>
<path d="M243.166 229.43C247.45 250.19 234.388 271.273 213.769 276.578C192.896 281.948 172.237 269.147 167.858 247.925C163.478 226.703 177.116 205.479 198.085 200.573C218.804 195.727 238.882 208.67 243.166 229.43Z" fill="url(#paint4_linear_2916_5530)"/>
<path d="M235.989 231.193C239.447 247.95 228.88 264.945 212.244 269.188C195.44 273.466 178.847 263.149 175.327 246.09C171.806 229.03 182.744 211.954 199.61 207.961C216.308 204.018 232.531 214.434 235.989 231.193Z" fill="url(#paint5_linear_2916_5530)"/>
<path d="M230.062 232.768C232.47 244.435 225.125 256.297 213.531 259.281C201.793 262.3 190.176 255.102 187.714 243.169C185.252 231.237 192.92 219.3 204.712 216.542C216.36 213.817 227.653 221.094 230.062 232.768Z" fill="url(#paint6_linear_2916_5530)"/>
<path d="M226.026 233.76C227.97 243.183 222.03 252.748 212.673 255.125C203.226 257.535 193.893 251.73 191.914 242.137C189.934 232.544 196.086 222.936 205.569 220.697C214.958 218.479 224.083 224.345 226.026 233.76Z" fill="url(#paint7_linear_2916_5530)"/>
<path d="M353.979 201.728C358.107 221.732 346.104 241.897 326.972 246.82C307.612 251.801 288.333 239.318 284.117 218.887C279.9 198.455 292.417 178.162 311.865 173.614C331.086 169.118 349.852 181.725 353.979 201.728Z" fill="url(#paint8_linear_2916_5530)"/>
<path d="M347.316 203.365C350.648 219.511 340.94 235.765 325.503 239.701C309.919 243.676 294.43 233.609 291.04 217.185C287.651 200.76 297.692 184.425 313.334 180.73C328.829 177.07 343.984 187.217 347.316 203.365Z" fill="url(#paint9_linear_2916_5530)"/>
<path d="M344.944 204.132C347.352 215.798 340.009 227.662 328.413 230.645C316.677 233.665 305.06 226.466 302.598 214.533C300.135 202.599 307.804 190.665 319.594 187.906C331.243 185.181 342.536 192.459 344.944 204.132Z" fill="url(#paint10_linear_2916_5530)"/>
<path d="M340.914 205.122C342.859 214.546 336.918 224.102 327.562 226.489C318.114 228.897 308.782 223.092 306.802 213.499C304.823 203.907 310.975 194.3 320.457 192.059C329.842 189.842 338.97 195.699 340.914 205.122Z" fill="url(#paint11_linear_2916_5530)"/>
<path d="M171.126 151.283C170.363 151.452 169.574 151.468 168.806 151.329C168.037 151.19 167.303 150.9 166.647 150.476C165.991 150.051 165.426 149.5 164.985 148.855C164.544 148.211 164.235 147.485 164.077 146.719L161.958 136.453C161.642 134.899 161.953 133.283 162.823 131.957C163.694 130.631 165.053 129.703 166.605 129.375C167.369 129.212 168.157 129.201 168.924 129.344C169.692 129.487 170.424 129.78 171.077 130.206C171.731 130.633 172.294 131.185 172.734 131.83C173.173 132.475 173.481 133.2 173.639 133.965L175.751 144.199C176.062 145.75 175.752 147.362 174.887 148.687C174.023 150.012 172.672 150.944 171.126 151.283Z" fill="#AA80F9"/>
<path d="M312.858 120.243C309.918 120.884 307.015 118.907 306.379 115.826L304.357 106.026C303.721 102.946 305.597 99.9432 308.541 99.3244C311.482 98.7046 314.373 100.691 315.006 103.761L317.023 113.532C317.66 116.596 315.807 119.6 312.858 120.243Z" fill="#AA80F9"/>
<path d="M127.783 154.858L117.73 157.031C114.767 157.672 112.849 160.555 113.451 163.472L115.817 174.934C116.03 175.972 116.552 176.921 117.314 177.657L123.245 183.377C123.891 183.994 124.681 184.441 125.543 184.677C126.405 184.914 127.312 184.933 128.184 184.732L129.179 184.509C130.059 184.311 130.878 183.904 131.567 183.321C132.255 182.738 132.793 181.997 133.133 181.162L136.245 173.453C136.645 172.471 136.744 171.392 136.531 170.353L134.18 158.959C134.033 158.268 133.751 157.612 133.349 157.031C132.947 156.45 132.433 155.954 131.838 155.572C131.243 155.191 130.578 154.931 129.882 154.809C129.186 154.686 128.472 154.703 127.783 154.858Z" fill="url(#paint12_linear_2916_5530)"/>
<path d="M141.835 222.957L131.823 225.326C128.871 226.025 125.988 224.227 125.385 221.303L123.021 209.845C122.807 208.797 122.908 207.709 123.311 206.718L126.457 198.943C126.798 198.104 127.337 197.36 128.027 196.774C128.717 196.187 129.538 195.775 130.421 195.573L131.415 195.346C132.282 195.143 133.186 195.158 134.045 195.392C134.904 195.625 135.692 196.07 136.336 196.684L142.21 202.358C142.965 203.087 143.482 204.028 143.693 205.057L146.044 216.453C146.646 219.355 144.764 222.265 141.835 222.957Z" fill="url(#paint13_linear_2916_5530)"/>
<path d="M93.8735 192.934L95.9374 202.936C96.5434 205.873 99.4673 207.696 102.464 207.009L114.192 204.318C115.253 204.074 116.223 203.531 116.986 202.753L122.911 196.713C123.544 196.075 124.011 195.291 124.27 194.43C124.529 193.569 124.572 192.657 124.396 191.775L124.193 190.791C124.014 189.921 123.617 189.11 123.04 188.435C122.463 187.76 121.724 187.242 120.892 186.931L113.115 183.995C112.104 183.617 111.006 183.541 109.953 183.778L98.2111 186.4C95.2117 187.073 93.2675 189.997 93.8735 192.934Z" fill="url(#paint14_linear_2916_5530)"/>
<path d="M162.998 177.391L165.02 187.191C165.297 188.591 165.017 190.043 164.241 191.241C163.465 192.438 162.253 193.286 160.862 193.605L149.444 196.225C148.412 196.463 147.333 196.392 146.342 196.021L138.664 193.119C137.838 192.809 137.103 192.294 136.53 191.622C135.957 190.951 135.563 190.145 135.386 189.281L135.183 188.299C135.007 187.422 135.049 186.515 135.306 185.658C135.563 184.801 136.026 184.021 136.655 183.385L142.504 177.423C143.252 176.659 144.206 176.129 145.249 175.895L156.681 173.343C157.362 173.185 158.068 173.165 158.757 173.284C159.446 173.403 160.104 173.659 160.692 174.036C161.281 174.413 161.788 174.904 162.184 175.48C162.58 176.057 162.857 176.706 162.998 177.391Z" fill="url(#paint15_linear_2916_5530)"/>
<path d="M130.132 154.885L120.08 157.059C117.117 157.699 115.199 160.583 115.801 163.499L118.166 174.962C118.38 176 118.902 176.948 119.665 177.684L125.594 183.403C126.24 184.02 127.03 184.467 127.892 184.704C128.754 184.941 129.662 184.96 130.533 184.76L131.53 184.536C132.409 184.338 133.228 183.93 133.916 183.347C134.605 182.765 135.142 182.024 135.482 181.189L138.594 173.481C138.993 172.498 139.093 171.42 138.881 170.381L136.53 158.987C136.383 158.295 136.1 157.64 135.698 157.058C135.296 156.477 134.783 155.981 134.188 155.599C133.593 155.218 132.928 154.958 132.232 154.835C131.535 154.713 130.822 154.73 130.132 154.885Z" fill="#AA80F9"/>
<path d="M144.186 222.992L134.174 225.362C131.224 226.06 128.339 224.261 127.736 221.338L125.371 209.877C125.157 208.829 125.259 207.741 125.663 206.75L128.807 198.976C129.148 198.137 129.687 197.392 130.377 196.806C131.067 196.219 131.888 195.807 132.771 195.605L133.766 195.377C134.633 195.174 135.537 195.19 136.396 195.424C137.255 195.658 138.042 196.102 138.686 196.716L144.56 202.39C145.315 203.12 145.832 204.061 146.043 205.089L148.394 216.485C149.001 219.388 147.116 222.299 144.186 222.992Z" fill="#AA80F9"/>
<path d="M96.2241 192.97L98.288 202.972C98.894 205.909 101.818 207.731 104.814 207.043L116.543 204.352C117.604 204.107 118.573 203.565 119.336 202.788L125.261 196.749C125.895 196.111 126.362 195.327 126.621 194.465C126.88 193.604 126.924 192.692 126.748 191.811L126.545 190.826C126.366 189.955 125.97 189.145 125.392 188.469C124.815 187.794 124.075 187.277 123.243 186.966L115.465 184.03C114.456 183.652 113.357 183.577 112.305 183.813L100.562 186.436C97.5623 187.108 95.619 190.038 96.2241 192.97Z" fill="#AA80F9"/>
<path d="M165.351 177.432L167.374 187.232C167.65 188.632 167.37 190.085 166.594 191.282C165.817 192.479 164.605 193.328 163.214 193.647L151.796 196.265C150.764 196.505 149.685 196.433 148.695 196.06L141.017 193.157C140.19 192.847 139.456 192.332 138.883 191.661C138.31 190.989 137.916 190.184 137.739 189.319L137.536 188.337C137.359 187.46 137.401 186.553 137.658 185.696C137.915 184.839 138.378 184.059 139.008 183.423L144.856 177.46C145.605 176.697 146.557 176.167 147.6 175.933L159.032 173.38C159.713 173.222 160.42 173.201 161.109 173.321C161.799 173.44 162.457 173.696 163.046 174.073C163.635 174.451 164.143 174.943 164.539 175.52C164.934 176.097 165.211 176.747 165.351 177.432Z" fill="#AA80F9"/>
<path d="M322.733 146.092C327.787 170.588 350.655 185.932 373.514 180.433C396.055 175.013 410.103 151.313 405.175 127.43C400.247 103.547 378.108 88.0395 355.441 92.8514C332.448 97.7389 317.679 121.602 322.733 146.092Z" fill="url(#paint16_linear_2916_5530)"/>
<path d="M369.279 106.863C370.547 113.005 366.891 119.018 361.097 120.3C355.303 121.581 349.516 117.62 348.241 111.438C346.965 105.257 350.668 99.2332 356.493 97.9875C362.317 96.7418 368.012 100.722 369.279 106.863Z" fill="url(#paint17_linear_2916_5530)"/>
<path d="M380.595 161.698C381.862 167.841 378.224 173.934 372.449 175.312C366.675 176.69 360.905 172.811 359.63 166.631C358.355 160.451 362.041 154.345 367.845 153.001C373.649 151.658 379.328 155.557 380.595 161.698Z" fill="url(#paint18_linear_2916_5530)"/>
<path d="M336.062 131.309C341.954 129.998 347.74 133.958 349.018 140.15C350.296 146.343 346.581 152.451 340.703 153.802C334.826 155.153 328.966 151.211 327.679 144.975C326.392 138.739 330.147 132.627 336.062 131.309Z" fill="url(#paint19_linear_2916_5530)"/>
<path d="M387.871 119.769C393.573 118.5 399.199 122.413 400.456 128.506C401.713 134.599 398.132 140.596 392.439 141.905C386.746 143.215 381.052 139.317 379.787 133.183C378.521 127.05 382.149 121.044 387.871 119.769Z" fill="url(#paint20_linear_2916_5530)"/>
<path d="M371.63 106.897C372.897 113.04 369.242 119.053 363.448 120.333C357.653 121.614 351.867 117.655 350.591 111.472C349.315 105.289 353.017 99.2672 358.843 98.0212C364.669 96.7752 370.363 100.756 371.63 106.897Z" fill="url(#paint21_linear_2916_5530)"/>
<path d="M382.945 161.734C384.213 167.875 380.574 173.968 374.8 175.347C369.026 176.727 363.256 172.847 361.98 166.665C360.705 160.483 364.39 154.381 370.196 153.035C376.001 151.69 381.678 155.593 382.945 161.734Z" fill="#AA80F9"/>
<path d="M338.404 131.344C344.296 130.03 350.082 133.992 351.36 140.184C352.638 146.377 348.925 152.485 343.046 153.838C337.167 155.19 331.308 151.246 330.021 145.011C328.735 138.777 332.499 132.663 338.404 131.344Z" fill="#AA80F9"/>
<path d="M390.222 119.804C395.923 118.533 401.55 122.446 402.808 128.539C404.065 134.632 400.483 140.631 394.79 141.939C389.096 143.246 383.404 139.35 382.139 133.218C380.874 127.086 384.501 121.078 390.222 119.804Z" fill="#AA80F9"/>
<path style="mix-blend-mode:multiply" opacity="0.3" d="M111.742 374.985C110.293 363.419 125.27 358.57 125.418 343.565C125.624 323.004 97.6255 318.371 95.596 296.739C93.6104 275.58 118.65 261.493 112.149 249.723C108.917 243.88 102.133 246.259 90.8344 239.587C74.9533 230.214 68.3741 213.703 66.6947 208.937C56.2438 179.274 75.9806 151.328 79.551 146.279C84.9854 138.604 91.7179 131.937 99.4452 126.577C76.188 133.086 58.5257 154.142 58.0465 179.593L54.9552 344.013C54.4346 371.512 74.5482 393.537 101.678 395.46C110.077 396.037 118.493 394.62 126.239 391.324C115.67 385.423 112.334 379.716 111.742 374.985Z" fill="url(#paint22_linear_2916_5530)"/>
<path style="mix-blend-mode:soft-light" opacity="0.3" d="M274.999 152.824C260.791 148.413 254.952 158.37 244.376 153.895C232.044 148.677 235.886 133.404 223.337 127.385C212.766 122.315 205.437 130.942 191.164 128.482C188.041 127.935 185.012 126.945 182.168 125.543L192.684 176.505C194.573 185.656 202.444 191.581 210.248 189.747L297.8 169.118C299.613 168.684 301.298 167.829 302.719 166.622C300.391 166.293 298.1 165.745 295.875 164.985C285.418 161.393 284.569 155.794 274.999 152.824Z" fill="url(#paint23_linear_2916_5530)"/>
<path d="M390.669 107.007C387.8 93.1004 372.731 84.8916 357.555 88.5405C348.912 90.6192 342.15 96.0982 338.618 102.87C338.598 102.911 338.578 102.954 338.555 102.996L338.38 103.357C338.272 103.573 338.167 103.791 338.066 104.01C338.007 104.141 337.947 104.27 337.89 104.402C337.796 104.619 337.703 104.838 337.614 105.059C337.564 105.184 337.512 105.31 337.463 105.437C337.365 105.691 337.273 105.946 337.185 106.201C337.152 106.294 337.117 106.385 337.08 106.481C336.964 106.829 336.857 107.175 336.756 107.521C336.73 107.614 336.707 107.707 336.683 107.802C336.612 108.063 336.543 108.327 336.481 108.591C336.451 108.72 336.424 108.851 336.399 108.981C336.348 109.214 336.302 109.447 336.259 109.683C336.235 109.818 336.209 109.954 336.181 110.093C336.142 110.333 336.107 110.574 336.075 110.814C336.058 110.941 336.04 111.066 336.026 111.194C335.991 111.496 335.962 111.799 335.941 112.103C335.936 112.167 335.928 112.231 335.923 112.293C335.901 112.66 335.886 113.028 335.88 113.397C335.878 113.504 335.88 113.614 335.879 113.722C335.88 113.984 335.881 114.248 335.89 114.514C335.895 114.648 335.902 114.782 335.908 114.917C335.921 115.161 335.936 115.398 335.959 115.65C335.97 115.787 335.982 115.924 335.995 116.06C336.022 116.318 336.054 116.574 336.089 116.831C336.114 116.949 336.121 117.071 336.139 117.19C336.197 117.564 336.261 117.939 336.339 118.314C338.18 127.238 345.211 133.998 354.182 136.537C355.007 136.772 355.848 136.97 356.707 137.131C357.135 137.212 357.568 137.285 358.004 137.35C361.191 137.794 364.429 137.729 367.596 137.158C368.048 137.079 368.496 136.988 368.94 136.89C369.096 136.858 369.236 136.818 369.387 136.784C369.679 136.714 369.972 136.643 370.261 136.566C370.437 136.52 370.611 136.466 370.787 136.417C371.044 136.343 371.3 136.269 371.551 136.189C371.737 136.132 371.92 136.068 372.105 136.007C372.343 135.927 372.583 135.845 372.818 135.759C373.006 135.691 373.193 135.62 373.379 135.548C373.606 135.461 373.829 135.372 374.057 135.278C374.243 135.201 374.43 135.122 374.615 135.04C374.834 134.944 375.051 134.846 375.265 134.744C375.45 134.658 375.633 134.57 375.815 134.481C376.027 134.377 376.236 134.271 376.445 134.163C376.624 134.069 376.802 133.975 376.98 133.879L377.178 133.775C387.057 128.288 392.882 117.729 390.669 107.007Z" fill="url(#paint24_linear_2916_5530)"/>
<path d="M388.57 107.444C391.432 121.315 380.921 134.818 365.619 137.514C350.895 140.106 337.189 131.64 334.517 118.691C331.845 105.741 341.072 92.5042 355.61 89.0081C370.71 85.3765 385.708 93.5723 388.57 107.444Z" fill="#F9A94A"/>
<path d="M355.916 99.3231L353.376 107.703L345.318 110.4C344.155 110.79 343.898 112.391 344.883 113.117L351.744 118.173L351.604 127.108C351.583 128.421 353.011 129.211 354.031 128.438L361.038 123.1L369.529 126.122C369.812 126.225 370.118 126.244 370.412 126.177C370.706 126.111 370.974 125.962 371.186 125.747C371.398 125.533 371.544 125.263 371.606 124.968C371.669 124.674 371.647 124.367 371.541 124.085L368.547 115.417L373.852 108.116C374.025 107.876 374.127 107.592 374.147 107.297C374.167 107.002 374.105 106.708 373.967 106.446C373.828 106.185 373.62 105.967 373.365 105.818C373.109 105.669 372.818 105.593 372.522 105.601L363.633 105.875L358.591 98.8165C357.863 97.8121 356.293 98.102 355.916 99.3231Z" fill="white"/>
<g style="mix-blend-mode:multiply" opacity="0.2">
<path style="mix-blend-mode:multiply" opacity="0.2" d="M370.986 130.113C366.188 123.531 368.139 116.132 362.724 112.392C357.309 108.652 352.446 114.189 345.594 111.71C342.965 110.759 339.836 108.549 336.771 103.29C334.325 107.988 333.415 113.346 334.519 118.696C337.191 131.645 350.896 140.111 365.621 137.519C368.965 136.935 372.189 135.796 375.158 134.149C373.547 133.052 372.136 131.687 370.986 130.113Z" fill="url(#paint25_linear_2916_5530)"/>
</g>
<path d="M324.136 68.7992C324.309 69.5208 324.443 70.251 324.537 70.9869C324.569 71.3048 324.627 71.6171 324.639 71.9211C324.669 72.5473 324.689 73.1693 324.66 73.7899C324.647 74.099 324.635 74.4081 324.611 74.7163C324.591 74.9198 324.574 75.1261 324.552 75.3319C323.977 80.1389 321.727 84.6721 318.252 88.4138C318.176 88.4943 318.105 88.5739 318.029 88.6513C316.805 89.9405 315.465 91.1138 314.026 92.1564L313.752 92.3508C313.106 92.8083 312.44 93.2448 311.751 93.6604C311.463 93.8351 311.155 94.0104 310.851 94.1705C310.649 94.2851 310.445 94.3954 310.237 94.5048C309.93 94.6676 309.617 94.8251 309.299 94.9774C309.089 95.079 308.876 95.1797 308.662 95.271C305.893 96.5363 302.966 97.4207 299.96 97.9002C299.729 97.9364 299.5 97.9724 299.271 98.0034C299.206 98.0169 299.137 98.0198 299.074 98.0295L299.018 98.0411C298.873 98.0597 298.728 98.0815 298.585 98.0964C298.51 98.1037 298.44 98.115 298.368 98.1217L297.892 98.1744L297.689 98.1887C297.531 98.2068 297.362 98.2222 297.199 98.2332L297.022 98.247L296.496 98.2826L296.362 98.2859C296.17 98.2996 295.979 98.3082 295.785 98.3141C295.759 98.3195 295.679 98.0602 295.656 98.0619C295.439 98.0676 295.16 97.7765 294.957 97.8185C293.205 98.18 291.406 97.9788 289.683 97.7165C289.683 97.7165 289.708 97.8409 289.708 97.8378C289.169 97.7576 288.65 97.7318 288.119 97.6142C287.65 97.5164 287.193 97.4404 286.735 97.3242C286.564 97.5215 286.369 97.7613 286.145 97.9956C282.63 97.2958 279.279 95.9401 276.266 93.9996C276.466 93.5626 276.653 93.1089 276.816 92.6472C272.556 89.428 269.536 85.0157 268.473 79.867C265.926 67.5209 275.427 54.7546 290.326 51.2098C290.813 51.0947 291.168 51.0181 291.652 50.9264C306.381 48.0817 320.733 55.2884 323.78 67.7666L323.898 68.3375C323.914 68.5109 324.103 68.6375 324.136 68.7992Z" fill="url(#paint26_linear_2916_5530)"/>
<path d="M322.252 69.1009C324.973 82.2854 314.318 95.0967 299.003 98.0625C298.65 98.1353 298.29 98.1948 297.93 98.2531C297.603 98.3059 297.276 98.354 296.95 98.3952C296.625 98.4364 296.284 98.4775 295.954 98.5116C295.887 98.5254 295.82 98.5279 295.75 98.5309C295.536 98.5524 295.326 98.573 295.113 98.5862C294.9 98.5993 294.693 98.6192 294.481 98.6274C294.179 98.6476 293.873 98.6604 293.572 98.6691L293.031 98.6817C291.249 98.7077 289.469 98.5869 287.707 98.3208C287.176 98.239 286.654 98.1471 286.137 98.0382C282.622 97.3357 279.27 95.9774 276.257 94.0344C271.225 90.7604 267.627 85.9467 266.446 80.224C263.899 67.8779 273.4 55.1116 288.299 51.5668C289.444 51.2924 290.603 51.0787 291.77 50.9267C304.143 49.2916 315.846 54.6691 320.536 64.1274C320.655 64.3656 320.768 64.6051 320.878 64.8483C320.914 64.9269 320.946 65.0061 320.981 65.085C321.064 65.2786 321.15 65.4734 321.228 65.6697C321.343 65.959 321.453 66.2509 321.556 66.5459C321.556 66.5459 321.556 66.5459 321.559 66.5614C321.597 66.6721 321.637 66.7871 321.671 66.8984C321.719 67.0392 321.763 67.1794 321.803 67.3203C321.844 67.4611 321.899 67.6346 321.94 67.7917C321.949 67.8383 321.96 67.8912 321.981 67.9356C322.03 68.1185 322.075 68.3005 322.116 68.4834C322.157 68.6663 322.209 68.894 322.252 69.1009Z" fill="url(#paint27_linear_2916_5530)"/>
<path d="M322.252 69.1009C324.973 82.2854 314.318 95.0967 299.003 98.0625C298.65 98.1353 298.29 98.1948 297.93 98.2531C297.603 98.3059 297.276 98.354 296.95 98.3952C296.625 98.4364 296.284 98.4775 295.954 98.5116C295.887 98.5254 295.82 98.5279 295.75 98.5309C295.536 98.5524 295.326 98.573 295.113 98.5862C294.9 98.5993 294.693 98.6192 294.481 98.6274C294.179 98.6476 293.873 98.6604 293.572 98.6691L293.031 98.6817C291.249 98.7077 289.469 98.5869 287.707 98.3208C287.176 98.239 286.654 98.1471 286.137 98.0382C282.622 97.3357 279.27 95.9774 276.257 94.0344C271.225 90.7604 267.627 85.9467 266.446 80.224C263.899 67.8779 273.4 55.1116 288.299 51.5668C289.444 51.2924 290.603 51.0787 291.77 50.9267C304.143 49.2916 315.846 54.6691 320.536 64.1274C320.655 64.3656 320.768 64.6051 320.878 64.8483C320.914 64.9269 320.946 65.0061 320.981 65.085C321.064 65.2786 321.15 65.4734 321.228 65.6697C321.343 65.959 321.453 66.2509 321.556 66.5459C321.556 66.5459 321.556 66.5459 321.559 66.5614C321.597 66.6721 321.637 66.7871 321.671 66.8984C321.719 67.0392 321.763 67.1794 321.803 67.3203C321.844 67.4611 321.899 67.6346 321.94 67.7917C321.949 67.8383 321.96 67.8912 321.981 67.9356C322.03 68.1185 322.075 68.3005 322.116 68.4834C322.157 68.6663 322.209 68.894 322.252 69.1009Z" fill="#FF9085"/>
<path d="M276.554 71.8118C277.019 68.3653 279.358 65.476 282.677 64.7505C287.059 63.7912 291.475 66.9586 292.482 71.8367C291.475 66.9586 294.299 62.2064 298.849 61.2092C302.38 60.4367 305.924 62.1495 307.856 65.2504C315.112 76.3882 296.509 91.3132 296.509 91.3132C296.509 91.3132 274.663 84.0797 276.554 71.8118Z" fill="white"/>
<g style="mix-blend-mode:multiply" opacity="0.3">
<path style="mix-blend-mode:multiply" opacity="0.3" d="M289.976 93.4477C291.885 86.0234 287.217 80.2565 290.784 74.9553C294.462 69.4932 301.433 72.4902 307.351 67.3752C309.672 65.3684 312.031 61.9382 313.039 55.6486C317.736 58.8878 321.111 63.5238 322.261 69.0972C325.045 82.5881 313.825 95.6914 297.938 98.2463C294.552 98.799 291.1 98.8225 287.706 98.3159C288.755 96.8464 289.525 95.1961 289.976 93.4477Z" fill="url(#paint28_linear_2916_5530)"/>
</g>
<path d="M353.153 11.4139C365.353 9.28388 377.062 14.5888 380.98 23.545C380.982 23.5575 380.985 23.5699 380.987 23.5824C381.197 24.0743 381.387 24.5758 381.556 25.0868C381.563 25.1211 381.578 25.1537 381.588 25.1888C381.663 25.4279 381.734 25.6695 381.799 25.9139C381.809 25.959 381.818 26.0026 381.827 26.0477C381.891 26.2971 381.952 26.5491 382.004 26.8042C384.251 37.6928 374.84 48.2301 361.168 50.3279C360.805 50.3834 360.442 50.4308 360.08 50.4748L359.973 50.4869C359.63 50.527 359.288 50.5587 358.946 50.587L358.787 50.5988C358.457 50.6247 358.127 50.6446 357.798 50.6584L357.612 50.6661C357.29 50.679 356.967 50.6856 356.644 50.6892L356.449 50.6888C356.125 50.6908 355.807 50.6867 355.494 50.6766L355.31 50.6693C354.996 50.6578 354.68 50.637 354.369 50.6217L354.204 50.6087C353.922 50.587 353.641 50.5621 353.363 50.5341L353.15 50.5133C352.868 50.4823 352.586 50.4463 352.304 50.4088L352.123 50.3862C342.461 48.9986 334.633 43.003 332.948 34.8381C330.775 24.2279 339.736 13.7559 353.153 11.4139Z" fill="url(#paint29_linear_2916_5530)"/>
<path d="M330.397 35.3661C332.586 45.9716 345.142 52.9199 358.617 50.8594C372.294 48.7668 381.699 38.2226 379.452 27.3356C377.206 16.4485 364.201 9.57188 350.587 11.9482C337.169 14.2855 328.208 24.7575 330.397 35.3661Z" fill="#E38DDD"/>
<path d="M345.052 28.8603C345.694 31.9713 350.847 38.6323 354.409 42.9475C355.891 44.7498 358.729 44.3005 359.403 42.1601C361.031 37.0012 363.236 29.0941 362.588 25.9505C361.586 21.0988 356.824 17.8422 351.974 18.6711C347.149 19.4948 344.06 24.0553 345.052 28.8603ZM349.082 28.1909C348.95 27.5848 348.943 26.9582 349.062 26.3494C349.181 25.7406 349.422 25.1625 349.772 24.6501C350.121 24.1378 350.572 23.7022 351.095 23.3698C351.619 23.0374 352.205 22.8153 352.817 22.7169C354.086 22.5158 355.383 22.8093 356.442 23.537C357.5 24.2646 358.239 25.3708 358.506 26.6273C358.638 27.2348 358.645 27.8629 358.525 28.473C358.406 29.0832 358.163 29.6625 357.812 30.1754C357.461 30.6884 357.008 31.1241 356.483 31.4558C355.957 31.7875 355.369 32.0083 354.755 32.1045C353.488 32.3008 352.194 32.0046 351.139 31.2767C350.084 30.5489 349.348 29.4447 349.082 28.1909Z" fill="white"/>
<g style="mix-blend-mode:multiply" opacity="0.3">
<path style="mix-blend-mode:multiply" opacity="0.3" d="M351.649 46.8251C353.412 40.6231 349.329 35.7488 352.549 31.395C355.832 26.9518 361.863 29.5929 366.971 25.5565C368.954 23.9895 370.966 21.2828 371.841 16.2449C375.747 19.0068 378.523 22.8321 379.45 27.3245C381.697 38.2131 372.286 48.7504 358.614 50.8482C355.618 51.3111 352.571 51.3307 349.569 50.9065C350.514 49.6895 351.219 48.3046 351.649 46.8251Z" fill="url(#paint30_linear_2916_5530)"/>
</g>
<path d="M166.212 152.004C166.212 152.004 159.421 149.628 154.654 144.603C158.596 137.402 160.051 129.308 158.302 121.415C154.089 102.499 132.717 90.5883 109.588 95.0091C85.9308 99.5324 69.3132 119.284 72.7169 139.41L72.7211 139.43C72.7631 139.681 72.8098 139.931 72.8581 140.181C72.8654 140.216 72.8731 140.254 72.8805 140.289C72.9309 140.534 72.9816 140.779 73.0323 141.025C73.282 142.143 73.5914 143.246 73.9593 144.33C74.1147 144.785 74.281 145.245 74.4566 145.687C74.8099 146.587 75.201 147.464 75.6298 148.316C75.8442 148.742 76.0678 149.162 76.3004 149.577C76.4551 149.855 76.6139 150.13 76.7767 150.4C80.6115 156.778 86.6288 161.709 93.8639 164.776L94.3286 164.969C96.8565 166.002 99.474 166.801 102.148 167.355L102.656 167.459C103.851 167.694 105.065 167.883 106.296 168.028C106.823 168.09 107.353 168.143 107.885 168.187C108.242 168.221 108.598 168.247 108.954 168.265C109.49 168.299 110.028 168.324 110.568 168.339C110.929 168.348 111.291 168.355 111.652 168.358C116.334 168.385 120.998 167.779 125.518 166.554C125.862 166.463 126.205 166.367 126.546 166.266L126.843 166.177C127.085 166.104 127.328 166.032 127.567 165.956L127.888 165.853L128.586 165.626L128.889 165.523L129.606 165.273L129.859 165.18C130.114 165.087 130.367 164.993 130.62 164.897L130.812 164.821C131.088 164.715 131.363 164.604 131.637 164.489L131.747 164.443C132.056 164.316 132.363 164.187 132.667 164.057C135.183 162.971 137.605 161.679 139.909 160.195L139.898 160.189C141.226 159.328 142.497 158.414 143.71 157.445C147.553 159.305 157.001 162.163 166.212 152.004Z" fill="#2C4419"/>
<path d="M161.326 120.604C165.539 139.52 151.297 159.621 128.547 165.751C104.658 172.187 80.6617 160.888 76.0581 140.214C71.4546 119.539 88.3232 98.842 112.62 94.1965C135.742 89.777 157.112 101.684 161.326 120.604Z" fill="url(#paint31_linear_2916_5530)"/>
<path d="M161.326 120.604C165.539 139.52 151.297 159.621 128.547 165.751C104.658 172.187 80.6617 160.888 76.0581 140.214C71.4546 119.539 88.3232 98.842 112.62 94.1965C135.742 89.777 157.112 101.684 161.326 120.604Z" fill="#33A969"/>
<path d="M144.939 155.636C144.939 155.636 157.284 164.378 169.244 151.192C169.244 151.192 156.323 146.67 153.617 136.913L144.939 155.636Z" fill="#33A969"/>
<g style="mix-blend-mode:multiply" opacity="0.3">
<path style="mix-blend-mode:multiply" opacity="0.3" d="M136.675 154.004C129.315 144.798 132.227 133.766 123.881 128.588C115.278 123.242 107.396 131.847 95.872 128.406C91.3508 127.056 85.8778 123.733 80.5091 115.548C75.9644 123.051 74.1577 131.68 76.0595 140.22C80.663 160.895 104.659 172.193 128.548 165.757C133.645 164.397 138.5 162.253 142.938 159.401C140.536 158.003 138.413 156.173 136.675 154.004Z" fill="url(#paint32_linear_2916_5530)"/>
</g>
<path d="M101.277 143.445C101.065 143.489 100.845 143.468 100.646 143.386C100.446 143.304 100.276 143.164 100.156 142.984C98.477 140.461 97.3013 137.637 96.6939 134.668C94.0599 121.904 102.302 109.376 115.066 106.742C118.692 106.002 122.441 106.12 126.013 107.086C129.586 108.052 132.883 109.84 135.641 112.306C135.845 112.5 135.966 112.766 135.977 113.047C135.988 113.329 135.89 113.603 135.702 113.813C135.514 114.022 135.252 114.15 134.971 114.17C134.69 114.189 134.413 114.098 134.198 113.916C131.691 111.674 128.696 110.049 125.45 109.17C122.204 108.291 118.797 108.183 115.502 108.855C103.906 111.247 96.4186 122.63 98.8116 134.226C99.3633 136.924 100.431 139.489 101.957 141.782C102.115 142.021 102.173 142.313 102.116 142.594C102.059 142.875 101.893 143.122 101.655 143.281C101.54 143.36 101.412 143.415 101.277 143.445Z" fill="white"/>
<path d="M131.845 115.044C131.709 115.074 131.568 115.076 131.43 115.052C131.293 115.027 131.161 114.975 131.044 114.9C130.926 114.824 130.825 114.726 130.745 114.612C130.665 114.497 130.609 114.368 130.579 114.231C130.549 114.094 130.547 113.953 130.571 113.816C130.596 113.678 130.648 113.547 130.723 113.429C130.799 113.312 130.897 113.21 131.011 113.13C131.126 113.051 131.255 112.994 131.392 112.965L134.026 112.367L133.923 109.585C133.913 109.298 134.017 109.019 134.213 108.809C134.409 108.599 134.68 108.475 134.966 108.465C135.253 108.455 135.532 108.559 135.742 108.755C135.952 108.95 136.076 109.221 136.086 109.508L136.221 113.188C136.228 113.437 136.148 113.681 135.993 113.877C135.839 114.074 135.621 114.209 135.376 114.26L131.863 115.041L131.845 115.044Z" fill="white"/>
<path d="M124.62 153.041C121.11 153.775 117.478 153.696 114.003 152.811C110.527 151.926 107.301 150.258 104.569 147.934C104.35 147.749 104.213 147.484 104.19 147.198C104.166 146.912 104.256 146.629 104.442 146.409C104.627 146.19 104.892 146.054 105.178 146.03C105.464 146.006 105.748 146.097 105.967 146.282C108.448 148.394 111.38 149.91 114.537 150.715C117.694 151.52 120.994 151.592 124.183 150.925C135.781 148.532 143.268 137.15 140.876 125.553C140.391 123.19 139.511 120.926 138.272 118.856C138.125 118.61 138.081 118.315 138.151 118.037C138.221 117.758 138.399 117.519 138.645 117.372C138.891 117.225 139.186 117.181 139.464 117.251C139.742 117.321 139.981 117.498 140.129 117.745C141.492 120.023 142.461 122.515 142.994 125.116C145.627 137.877 137.386 150.406 124.62 153.041Z" fill="white"/>
<path d="M104.817 151.164C104.746 151.179 104.674 151.186 104.601 151.186C104.315 151.187 104.04 151.074 103.836 150.873C103.633 150.672 103.517 150.398 103.515 150.112L103.498 146.502C103.497 146.252 103.581 146.008 103.738 145.813C103.894 145.617 104.114 145.481 104.359 145.428L104.371 145.426L107.987 144.731C108.265 144.688 108.549 144.753 108.779 144.915C109.009 145.076 109.168 145.321 109.222 145.597C109.276 145.873 109.22 146.159 109.068 146.395C108.915 146.631 108.676 146.799 108.402 146.862L105.667 147.398L105.678 150.102C105.679 150.351 105.593 150.593 105.437 150.786C105.28 150.98 105.061 151.113 104.817 151.164Z" fill="white"/>
<path d="M119.997 141.525C119.654 141.595 119.297 141.57 118.967 141.45L110.992 138.571C110.744 138.497 110.513 138.373 110.314 138.207C110.115 138.041 109.952 137.835 109.835 137.604C109.718 137.372 109.649 137.119 109.634 136.86C109.618 136.601 109.655 136.342 109.743 136.098C109.831 135.854 109.968 135.63 110.146 135.441C110.323 135.252 110.537 135.101 110.775 134.997C111.013 134.894 111.27 134.84 111.529 134.839C111.788 134.838 112.045 134.89 112.284 134.992L118.732 137.32L128.498 119.635C128.755 119.218 129.163 118.917 129.636 118.792C130.11 118.668 130.613 118.731 131.042 118.968C131.47 119.204 131.791 119.597 131.938 120.064C132.085 120.53 132.047 121.036 131.831 121.476L121.28 140.581C121.147 140.821 120.963 141.03 120.742 141.193C120.521 141.356 120.267 141.469 119.997 141.525Z" fill="white"/>
</g>
<defs>
<linearGradient id="paint0_linear_2916_5530" x1="129.194" y1="115.789" x2="351.243" y2="380.79" gradientUnits="userSpaceOnUse">
<stop stop-color="#444B8C"/>
<stop offset="1" stop-color="#26264F"/>
</linearGradient>
<linearGradient id="paint1_linear_2916_5530" x1="188.225" y1="154.904" x2="303.777" y2="131.06" gradientUnits="userSpaceOnUse">
<stop stop-color="#40447E"/>
<stop offset="1" stop-color="#3C3B6B"/>
</linearGradient>
<linearGradient id="paint2_linear_2916_5530" x1="341.353" y1="229.869" x2="403.702" y2="132.143" gradientUnits="userSpaceOnUse">
<stop stop-color="#444B8C"/>
<stop offset="1" stop-color="#26264F"/>
</linearGradient>
<linearGradient id="paint3_linear_2916_5530" x1="165.157" y1="228.512" x2="77.057" y2="134.797" gradientUnits="userSpaceOnUse">
<stop stop-color="#444B8C"/>
<stop offset="1" stop-color="#26264F"/>
</linearGradient>
<linearGradient id="paint4_linear_2916_5530" x1="167.565" y1="246.508" x2="243.459" y2="230.847" gradientUnits="userSpaceOnUse">
<stop stop-color="#444B8C"/>
<stop offset="1" stop-color="#26264F"/>
</linearGradient>
<linearGradient id="paint5_linear_2916_5530" x1="185.745" y1="176.649" x2="197.986" y2="214.756" gradientUnits="userSpaceOnUse">
<stop stop-color="#444B8C"/>
<stop offset="1" stop-color="#26264F"/>
</linearGradient>
<linearGradient id="paint6_linear_2916_5530" x1="207.289" y1="221.284" x2="213.725" y2="288.449" gradientUnits="userSpaceOnUse">
<stop stop-color="#444B8C"/>
<stop offset="1" stop-color="#26264F"/>
</linearGradient>
<linearGradient id="paint7_linear_2916_5530" x1="204.241" y1="213.624" x2="215.214" y2="270.069" gradientUnits="userSpaceOnUse">
<stop stop-color="#444B8C"/>
<stop offset="1" stop-color="#26264F"/>
</linearGradient>
<linearGradient id="paint8_linear_2916_5530" x1="283.845" y1="217.572" x2="354.251" y2="203.044" gradientUnits="userSpaceOnUse">
<stop stop-color="#444B8C"/>
<stop offset="1" stop-color="#26264F"/>
</linearGradient>
<linearGradient id="paint9_linear_2916_5530" x1="296.91" y1="140.945" x2="309.149" y2="179.052" gradientUnits="userSpaceOnUse">
<stop stop-color="#444B8C"/>
<stop offset="1" stop-color="#26264F"/>
</linearGradient>
<linearGradient id="paint10_linear_2916_5530" x1="322.171" y1="192.648" x2="328.608" y2="259.814" gradientUnits="userSpaceOnUse">
<stop stop-color="#444B8C"/>
<stop offset="1" stop-color="#26264F"/>
</linearGradient>
<linearGradient id="paint11_linear_2916_5530" x1="319.125" y1="184.988" x2="330.097" y2="241.432" gradientUnits="userSpaceOnUse">
<stop stop-color="#444B8C"/>
<stop offset="1" stop-color="#26264F"/>
</linearGradient>
<linearGradient id="paint12_linear_2916_5530" x1="182.952" y1="204.429" x2="169.121" y2="195.718" gradientUnits="userSpaceOnUse">
<stop stop-color="#AA80F9"/>
<stop offset="1" stop-color="#6165D7"/>
</linearGradient>
<linearGradient id="paint13_linear_2916_5530" x1="165.701" y1="231.822" x2="151.87" y2="223.111" gradientUnits="userSpaceOnUse">
<stop stop-color="#AA80F9"/>
<stop offset="1" stop-color="#6165D7"/>
</linearGradient>
<linearGradient id="paint14_linear_2916_5530" x1="165.664" y1="231.879" x2="151.833" y2="223.169" gradientUnits="userSpaceOnUse">
<stop stop-color="#AA80F9"/>
<stop offset="1" stop-color="#6165D7"/>
</linearGradient>
<linearGradient id="paint15_linear_2916_5530" x1="182.874" y1="204.552" x2="169.043" y2="195.841" gradientUnits="userSpaceOnUse">
<stop stop-color="#AA80F9"/>
<stop offset="1" stop-color="#6165D7"/>
</linearGradient>
<linearGradient id="paint16_linear_2916_5530" x1="397.717" y1="172.81" x2="303.935" y2="72.7655" gradientUnits="userSpaceOnUse">
<stop stop-color="#444B8C"/>
<stop offset="1" stop-color="#26264F"/>
</linearGradient>
<linearGradient id="paint17_linear_2916_5530" x1="427.495" y1="154.37" x2="408.507" y2="141.88" gradientUnits="userSpaceOnUse">
<stop stop-color="#AA80F9"/>
<stop offset="1" stop-color="#6165D7"/>
</linearGradient>
<linearGradient id="paint18_linear_2916_5530" x1="405.664" y1="187.554" x2="386.677" y2="175.062" gradientUnits="userSpaceOnUse">
<stop stop-color="#AA80F9"/>
<stop offset="1" stop-color="#6165D7"/>
</linearGradient>
<linearGradient id="paint19_linear_2916_5530" x1="405.983" y1="187.067" x2="386.997" y2="174.576" gradientUnits="userSpaceOnUse">
<stop stop-color="#AA80F9"/>
<stop offset="1" stop-color="#6165D7"/>
</linearGradient>
<linearGradient id="paint20_linear_2916_5530" x1="427.008" y1="155.112" x2="408.021" y2="142.621" gradientUnits="userSpaceOnUse">
<stop stop-color="#AA80F9"/>
<stop offset="1" stop-color="#6165D7"/>
</linearGradient>
<linearGradient id="paint21_linear_2916_5530" x1="368.035" y1="122.251" x2="416.41" y2="213.537" gradientUnits="userSpaceOnUse">
<stop stop-color="#AA80F9"/>
<stop offset="1" stop-color="#6165D7"/>
</linearGradient>
<linearGradient id="paint22_linear_2916_5530" x1="34.9253" y1="194.778" x2="256.975" y2="459.78" gradientUnits="userSpaceOnUse">
<stop stop-color="#444B8C"/>
<stop offset="1" stop-color="#26264F"/>
</linearGradient>
<linearGradient id="paint23_linear_2916_5530" x1="189.094" y1="159.113" x2="304.645" y2="135.269" gradientUnits="userSpaceOnUse">
<stop stop-color="#AA80F9"/>
<stop offset="1" stop-color="#6165D7"/>
</linearGradient>
<linearGradient id="paint24_linear_2916_5530" x1="312.507" y1="47.7064" x2="369.214" y2="119.908" gradientUnits="userSpaceOnUse">
<stop stop-color="#FFC444"/>
<stop offset="1" stop-color="#F36F56"/>
</linearGradient>
<linearGradient id="paint25_linear_2916_5530" x1="337.291" y1="102.707" x2="390.8" y2="170.836" gradientUnits="userSpaceOnUse">
<stop stop-color="#FFC444"/>
<stop offset="1" stop-color="#F36F56"/>
</linearGradient>
<linearGradient id="paint26_linear_2916_5530" x1="315.77" y1="-34.0725" x2="275.364" y2="191.812" gradientUnits="userSpaceOnUse">
<stop stop-color="#311944"/>
<stop offset="1" stop-color="#893976"/>
</linearGradient>
<linearGradient id="paint27_linear_2916_5530" x1="280.011" y1="57.5342" x2="333.111" y2="120.837" gradientUnits="userSpaceOnUse">
<stop stop-color="#FF9085"/>
<stop offset="1" stop-color="#FB6FBB"/>
</linearGradient>
<linearGradient id="paint28_linear_2916_5530" x1="311.859" y1="55.2029" x2="289.803" y2="138.51" gradientUnits="userSpaceOnUse">
<stop stop-color="#FF9085"/>
<stop offset="1" stop-color="#FB6FBB"/>
</linearGradient>
<linearGradient id="paint29_linear_2916_5530" x1="331.58" y1="30.0769" x2="370.187" y2="31.1774" gradientUnits="userSpaceOnUse">
<stop stop-color="#311944"/>
<stop offset="1" stop-color="#893976"/>
</linearGradient>
<linearGradient id="paint30_linear_2916_5530" x1="370.247" y1="15.7095" x2="352.127" y2="84.1532" gradientUnits="userSpaceOnUse">
<stop stop-color="#FF9085"/>
<stop offset="1" stop-color="#FB6FBB"/>
</linearGradient>
<linearGradient id="paint31_linear_2916_5530" x1="96.3239" y1="104.566" x2="178.848" y2="199.895" gradientUnits="userSpaceOnUse">
<stop stop-color="#FF9085"/>
<stop offset="1" stop-color="#FB6FBB"/>
</linearGradient>
<linearGradient id="paint32_linear_2916_5530" x1="81.8655" y1="114.108" x2="165.316" y2="217.022" gradientUnits="userSpaceOnUse">
<stop stop-color="#FF9085"/>
<stop offset="1" stop-color="#FB6FBB"/>
</linearGradient>
<clipPath id="clip0_2916_5530">
<rect width="417" height="327.281" fill="white" transform="translate(0 84.2734) rotate(-11.6595)"/>
</clipPath>
</defs>
</svg>
