<svg width="24" height="24" viewBox="0 0 24 24" fill="none" xmlns="http://www.w3.org/2000/svg">
<path d="M20.0004 4.48944L18.5404 4.33944C14.172 3.88946 9.76884 3.88946 5.4004 4.33944L4.0004 4.48944C2.27191 4.6848 0.973952 6.16015 1.0004 7.89944V16.0994C0.973952 17.8387 2.27191 19.3141 4.0004 19.5094L5.4604 19.6594C9.82884 20.1094 14.232 20.1094 18.6004 19.6594L20.0004 19.5094C21.7289 19.3141 23.0268 17.8387 23.0004 16.0994V7.89944C23.0268 6.16015 21.7289 4.6848 20.0004 4.48944ZM15.0004 12.6194L11.1104 15.2194C10.8839 15.3438 10.6093 15.3428 10.3837 15.2168C10.1581 15.0908 10.0133 14.8575 10.0004 14.5994V9.39944C10.0009 9.12223 10.1543 8.8679 10.3992 8.7381C10.6442 8.6083 10.9407 8.6242 11.1704 8.77944L15.0604 11.3794C15.27 11.516 15.3964 11.7493 15.3964 11.9994C15.3964 12.2496 15.27 12.4829 15.0604 12.6194H15.0004Z" fill="#566B8D"/>
</svg>
