<svg width="43" height="44" viewBox="0 0 43 44" fill="none" xmlns="http://www.w3.org/2000/svg">
<rect opacity="0.4" y="0.998047" width="42.8565" height="42.8565" rx="7.61893" fill="#DDECFB"/>
<ellipse cx="21.7426" cy="15.2539" rx="3.14102" ry="3.19043" fill="white"/>
<path d="M27.4996 24.8264C27.4996 27.7632 30.1165 31.2075 21.7408 31.2075C13.3651 31.2075 15.9832 27.7632 15.9832 24.8264C15.9832 21.8896 18.8503 19.5088 21.7415 19.5088C24.6327 19.5088 27.4996 21.8896 27.4996 24.8264Z" fill="white"/>
<path d="M21.7416 11C19.2463 11 17.2046 13.0509 17.2046 15.5577C17.2046 17.0175 17.8994 18.3208 18.9722 19.1564C18.2456 19.4662 17.5815 19.897 16.9967 20.4192C16.5159 20.0287 15.9665 19.7166 15.371 19.5077C16.1118 18.951 16.5997 18.068 16.5997 17.0769C16.5997 15.4094 15.2351 14.0385 13.5751 14.0385C11.9151 14.0385 10.5504 15.4094 10.5504 17.0769C10.5504 18.0704 11.036 18.9617 11.7792 19.5172C9.6584 20.2673 8.13086 22.298 8.13086 24.6825V27.8917C8.13086 28.2822 8.37779 28.63 8.74523 28.7558C9.83223 29.1344 13.2207 29.4895 14.4827 29.5916C14.9837 29.6331 15.4244 29.2593 15.4658 28.756C15.5071 28.2528 15.1349 27.8101 14.634 27.7685C13.7478 27.6973 10.7197 27.4205 9.94577 27.1986V24.6824C9.94577 22.6409 11.5503 21.0268 13.5754 21.0268C14.4201 21.0268 15.1846 21.3153 15.7966 21.7959C14.9719 23.0101 14.4827 24.4819 14.4827 26.0686V30.3036C14.4851 30.6881 14.7273 31.0299 15.0877 31.1581C17.0773 31.8703 19.34 32.269 21.7419 32.269C24.1438 32.269 26.4065 31.8691 28.3961 31.1581C28.7565 31.0299 28.9987 30.6881 29.0011 30.3036V29.506C29.3012 29.5238 29.6025 29.5345 29.9085 29.5345C31.6488 29.5345 33.2876 29.2615 34.7385 28.7559C35.106 28.6301 35.3529 28.2823 35.3529 27.8918V24.6826C35.3529 22.2981 33.8252 20.2674 31.7046 19.5172C32.4477 18.9618 32.9333 18.0704 32.9333 17.077C32.9333 15.4094 31.5687 14.0386 29.9087 14.0386C28.2487 14.0386 26.884 15.4094 26.884 17.077C26.884 18.0716 27.3685 18.9618 28.1128 19.5172C27.5185 19.7261 26.9679 20.0324 26.487 20.4193C25.9022 19.8971 25.2382 19.4662 24.5116 19.1565C25.5844 18.3209 26.2791 17.0177 26.2791 15.5577C26.2791 13.051 24.2369 11 21.7416 11ZM21.7416 12.8231C23.2563 12.8231 24.4638 14.0361 24.4638 15.5577C24.4638 17.0792 23.2563 18.2923 21.7416 18.2923C20.2269 18.2923 19.0194 17.0792 19.0194 15.5577C19.0194 14.0361 20.2269 12.8231 21.7416 12.8231ZM13.5751 15.8615C14.2544 15.8615 14.7849 16.3944 14.7849 17.0769C14.7849 17.7593 14.2544 18.2923 13.5751 18.2923C12.8957 18.2923 12.3652 17.7593 12.3652 17.0769C12.3652 16.3944 12.8957 15.8615 13.5751 15.8615ZM29.9082 15.8615C30.5875 15.8615 31.118 16.3944 31.118 17.0769C31.118 17.7593 30.5875 18.2923 29.9082 18.2923C29.2288 18.2923 28.6983 17.7593 28.6983 17.0769C28.6983 16.3944 29.2288 15.8615 29.9082 15.8615ZM21.7416 20.4192C24.7604 20.4192 27.186 22.9116 27.186 26.0688V29.5916C25.5413 30.1091 23.7125 30.4462 21.7416 30.4462C19.7707 30.4462 17.942 30.1091 16.2972 29.5916V26.0688C16.2972 22.9128 18.7229 20.4192 21.7416 20.4192ZM29.9082 21.0268C31.9333 21.0268 33.5378 22.641 33.5378 24.6824V27.1796C32.4319 27.4989 31.2232 27.7114 29.9082 27.7114C29.6033 27.7114 29.3009 27.6947 29.0008 27.6734V26.0687C29.0008 24.4818 28.5116 23.0114 27.6869 21.7961C28.3001 21.3177 29.0657 21.0268 29.9082 21.0268Z" fill="#4379BA"/>
</svg>
