<svg width="43" height="44" viewBox="0 0 43 44" fill="none" xmlns="http://www.w3.org/2000/svg">
<rect opacity="0.4" y="0.998047" width="42.8565" height="42.8565" rx="7.61893" fill="#DDECFB"/>
<ellipse cx="21.9037" cy="21.4736" rx="5.7142" ry="6.19038" fill="white"/>
<path d="M26.0236 27.4108C25.9952 27.4026 25.9757 27.3743 25.9766 27.3428V26.3778C26.5192 25.646 26.9247 24.8148 27.1725 23.9279C27.7865 23.2974 28.0598 22.301 28.2077 21.7638C28.4584 20.892 28.6866 19.628 28.0275 18.7228L27.9971 18.6812C28.3154 17.0959 28.7121 13.3484 25.961 11.4489C26.2842 11.1084 26.4585 10.6472 26.4448 10.1697C26.4428 10.1241 26.4213 10.0805 26.387 10.0501C26.3527 10.0217 26.3086 10.0076 26.2646 10.0116C26.2293 10.0116 22.7898 10.416 21.1325 10.0613C19.4323 9.69534 17.5627 11.0313 17.1786 12.3967C16.5361 12.4839 15.9524 12.8255 15.5489 13.3485C14.7967 14.3064 14.5685 15.8339 14.8643 17.8816C14.8839 18.1411 14.9142 18.4005 14.9593 18.66L14.9289 18.6986C14.2698 19.6017 14.5098 20.8657 14.7487 21.7395C14.8966 22.2768 15.1679 23.2732 15.782 23.9006V23.9026C16.0278 24.7946 16.4333 25.6319 16.9778 26.3698V27.3196C16.9798 27.351 16.9592 27.3794 16.9298 27.3875C14.5783 27.9714 9.10449 29.7666 9.10449 34.2508C9.10449 34.7394 9.48742 35.1357 9.95951 35.1357H32.9967C33.4688 35.1357 33.8517 34.7394 33.8517 34.2508C33.8517 29.7666 28.378 27.9714 26.0234 27.4109L26.0236 27.4108ZM21.4783 30.849C20.02 30.8703 18.6411 30.1608 17.7771 28.9444C18.1542 28.7275 18.4411 28.3747 18.5821 27.9531C18.968 28.2166 19.3833 28.4305 19.8181 28.5916C20.8925 28.9849 22.0639 28.9849 23.1382 28.5916C23.5711 28.4274 23.9844 28.2115 24.3693 27.948C24.5094 28.3747 24.7973 28.7325 25.1793 28.9515C24.3135 30.1658 22.9355 30.8723 21.4781 30.849H21.4783ZM16.2259 21.3309C15.9223 20.223 16.0506 19.8206 16.1534 19.6807C16.2249 19.5864 16.3385 19.5357 16.4541 19.5448H16.5265C16.6147 19.5499 16.6901 19.481 16.697 19.3897C16.697 19.3664 16.8879 16.9793 18.2542 16.1196C18.9358 15.6888 19.8134 15.7071 20.8594 16.1693C23.0004 17.1242 24.5947 17.0562 25.5655 16.8332C26.6713 17.6796 26.3529 19.0288 26.2775 19.2933V19.3268C26.2589 19.3815 26.2677 19.4424 26.302 19.488C26.3363 19.5336 26.3902 19.5579 26.445 19.5528C26.5811 19.5275 26.7202 19.5772 26.8113 19.6856C26.9141 19.8255 27.0424 20.2279 26.7388 21.3358C26.35 22.7549 26.0346 22.8928 25.9465 22.8928C25.8711 22.8979 25.8094 22.9577 25.7986 23.0357C25.5733 24.548 24.4098 26.4273 22.6244 27.0944C21.884 27.3661 21.076 27.3661 20.3356 27.0944C18.4699 26.4163 17.3866 24.5147 17.1662 23.0329C17.1554 22.9548 17.0937 22.896 17.0183 22.8899C16.9302 22.8828 16.6148 22.75 16.226 21.331L16.2259 21.3309Z" fill="#4379BA"/>
</svg>
