<svg width="30" height="30" viewBox="0 0 30 30" fill="none" xmlns="http://www.w3.org/2000/svg">
<path d="M0.521484 8.50924C0.521484 5.53072 0.521484 4.04147 1.10114 2.90383C1.61102 1.90313 2.42461 1.08954 3.42531 0.579657C4.56295 0 6.0522 0 9.03071 0H21.4147C24.3932 0 25.8824 0 27.0201 0.579657C28.0208 1.08954 28.8344 1.90313 29.3443 2.90383C29.9239 4.04147 29.9239 5.53072 29.9239 8.50923V20.8932C29.9239 23.8717 29.9239 25.361 29.3443 26.4986C28.8344 27.4993 28.0208 28.3129 27.0201 28.8228C25.8824 29.4024 24.3932 29.4024 21.4147 29.4024H9.03072C6.05221 29.4024 4.56295 29.4024 3.42531 28.8228C2.42461 28.3129 1.61102 27.4993 1.10114 26.4986C0.521484 25.361 0.521484 23.8717 0.521484 20.8932V8.50924Z" fill="url(#paint0_linear_1986_3244)"/>
<g filter="url(#filter0_iiii_1986_3244)">
<path d="M12.7451 18.1151C12.8139 19.8708 13.0343 23.1138 13.3648 24.1053C13.6563 24.9798 13.8553 25.5512 15.1145 25.5512C15.1145 25.5486 15.1145 25.5538 15.1145 25.5512C16.2485 25.5512 16.7121 25.2146 17.0819 24.1053C17.4124 23.1138 17.6327 19.8708 17.7016 18.1151C17.7313 17.3563 16.9092 16.3985 15.2238 16.3605L15.2238 16.3594C15.206 16.3594 15.1884 16.3595 15.1708 16.3597C15.1538 16.3595 15.1367 16.3594 15.1195 16.3594C15.1186 16.3598 15.1176 16.3601 15.1166 16.3605C13.3789 16.3983 12.7153 17.3562 12.7451 18.1151Z" fill="white"/>
<ellipse cx="15.2233" cy="13.0553" rx="2.27213" ry="2.27213" fill="white"/>
<path fill-rule="evenodd" clip-rule="evenodd" d="M11.7356 17.5283C11.168 17.0147 10.7173 16.3788 10.4209 15.6632C9.98304 14.6062 9.90623 13.4342 10.2023 12.3291C10.4985 11.224 11.151 10.2474 12.0587 9.55093C12.9664 8.85443 14.0785 8.47691 15.2226 8.47691C16.3667 8.47691 17.4789 8.85443 18.3866 9.55093C19.2943 10.2474 19.9468 11.224 20.2429 12.3291C20.539 13.4342 20.4622 14.6062 20.0244 15.6632C19.728 16.3788 19.2773 17.0147 18.7097 17.5283C18.6842 18.0801 18.6503 18.7019 18.6084 19.3511C19.8298 18.6227 20.7845 17.5191 21.3293 16.2038C21.8861 14.8595 21.9838 13.369 21.6072 11.9635C21.2306 10.5581 20.4008 9.31613 19.2464 8.43035C18.0921 7.54457 16.6777 7.06445 15.2226 7.06445C13.7676 7.06445 12.3532 7.54457 11.1988 8.43035C10.0444 9.31613 9.21461 10.5581 8.83802 11.9635C8.46143 13.369 8.55912 14.8595 9.11594 16.2038C9.6608 17.5192 10.6155 18.6227 11.8369 19.3511C11.795 18.702 11.761 18.0801 11.7356 17.5283Z" fill="white"/>
<path fill-rule="evenodd" clip-rule="evenodd" d="M11.9997 21.4832C10.4597 20.8475 9.13381 19.7667 8.19916 18.3679C7.0605 16.6638 6.58018 14.6038 6.8477 12.5718C7.11522 10.5398 8.11233 8.67437 9.65325 7.32301C11.1942 5.97166 13.1738 5.22657 15.2234 5.22657C17.2729 5.22657 19.2526 5.97166 20.7935 7.32302C22.3344 8.67437 23.3315 10.5398 23.599 12.5718C23.8666 14.6038 23.3862 16.6638 22.2476 18.3679C21.313 19.7667 19.9871 20.8474 18.4472 21.4832C18.3971 22.0466 18.3415 22.5965 18.2808 23.1061C20.3967 22.4202 22.2259 21.0405 23.4672 19.1828C24.8035 17.1828 25.3673 14.7652 25.0533 12.3804C24.7393 9.99556 23.5691 7.8062 21.7606 6.22021C19.9521 4.63422 17.6288 3.75977 15.2234 3.75977C12.818 3.75977 10.4946 4.63422 8.68612 6.22021C6.87764 7.8062 5.70741 9.99555 5.39344 12.3804C5.07947 14.7652 5.64318 17.1828 6.97955 19.1828C8.22084 21.0406 10.0501 22.4203 12.1661 23.1061C12.1053 22.5966 12.0498 22.0467 11.9997 21.4832Z" fill="white"/>
</g>
<defs>
<filter id="filter0_iiii_1986_3244" x="5.30859" y="3.75977" width="19.8296" height="22.3248" filterUnits="userSpaceOnUse" color-interpolation-filters="sRGB">
<feFlood flood-opacity="0" result="BackgroundImageFix"/>
<feBlend mode="normal" in="SourceGraphic" in2="BackgroundImageFix" result="shape"/>
<feColorMatrix in="SourceAlpha" type="matrix" values="0 0 0 0 0 0 0 0 0 0 0 0 0 0 0 0 0 0 127 0" result="hardAlpha"/>
<feOffset dy="0.531827"/>
<feGaussianBlur stdDeviation="0.265913"/>
<feComposite in2="hardAlpha" operator="arithmetic" k2="-1" k3="1"/>
<feColorMatrix type="matrix" values="0 0 0 0 0.59516 0 0 0 0 0.198958 0 0 0 0 0.795833 0 0 0 0.33 0"/>
<feBlend mode="normal" in2="shape" result="effect1_innerShadow_1986_3244"/>
<feColorMatrix in="SourceAlpha" type="matrix" values="0 0 0 0 0 0 0 0 0 0 0 0 0 0 0 0 0 0 127 0" result="hardAlpha"/>
<feOffset dx="0.265913"/>
<feComposite in2="hardAlpha" operator="arithmetic" k2="-1" k3="1"/>
<feColorMatrix type="matrix" values="0 0 0 0 0.469499 0 0 0 0 0.141406 0 0 0 0 0.754167 0 0 0 0.3 0"/>
<feBlend mode="normal" in2="effect1_innerShadow_1986_3244" result="effect2_innerShadow_1986_3244"/>
<feColorMatrix in="SourceAlpha" type="matrix" values="0 0 0 0 0 0 0 0 0 0 0 0 0 0 0 0 0 0 127 0" result="hardAlpha"/>
<feOffset dy="0.265913"/>
<feComposite in2="hardAlpha" operator="arithmetic" k2="-1" k3="1"/>
<feColorMatrix type="matrix" values="0 0 0 0 0.469499 0 0 0 0 0.141406 0 0 0 0 0.754167 0 0 0 0.8 0"/>
<feBlend mode="normal" in2="effect2_innerShadow_1986_3244" result="effect3_innerShadow_1986_3244"/>
<feColorMatrix in="SourceAlpha" type="matrix" values="0 0 0 0 0 0 0 0 0 0 0 0 0 0 0 0 0 0 127 0" result="hardAlpha"/>
<feOffset dx="-0.265913"/>
<feComposite in2="hardAlpha" operator="arithmetic" k2="-1" k3="1"/>
<feColorMatrix type="matrix" values="0 0 0 0 0.469499 0 0 0 0 0.141406 0 0 0 0 0.754167 0 0 0 0.3 0"/>
<feBlend mode="normal" in2="effect3_innerShadow_1986_3244" result="effect4_innerShadow_1986_3244"/>
</filter>
<linearGradient id="paint0_linear_1986_3244" x1="15.2227" y1="0" x2="15.2227" y2="29.4024" gradientUnits="userSpaceOnUse">
<stop stop-color="#B872E7"/>
<stop offset="0.0001" stop-color="#BE71E5"/>
<stop offset="1" stop-color="#7736B8"/>
</linearGradient>
</defs>
</svg>
