<svg width="27" height="26" viewBox="0 0 27 26" fill="none" xmlns="http://www.w3.org/2000/svg">
<g opacity="0.5" clip-path="url(#clip0_1982_3890)">
<path fill-rule="evenodd" clip-rule="evenodd" d="M25.7201 22.5333C25.4688 23.1747 24.8881 24.076 24.0561 24.7173C23.5794 25.0813 23.0074 25.4367 22.2274 25.6707C21.3954 25.922 20.3641 26 19.0814 26H7.38145C6.09878 26 5.07611 25.9133 4.23545 25.6707C3.45545 25.4367 2.88345 25.09 2.40678 24.7173C1.58345 24.0847 0.994112 23.1747 0.742779 22.5333C0.240112 21.242 0.231445 19.7773 0.231445 18.85V7.15C0.231445 6.22267 0.240112 4.758 0.742779 3.46667C0.994112 2.82533 1.57478 1.924 2.40678 1.28267C2.88345 0.918667 3.45545 0.563333 4.23545 0.329333C5.07611 0.0866667 6.09878 0 7.38145 0H19.0814C20.3641 0 21.3868 0.0866667 22.2274 0.329333C23.0074 0.563333 23.5794 0.91 24.0561 1.28267C24.8794 1.91533 25.4688 2.82533 25.7201 3.46667C26.2314 4.758 26.2314 6.23133 26.2314 7.15V18.85C26.2314 19.7773 26.2228 21.242 25.7201 22.5333Z" fill="white"/>
<path d="M15.4585 15.6953C15.4239 15.3833 15.3199 15.1579 15.1119 14.9499C14.7219 14.5426 14.0372 14.2739 13.2312 14.2739C12.4252 14.2739 11.7405 14.5339 11.3505 14.9499C11.1512 15.1666 11.0385 15.3833 11.0039 15.6953C10.9345 16.3019 10.9779 16.8219 11.0472 17.6626C11.1165 18.4599 11.2465 19.5259 11.4112 20.6006C11.5325 21.3719 11.6279 21.7879 11.7145 22.0826C11.8619 22.5679 12.3905 22.9839 13.2312 22.9839C14.0719 22.9839 14.6092 22.5593 14.7479 22.0826C14.8345 21.7879 14.9299 21.3719 15.0512 20.6006C15.2159 19.5173 15.3459 18.4599 15.4152 17.6626C15.4932 16.8219 15.5279 16.3019 15.4585 15.6953Z" fill="#943CCB"/>
<path d="M15.3626 11.2756C15.3626 12.4542 14.4093 13.4076 13.2306 13.4076C12.052 13.4076 11.0986 12.4542 11.0986 11.2756C11.0986 10.0969 12.052 9.14355 13.2306 9.14355C14.4093 9.14355 15.3626 10.1056 15.3626 11.2756Z" fill="#943CCB"/>
<path d="M13.205 2.87746C8.23035 2.89479 4.15702 6.93345 4.08769 11.9081C4.03569 15.9381 6.60969 19.3875 10.2064 20.6528C10.293 20.6875 10.3797 20.6095 10.371 20.5228C10.3277 20.2108 10.2757 19.8988 10.241 19.5868C10.2237 19.4741 10.1544 19.3875 10.059 19.3355C7.21635 18.0961 5.23169 15.2448 5.26635 11.9428C5.30969 7.60945 8.84569 4.08212 13.1704 4.04745C17.599 4.01279 21.213 7.60079 21.213 12.0208C21.213 15.2881 19.237 18.0961 16.4204 19.3355C16.3164 19.3788 16.247 19.4741 16.2384 19.5868C16.195 19.8988 16.1517 20.2108 16.1084 20.5228C16.091 20.6181 16.1864 20.6875 16.273 20.6528C19.835 19.4048 22.3917 16.0075 22.3917 12.0208C22.3744 6.97679 18.2577 2.86879 13.205 2.87746Z" fill="#943CCB"/>
<path d="M12.9974 5.9107C9.7561 6.03203 7.1561 8.71003 7.11277 11.9514C7.08677 14.0834 8.15277 15.9727 9.79077 17.0907C9.86877 17.1427 9.98143 17.082 9.98143 16.9867C9.95543 16.614 9.95544 16.2847 9.97277 15.938C9.98144 15.8254 9.9381 15.7214 9.85143 15.6434C8.85477 14.7074 8.2481 13.3727 8.28277 11.8994C8.3521 9.29937 10.4408 7.1847 13.0408 7.0807C15.8661 6.96803 18.1888 9.2387 18.1888 12.0294C18.1888 13.4507 17.5821 14.7334 16.6201 15.6434C16.5421 15.7214 16.4988 15.8254 16.4988 15.938C16.5161 16.276 16.5074 16.6054 16.4901 16.978C16.4814 17.0734 16.5941 17.1427 16.6808 17.082C18.2928 15.9814 19.3588 14.118 19.3588 12.0207C19.3674 8.57137 16.4814 5.77203 12.9974 5.9107Z" fill="#943CCB"/>
</g>
<defs>
<clipPath id="clip0_1982_3890">
<rect width="26" height="26" fill="white" transform="translate(0.231445)"/>
</clipPath>
</defs>
</svg>
