<svg width="27" height="26" viewBox="0 0 27 26" fill="none" xmlns="http://www.w3.org/2000/svg">
<g opacity="0.5" clip-path="url(#clip0_1982_3888)">
<path d="M13.2307 0.0429688C6.07315 0.0429688 0.270508 5.84546 0.270508 13.003C0.270508 20.1609 6.07315 25.963 13.2307 25.963C20.3891 25.963 26.1911 20.1609 26.1911 13.003C26.1911 5.84592 20.3891 0.0435878 13.2306 0.0435878L13.2307 0.0429688ZM19.1742 18.7351C18.9421 19.1158 18.4437 19.2365 18.063 19.0028C15.0201 17.1442 11.1894 16.7232 6.67812 17.7539C6.24339 17.853 5.81006 17.5806 5.71101 17.1457C5.6115 16.7108 5.88279 16.2775 6.3186 16.1784C11.2555 15.0501 15.4903 15.5362 18.9065 17.6239C19.2872 17.8576 19.4079 18.3544 19.1742 18.7351ZM20.7605 15.2058C20.468 15.6817 19.8459 15.8318 19.3708 15.5393C15.8871 13.3975 10.5767 12.7774 6.45619 14.0282C5.92179 14.1896 5.35738 13.8884 5.19519 13.355C5.03424 12.8206 5.33556 12.2572 5.86902 12.0947C10.5758 10.6666 16.4272 11.3584 20.4278 13.8168C20.9029 14.1093 21.053 14.7314 20.7605 15.2059V15.2058ZM20.8967 11.5311C16.7197 9.05011 9.82814 8.82199 5.84008 10.0324C5.19968 10.2266 4.52244 9.86509 4.32837 9.22468C4.13429 8.58397 4.49551 7.90719 5.13638 7.7125C9.71439 6.32274 17.3248 6.59125 22.1339 9.44615C22.7111 9.78802 22.9 10.532 22.5579 11.1072C22.2175 11.6832 21.4715 11.8731 20.8973 11.5311H20.8967Z" fill="white"/>
</g>
<defs>
<clipPath id="clip0_1982_3888">
<rect width="26" height="26" fill="white" transform="translate(0.231445)"/>
</clipPath>
</defs>
</svg>
