<svg width="39" height="39" viewBox="0 0 39 39" fill="none" xmlns="http://www.w3.org/2000/svg">
<g opacity="0.5" clip-path="url(#clip0_1982_2840)">
<path d="M31.8588 7.15301L29.5331 6.91406C22.5743 6.19726 15.5603 6.19726 8.60149 6.91406L6.37134 7.15301C3.61792 7.46422 1.5503 9.8144 1.59243 12.585V25.6474C1.5503 28.418 3.61792 30.7682 6.37134 31.0794L8.69707 31.3183C15.6559 32.0351 22.6699 32.0351 29.6287 31.3183L31.8588 31.0794C34.6123 30.7682 36.6799 28.418 36.6377 25.6474V12.585C36.6799 9.8144 34.6123 7.46422 31.8588 7.15301ZM23.894 20.1038L17.6973 24.2456C17.3365 24.4437 16.8991 24.4421 16.5398 24.2413C16.1804 24.0406 15.9497 23.669 15.9291 23.2579V14.9745C15.93 14.5329 16.1743 14.1278 16.5645 13.921C16.9546 13.7142 17.4271 13.7396 17.7929 13.9868L23.9896 18.1286C24.3235 18.3461 24.5248 18.7177 24.5248 19.1162C24.5248 19.5147 24.3235 19.8863 23.9896 20.1038H23.894Z" fill="white"/>
</g>
<defs>
<clipPath id="clip0_1982_2840">
<rect width="38.2313" height="38.2313" fill="white"/>
</clipPath>
</defs>
</svg>
