<svg width="35" height="35" viewBox="0 0 35 35" fill="none" xmlns="http://www.w3.org/2000/svg">
<g clip-path="url(#clip0_1986_3242)">
<path d="M33.6193 8.83972C33.4254 8.10994 33.0431 7.44391 32.5109 6.90826C31.9787 6.37262 31.3151 5.98615 30.5866 5.78755C27.9047 5.06641 17.1851 5.06641 17.1851 5.06641C17.1851 5.06641 6.46547 5.06641 3.78361 5.78755C3.0551 5.98615 2.39152 6.37262 1.8593 6.90826C1.32707 7.44391 0.944868 8.10994 0.750933 8.83972C0.0336915 11.5333 0.0336914 17.1504 0.0336914 17.1504C0.0336914 17.1504 0.0336915 22.7674 0.750933 25.461C0.944868 26.1908 1.32707 26.8568 1.8593 27.3924C2.39152 27.9281 3.0551 28.3146 3.78361 28.5132C6.46547 29.2343 17.1851 29.2343 17.1851 29.2343C17.1851 29.2343 27.9047 29.2343 30.5866 28.5132C31.3151 28.3146 31.9787 27.9281 32.5109 27.3924C33.0431 26.8568 33.4254 26.1908 33.6193 25.461C34.3365 22.7674 34.3365 17.1504 34.3365 17.1504C34.3365 17.1504 34.3365 11.5333 33.6193 8.83972Z" fill="#FF0302"/>
<path d="M13.6772 22.252V12.0508L22.6427 17.1514L13.6772 22.252Z" fill="#FEFEFE"/>
</g>
<defs>
<clipPath id="clip0_1986_3242">
<rect width="34.3028" height="34.3028" fill="white"/>
</clipPath>
</defs>
</svg>
