<svg width="86" height="74" viewBox="0 0 86 74" fill="none" xmlns="http://www.w3.org/2000/svg">
<path d="M73.5677 13.4793C73.5677 13.4793 73.2764 13.1873 72.8398 12.6776C72.3301 12.1669 71.6043 11.4396 70.5839 10.5636C69.3715 9.49858 68.0827 8.52408 66.728 7.64795C64.9804 6.4599 63.1288 5.43325 61.1959 4.58061C60.1046 4.14316 59.0132 3.63245 57.8497 3.19499C57.268 2.97627 56.6142 2.83079 56.0304 2.61207C55.4095 2.40798 54.7781 2.23749 54.139 2.10136C51.4048 1.37804 48.5985 0.962773 45.7724 0.863281H43.5896C42.9348 0.863281 42.1348 0.86328 41.3337 0.936533C40.5337 0.936533 39.8058 1.00979 39.0058 1.08201C38.2058 1.15423 37.4778 1.30073 36.6778 1.37399C33.5786 1.89263 30.5341 2.69807 27.5833 3.77999C24.6514 4.94526 21.8476 6.41124 19.2167 8.15453C17.9052 8.9712 16.6652 9.89793 15.5101 10.9247C14.3427 11.8869 13.2258 12.909 12.1639 13.9869C10.1654 15.9784 8.38507 18.1781 6.85314 20.5487C6.48969 21.1316 6.1252 21.7156 5.83485 22.2253C5.4714 22.8082 5.18002 23.3189 4.88864 23.9018C4.31995 24.9667 3.80987 26.062 3.3607 27.1827C2.5525 29.1212 1.89536 31.1194 1.39518 33.1596C1.26353 33.5886 1.1661 34.0274 1.1038 34.4719C1.03069 34.9094 0.958622 35.3468 0.88552 35.71C0.740345 36.5117 0.667242 37.2411 0.594139 37.8973C0.485772 38.9143 0.437296 39.9368 0.448964 40.9595V42.0531L0.812416 42.1264C0.812416 42.1264 0.885519 41.7621 0.957592 41.106C1.10122 40.1247 1.29538 39.1515 1.53932 38.1903C1.6845 37.5341 1.90277 36.8779 2.12105 36.1485C2.34373 35.3325 2.6108 34.5293 2.92106 33.7425C3.58954 31.8411 4.39191 29.9896 5.32211 28.2021C10.2931 18.4709 18.6945 10.9372 28.8961 7.06296C34.8867 4.75956 41.2955 3.75074 47.7024 4.10262C54.1093 4.45449 60.3697 6.15911 66.0732 9.10475C66.4463 9.32797 66.8355 9.52283 67.2377 9.68768C67.6012 9.90641 67.9656 10.1251 68.256 10.2706C68.9108 10.6348 69.4915 11.0723 70.0753 11.4375C71.1667 12.1669 71.9667 12.7499 72.5464 13.1914L73.4195 13.8476L73.5677 13.4793Z" fill="#E53312"/>
<path d="M84.3928 41.765C84.3928 41.765 84.3196 41.4008 84.2476 40.7446C84.1061 39.7807 83.8871 38.8297 83.5927 37.9011C83.4476 37.3182 83.2293 36.5888 83.011 35.9326C82.8659 35.5684 82.7927 35.2032 82.6476 34.839C82.5024 34.4748 82.3562 34.0373 82.211 33.6721C81.4844 31.8421 80.6337 30.064 79.6648 28.3504C77.1631 24.1019 73.9087 20.3464 70.0616 17.2686C67.8861 15.5371 65.5466 14.0233 63.0767 12.7486C60.5394 11.431 57.8521 10.4263 55.0736 9.75654C52.2895 9.04316 49.4328 8.65301 46.5597 8.59378H44.4501C43.746 8.58178 43.0419 8.60623 42.3404 8.66704C41.6125 8.74029 40.9576 8.81251 40.3028 8.88577C39.648 8.95902 38.92 9.10449 38.2652 9.17774C35.7058 9.60673 33.1955 10.2907 30.7717 11.2195C30.19 11.4383 29.6072 11.657 29.0986 11.8757C28.5168 12.0944 28.0072 12.3864 27.4975 12.6052C26.4792 13.1159 25.4599 13.6255 24.5117 14.2095C23.6019 14.7087 22.7268 15.2689 21.8923 15.8861C21.4558 16.178 21.0923 16.469 20.7278 16.761L19.6365 17.6359C18.3268 18.7295 17.1654 19.8231 16.2902 20.6981C15.8537 21.1355 15.4902 21.573 15.1257 21.9361C14.8344 22.3003 14.544 22.5923 14.3257 22.8843C13.8892 23.395 13.6709 23.686 13.6709 23.686L13.9623 23.9047C13.9623 23.9047 14.2537 23.686 14.7623 23.2485C14.9806 23.0298 15.344 22.7378 15.7085 22.4468C16.073 22.1559 16.5085 21.7907 17.0182 21.4265C18.1797 20.5053 19.3944 19.6533 20.6558 18.875C22.2515 17.859 23.9032 16.9341 25.6031 16.1048C27.5892 15.1782 29.6303 14.3747 31.7148 13.6988C34.0275 13.0196 36.3859 12.5079 38.7718 12.1677C39.4266 12.0945 40.0073 12.0222 40.6632 11.949C41.2449 11.949 41.8987 11.8757 42.4825 11.8757H46.4166C49.0495 11.997 51.6606 12.4123 54.2015 13.1138C55.5112 13.4058 56.7477 13.8432 57.9843 14.2074C59.2271 14.6423 60.4419 15.1537 61.6219 15.7385L62.495 16.176L63.3681 16.6134C63.9494 16.8858 64.5088 17.2028 65.0412 17.5616C65.601 17.8587 66.1364 18.1999 66.6423 18.582L68.1702 19.6756C70.1009 21.1212 71.9246 22.7049 73.6271 24.4144C74.4272 25.216 75.1551 26.0909 75.883 26.9658C76.583 27.7804 77.2388 28.6322 77.8475 29.5173C78.4293 30.319 78.9389 31.1939 79.4486 31.9935C79.7171 32.3656 79.9603 32.7554 80.1765 33.1603C80.3948 33.5245 80.6131 33.8898 80.8313 34.3272C81.0496 34.6914 81.1948 35.0567 81.4131 35.4209C81.5582 35.7851 81.7765 36.1503 81.9227 36.4413C82.2377 37.0514 82.5052 37.6851 82.7227 38.3365C83.1593 39.5034 83.5227 40.3783 83.741 41.0345C83.8423 41.3579 83.9637 41.6745 84.1045 41.9827L84.3928 41.765Z" fill="#AE0F0A"/>
<path d="M3.78279 48.837C4.13029 48.0472 4.70192 47.3773 5.42652 46.9106C6.15112 46.4439 6.99669 46.2011 7.85798 46.2123C12.587 46.2123 14.0418 49.3467 14.0418 55.763C14.0418 62.1794 12.4408 65.386 7.34936 65.386C6.1485 65.3756 4.95269 65.2289 3.78485 64.9485V73.1136H0V46.431H3.78279V48.837ZM6.03866 48.837C5.24782 48.8223 4.46793 49.0239 3.78279 49.4199V62.689C4.57661 62.8215 5.37918 62.8947 6.18384 62.9078C9.53007 62.9078 10.1128 60.6472 10.1128 55.8363C10.1128 51.0253 9.5311 48.837 6.03866 48.837Z" fill="#AE0F0A"/>
<path d="M24.729 46.2119C30.186 46.2119 31.9363 49.4196 31.9363 55.8349C31.9363 62.2502 29.9718 65.3856 24.5149 65.3856C19.058 65.3856 17.3076 62.2512 17.3076 55.8349C17.3076 49.4185 19.3452 46.2119 24.729 46.2119ZM24.6559 62.8341C27.4204 62.8341 28.0753 60.5736 28.0753 55.8349C28.0753 51.1694 27.4204 48.8356 24.6559 48.8356C21.8914 48.8356 21.3097 51.1683 21.3097 55.8349C21.2366 60.5736 21.8914 62.8341 24.6559 62.8341Z" fill="#AE0F0A"/>
<path d="M45.9878 65.2401V52.4817C45.9878 50.0757 45.1878 48.8366 42.3502 48.8366C41.4121 48.8266 40.4865 49.0522 39.6578 49.4928V65.2401H35.875V46.4306H39.6578V48.6881C40.604 46.7928 42.4954 46.2119 44.6051 46.2119C48.2427 46.2119 49.8437 47.8885 49.8437 51.2426V65.2401H45.9878Z" fill="#AE0F0A"/>
<path d="M63.728 48.9123H58.3442V60.4316C58.3442 62.1856 59.4355 62.8376 61.1087 62.8376C62.1854 62.8929 63.2529 62.6129 64.1645 62.036C64.0914 64.2232 63 65.4623 59.3624 65.4623C55.9431 65.4623 54.4883 63.7084 54.4883 60.5049V48.9123H52.6689V46.4362H54.4883V42.5693L58.2711 41.9863V46.4331H63.6549V48.9092L63.728 48.9123Z" fill="#AE0F0A"/>
<path d="M68.5433 38.9219C70.0712 38.9219 70.726 39.5048 70.726 40.8172C70.726 42.275 70.0712 42.859 68.5433 42.859C67.0153 42.859 66.4336 42.275 66.4336 40.8172C66.4336 39.4315 67.0153 38.9219 68.5433 38.9219ZM70.4347 65.2403H66.6519V46.4308H70.4347V65.2403Z" fill="#AE0F0A"/>
<path d="M81.9078 54.9607C84.6723 56.6373 85.6144 58.1684 85.6144 60.2102C85.6144 62.9082 83.4316 65.4596 78.3392 65.4596C76.8977 65.4688 75.4595 65.3215 74.0498 65.0201L74.4864 62.544C75.5686 62.7255 76.6633 62.8231 77.7605 62.8359C80.525 62.8359 81.7616 61.7423 81.7616 60.3598C81.7616 58.9019 80.6702 57.8836 78.124 56.4227C75.2864 54.7461 74.2681 53.2883 74.2681 51.3198C74.2681 48.6218 76.3057 46.1436 81.0347 46.1436C82.453 46.1446 83.8675 46.2912 85.2561 46.581L84.8195 49.0572C83.7625 48.8703 82.6918 48.7726 81.6185 48.7652C79.2174 48.7652 78.126 49.7856 78.126 51.1712C78.126 52.7023 79.5088 53.5039 81.9088 54.9618" fill="#AE0F0A"/>
<path d="M10.3261 41.5463V36.5156C10.3261 35.5674 9.96267 35.0577 8.87128 35.0577C8.49759 35.0667 8.12829 35.1407 7.7799 35.2765V41.5463H6.25195V34.0373H7.7799V34.9122C7.97768 34.5778 8.26966 34.3094 8.61917 34.1407C8.96868 33.972 9.36014 33.9106 9.74439 33.9641C11.1992 33.9641 11.782 34.6203 11.782 35.9326V41.473H10.3261V41.5463Z" fill="#AE0F0A"/>
<path d="M13.5285 35.4949C13.5285 34.5468 14.0382 34.0371 15.8565 34.0371C17.6748 34.0371 18.4758 34.7665 18.4758 36.0057V41.5461H16.9479V40.6711C16.7693 40.9892 16.5021 41.2482 16.179 41.4166C15.8559 41.5849 15.4909 41.6554 15.1285 41.6193C14.8691 41.6522 14.6056 41.6265 14.3574 41.544C14.1092 41.4615 13.8826 41.3243 13.6942 41.1425C13.5059 40.9607 13.3606 40.7389 13.269 40.4934C13.1774 40.2479 13.1419 39.985 13.1651 39.724C13.1651 38.1929 14.4747 37.1725 16.9479 36.8806V36.3699C16.9479 35.4949 16.5113 35.0575 15.3468 35.0575C14.7079 34.9835 14.0634 35.1385 13.5275 35.4949H13.5285ZM17.0199 40.3069V37.6822C15.492 37.8277 14.6189 38.4117 14.6189 39.4362C14.6189 40.1656 14.9823 40.603 15.9286 40.603C16.3057 40.5657 16.6743 40.4671 17.0199 40.3111" fill="#AE0F0A"/>
<path d="M24.0944 40.5253C23.9459 40.8409 23.7082 41.1059 23.4108 41.2873C23.1133 41.4687 22.7692 41.5586 22.4213 41.5457C20.5299 41.5457 19.9502 40.3076 19.9502 37.7551C19.9502 35.2026 20.605 33.9645 22.6426 33.9645C23.1066 33.9769 23.569 34.0255 24.0254 34.11V30.9023H25.4761V41.4735H24.0213V40.5253H24.0944ZM23.2213 40.5253C23.5479 40.5148 23.8693 40.4405 24.1675 40.3066V35.0582C23.8549 35.005 23.5382 34.9805 23.2213 34.9849C21.9116 34.9849 21.6933 35.8598 21.6933 37.7551C21.6202 39.6504 21.8385 40.5253 23.2213 40.5253Z" fill="#AE0F0A"/>
<path d="M27.3724 35.4956C27.3724 34.5475 27.882 34.0378 29.7003 34.0378C31.5186 34.0378 32.3196 34.7672 32.3196 36.0063V41.5467H30.7917V40.6718C30.6131 40.9898 30.346 41.2488 30.0229 41.4172C29.6998 41.5856 29.3348 41.6561 28.9724 41.62C28.7128 41.6529 28.4492 41.6272 28.2009 41.5446C27.9527 41.462 27.726 41.3247 27.5376 41.1428C27.3493 40.9609 27.204 40.739 27.1125 40.4934C27.021 40.2478 26.9856 39.9848 27.0089 39.7236C27.0089 38.1926 28.3186 37.1722 30.7917 36.8802V36.3705C30.7917 35.4956 30.3551 35.0582 29.1907 35.0582C28.5517 34.9842 27.9072 35.1392 27.3713 35.4956H27.3724ZM30.7907 40.3076V37.6829C29.2627 37.8284 28.3896 38.4123 28.3896 39.4368C28.3896 40.1663 28.7531 40.6037 29.6993 40.6037C30.0796 40.5847 30.4515 40.4852 30.7907 40.3117V40.3076ZM32.1745 30.9023L30.0648 33.0896H28.9734L30.5014 30.9023H32.1745Z" fill="#AE0F0A"/>
<path d="M37.1724 40.5267C37.6591 40.5444 38.1401 40.4177 38.5552 40.1625C38.5552 41.0374 38.0455 41.5481 36.5907 41.5481C34.481 41.5481 33.8262 40.31 33.8262 37.7575C33.8262 35.205 34.5541 33.9648 36.6638 33.9648C37.2497 33.9769 37.8342 34.0255 38.4141 34.1103L38.2689 35.0585C37.8602 34.9864 37.4477 34.9378 37.0334 34.913C35.7237 34.913 35.3603 35.7879 35.3603 37.6832C35.3603 39.6517 35.7237 40.5267 37.1796 40.5267" fill="#AE0F0A"/>
<path d="M40.6203 31.0498C41.2021 31.0498 41.4934 31.2685 41.4934 31.7792C41.4934 32.3622 41.2752 32.5809 40.6203 32.5809C40.0386 32.5809 39.8203 32.3622 39.8203 31.7792C39.8203 31.2685 40.0386 31.0498 40.6203 31.0498ZM41.3483 41.5477H39.8934V34.0418H41.3483V41.5477Z" fill="#AE0F0A"/>
<path d="M43.2795 35.4949C43.2795 34.5468 43.7892 34.0371 45.6075 34.0371C47.4257 34.0371 48.2268 34.7665 48.2268 36.0057V41.5461H46.6988V40.6711C46.5202 40.9892 46.2531 41.2482 45.93 41.4166C45.6069 41.5849 45.2419 41.6554 44.8795 41.6193C44.6201 41.6522 44.3566 41.6265 44.1084 41.544C43.8601 41.4615 43.6335 41.3243 43.4452 41.1425C43.2569 40.9607 43.1116 40.7389 43.02 40.4934C42.9284 40.2479 42.8929 39.985 42.9161 39.724C42.9161 38.1929 44.2257 37.1725 46.6988 36.8806V36.3699C46.6988 35.4949 46.2623 35.0575 45.0978 35.0575C44.4588 34.9835 43.8144 35.1385 43.2785 35.4949H43.2795ZM46.6978 40.3069V37.6822C45.1699 37.8277 44.2968 38.4117 44.2968 39.4362C44.2968 40.1656 44.6602 40.603 45.6064 40.603C45.9852 40.5747 46.3553 40.4757 46.6978 40.3111" fill="#AE0F0A"/>
</svg>
