<svg width="172" height="27" viewBox="0 0 172 27" fill="none" xmlns="http://www.w3.org/2000/svg">
<path d="M164.378 9.7325C164.378 10.9675 163.299 11.9425 161.983 11.9425C161.983 11.9425 157.633 11.9425 156.048 11.9425V23.9025H162.186V17.4025H162.152C166.739 17.4025 170.314 14.185 170.314 9.9925V9.7975C170.314 5.605 166.604 2.1925 161.983 2.1925H150.719C153.383 3.0375 155.306 5.02 156.014 7.555H161.95C163.265 7.555 164.378 8.5625 164.378 9.765V9.7325ZM147.279 7.5225H138.881C135.711 7.2625 135.172 9.7975 136.251 11.065L139.657 15.9725C141.31 19.4175 138.78 23.935 133.856 23.9025H126.234V18.93H131.563C131.563 18.93 132.946 19.06 133.418 18.085C133.62 17.695 133.688 17.045 133.317 16.4275L130.551 12.6575C127.55 8.6275 130.619 2.16 136.419 2.1925H147.515C152.102 2.1925 155.845 5.605 155.845 9.7975V9.9925C155.845 14.185 151.967 17.4025 147.515 17.4025H147.481V23.9025H141.242V11.9425C143.266 11.9425 147.279 11.9425 147.279 11.9425C148.628 11.9425 149.707 10.9675 149.707 9.7325C149.707 8.53 148.594 7.5225 147.279 7.5225Z" fill="#2B2A29"/>
<path d="M1.68652 2.3877H5.80103L14.401 14.8027C15.2779 16.0702 16.2897 18.1502 16.2897 18.1502H16.3571C16.3571 18.1502 16.1548 16.1027 16.1548 14.8027V2.3877H20.2355V23.9027H16.1548L7.55476 11.5202C6.6779 10.2527 5.66613 8.1727 5.66613 8.1727H5.59868C5.59868 8.1727 5.80103 10.2202 5.80103 11.5202V23.9027H1.68652V2.3877Z" fill="#2B2A29"/>
<path d="M30.5222 21.2702C32.6807 21.2702 34.232 19.0927 34.232 17.2077V16.8502H33.5238C31.4328 16.8502 28.0603 17.1102 28.0603 19.2877C28.0603 20.2952 28.8697 21.2702 30.5222 21.2702ZM33.625 14.2177H34.1983V13.9902C34.1983 11.9752 32.8493 11.2602 31.0618 11.2602C28.7011 11.2602 26.5764 12.7552 26.5764 12.7552L25.025 9.9927C25.025 9.9927 27.5544 8.0752 31.4328 8.0752C35.716 8.0752 38.2116 10.3177 38.2116 14.2502V23.9027H34.4681V22.6352C34.4681 22.0502 34.5356 21.5627 34.5356 21.5627H34.4681C34.5018 21.5627 33.2203 24.2927 29.5105 24.2927C26.6101 24.2927 23.9795 22.5377 23.9795 19.4502C23.9795 14.5427 30.9944 14.2177 33.625 14.2177Z" fill="#2B2A29"/>
<path d="M49.475 21.0427C51.5998 21.0427 53.5558 19.5802 53.5558 16.1352C53.5558 13.7627 52.2068 11.3902 49.5088 11.3902C47.2492 11.3902 45.3943 13.1127 45.3943 16.1677C45.3943 19.1252 47.0805 21.0427 49.475 21.0427ZM48.6994 8.0752C52.2743 8.0752 53.4209 10.0577 53.4209 10.0577H53.4547C53.4547 10.0577 53.4547 9.6677 53.4547 9.18019V2.3877H57.5017V23.9027H53.657V22.6352C53.657 22.0827 53.7245 21.6277 53.7245 21.6277H53.657C53.657 21.6277 52.2743 24.2927 48.5307 24.2927C44.1464 24.2927 41.3135 20.9777 41.3135 16.1677C41.3135 11.2602 44.3825 8.0752 48.6994 8.0752Z" fill="#2B2A29"/>
<path d="M68.8672 2.41992H73.0492L69.6766 6.54742H66.439L68.8672 2.41992ZM67.1472 21.2699C69.3057 21.2699 70.8233 19.0924 70.8233 17.2074V16.8499H70.1488C68.0578 16.8499 64.6853 17.1099 64.6853 19.2874C64.6853 20.2949 65.4947 21.2699 67.1472 21.2699ZM70.25 14.2174H70.7896V13.9899C70.7896 11.9749 69.4743 11.2599 67.6868 11.2599C65.3261 11.2599 63.2014 12.7549 63.2014 12.7549L61.65 9.99242C61.65 9.99242 64.1794 8.07492 68.0578 8.07492C72.341 8.07492 74.8366 10.3174 74.8366 14.2499V23.9024H71.0931V22.6349C71.0931 22.0499 71.1606 21.5624 71.1606 21.5624H71.0931C71.1268 21.5624 69.8453 24.2924 66.1355 24.2924C63.2351 24.2924 60.6045 22.5374 60.6045 19.4499C60.6045 14.5424 67.6194 14.2174 70.25 14.2174Z" fill="#2B2A29"/>
<path d="M86.7429 8.0752C90.9923 8.0752 93.0158 10.3827 93.0158 10.3827L91.2283 13.0152C91.2283 13.0152 89.5083 11.3577 86.9452 11.3577C83.9436 11.3577 81.9876 13.5027 81.9876 16.1352C81.9876 18.7677 83.9774 21.0102 87.0801 21.0102C89.8456 21.0102 91.8691 19.0277 91.8691 19.0277L93.4542 21.7577C93.4542 21.7577 91.1272 24.2927 86.7429 24.2927C81.3468 24.2927 77.873 20.6852 77.873 16.1677C77.873 11.7802 81.3468 8.0752 86.7429 8.0752Z" fill="#2B2A29"/>
<path d="M96.4893 8.43269H100.57V23.9027H96.4893V8.43269ZM96.4893 2.3877H100.536V5.8002H96.4893V2.3877Z" fill="#2B2A29"/>
<path d="M110.215 21.2702C112.339 21.2702 113.891 19.0927 113.891 17.2077V16.8502H113.182C111.091 16.8502 107.753 17.1102 107.753 19.2877C107.753 20.2952 108.562 21.2702 110.215 21.2702ZM113.317 14.2177H113.857V13.9902C113.857 11.9752 112.508 11.2602 110.72 11.2602C108.393 11.2602 106.235 12.7552 106.235 12.7552L104.717 9.9927C104.717 9.9927 107.247 8.0752 111.091 8.0752C115.408 8.0752 117.904 10.3177 117.904 14.2502V23.9027H114.16V22.6352C114.16 22.0502 114.194 21.5627 114.194 21.5627H114.16C114.194 21.5627 112.913 24.2927 109.203 24.2927C106.269 24.2927 103.672 22.5377 103.672 19.4502C103.672 14.5427 110.653 14.2177 113.317 14.2177Z" fill="#2B2A29"/>
</svg>
