<svg width="106" height="41" viewBox="0 0 106 41" fill="none" xmlns="http://www.w3.org/2000/svg">
<g clip-path="url(#clip0_1439_2019)">
<path fill-rule="evenodd" clip-rule="evenodd" d="M0 18.8166C0 29.0758 8.22212 37.391 18.3665 37.391C23.5478 37.391 28.2245 35.2166 31.5627 31.7302C24.959 30.759 19.909 25.3478 19.909 18.8118C19.909 12.2806 24.9575 6.86139 31.5532 5.89019C28.2166 2.40379 23.5383 0.242188 18.3665 0.242188C8.22212 0.242188 0 8.55899 0 18.8166Z" fill="#EC1B2E"/>
<path fill-rule="evenodd" clip-rule="evenodd" d="M51.7643 9.86282C50.7281 9.15242 49.7393 8.62602 48.8058 8.28522C47.8692 7.94922 46.9421 7.78282 46.0261 7.78282C44.5089 7.78282 43.2685 8.23242 42.3034 9.13162C41.34 10.0276 40.8558 11.162 40.8558 12.522C40.8558 13.6324 41.1596 14.5396 41.7861 15.2388C42.4031 15.9364 43.74 16.7268 45.7888 17.6084C45.9043 17.658 46.0862 17.73 46.3267 17.826C48.6365 18.778 50.1886 19.6964 50.9622 20.57C51.5001 21.1636 51.9099 21.8372 52.1899 22.5972C52.47 23.3588 52.6108 24.1588 52.6108 25.0164C52.6108 27.034 51.9162 28.6852 50.5287 29.9812C49.1444 31.274 47.374 31.9236 45.2161 31.9236C44.1355 31.9236 43.0597 31.7412 41.9949 31.3636C40.9302 30.9956 39.856 30.4404 38.7754 29.6964V27.2356C39.9556 28.1636 41.0694 28.858 42.1215 29.306C43.1736 29.7588 44.1956 29.986 45.186 29.986C46.8156 29.986 48.1034 29.5348 49.0605 28.6308C50.0098 27.7252 50.4876 26.49 50.4876 24.938C50.4876 23.7908 50.1601 22.85 49.5114 22.1236C48.8612 21.3924 47.3851 20.5428 45.0705 19.5636C42.6768 18.5604 41.0425 17.554 40.1566 16.538C39.2785 15.5156 38.8355 14.218 38.8355 12.6388C38.8355 10.6756 39.5063 9.06602 40.8463 7.81962C42.188 6.57482 43.9377 5.94922 46.0925 5.94922C47.0734 5.94922 48.0259 6.08842 48.9561 6.35242C49.8864 6.62282 50.823 7.03882 51.7643 7.60202V9.86282Z" fill="#231F20"/>
<path fill-rule="evenodd" clip-rule="evenodd" d="M60.8869 28.2877L53.9795 14.8525H56.0315L61.882 26.2221L67.3624 14.8525H69.2546L57.1184 39.9373H55.2673L60.8869 28.2877Z" fill="#231F20"/>
<path fill-rule="evenodd" clip-rule="evenodd" d="M72.4612 20.8068C72.4612 22.002 72.8789 23.0212 73.7158 23.8564C74.5559 24.6996 75.5763 25.1156 76.7771 25.1156C77.9653 25.1156 78.9747 24.6964 79.8084 23.85C80.639 23.0004 81.0567 21.9796 81.0567 20.7732C81.0567 19.5636 80.639 18.5364 79.8084 17.6932C78.9747 16.8468 77.9653 16.4244 76.7771 16.4244C75.5874 16.4244 74.5701 16.8516 73.7253 17.7092C72.8836 18.5668 72.4612 19.602 72.4612 20.8068ZM76.9195 32.3972C75.0416 32.3972 73.6446 32.658 72.7349 33.1844C71.8284 33.714 71.3711 34.5156 71.3711 35.5956C71.3711 36.5044 71.8442 37.2116 72.7934 37.7172C73.7364 38.2148 75.0653 38.4676 76.7819 38.4676C78.6567 38.4676 80.0837 38.202 81.052 37.6676C82.0202 37.138 82.5075 36.3524 82.5075 35.306C82.5075 34.3236 82.0503 33.5924 81.1421 33.114C80.2308 32.6324 78.826 32.3972 76.9195 32.3972ZM74.7125 26.314C73.3725 25.7844 72.3615 25.0484 71.6781 24.1108C70.9914 23.1748 70.6497 22.0612 70.6497 20.7732C70.6497 19.7364 70.9013 18.7828 71.4139 17.9124C71.9233 17.042 72.6511 16.3028 73.6051 15.7028C74.0908 15.3988 74.6461 15.186 75.2757 15.05C75.9038 14.9204 76.8911 14.8516 78.2327 14.8516H84.3728V16.4244H80.8605C81.5329 17.0612 82.0202 17.73 82.3382 18.4308C82.6578 19.1268 82.816 19.906 82.816 20.762C82.816 22.2532 82.3809 23.4836 81.5218 24.4452C80.6643 25.4068 79.3211 26.1604 77.5081 26.6884C77.2217 26.7716 76.8183 26.8836 76.2962 27.018C74.3929 27.5028 73.4437 28.1924 73.4437 29.0772C73.4437 29.906 74.7537 30.4468 77.372 30.7028C77.4527 30.7124 77.5191 30.7156 77.5682 30.7156C80.1407 30.9732 81.8984 31.4276 82.8492 32.0916C83.789 32.7492 84.2668 33.786 84.2668 35.1972C84.2668 36.8052 83.6387 38.0036 82.392 38.802C81.1453 39.5908 79.2484 39.9892 76.7044 39.9892C74.4214 39.9892 72.6795 39.6068 71.474 38.8452C70.2684 38.0868 69.6641 36.9844 69.6641 35.5588C69.6641 34.4772 70.0501 33.5732 70.8269 32.8468C71.6021 32.1204 72.6795 31.658 74.0528 31.4676C73.325 31.2964 72.7681 31.0084 72.3742 30.602C71.9834 30.194 71.7857 29.7012 71.7857 29.1172C71.7857 28.4868 72.0419 27.9268 72.5545 27.4308C73.0624 26.9412 73.787 26.5636 74.7125 26.314Z" fill="#231F20"/>
<path fill-rule="evenodd" clip-rule="evenodd" d="M86.9004 31.5558H88.7657V14.8534H86.9004V31.5558ZM86.9004 9.35578H88.7657V6.31738H86.9004V9.35578Z" fill="#231F20"/>
<path fill-rule="evenodd" clip-rule="evenodd" d="M105.121 30.8924C104.437 31.2236 103.76 31.47 103.075 31.63C102.39 31.79 101.689 31.87 100.966 31.87C98.4317 31.87 96.3528 31.0572 94.7217 29.4284C93.0905 27.806 92.2773 25.718 92.2773 23.1772C92.2773 20.7084 93.1143 18.6396 94.7945 16.982C96.4699 15.3196 98.5725 14.4844 101.109 14.4844C101.724 14.4844 102.341 14.5468 102.952 14.6652C103.566 14.7836 104.181 14.9724 104.8 15.222V17.3148C104.17 16.9356 103.534 16.6588 102.896 16.4812C102.251 16.3036 101.574 16.214 100.867 16.214C99.0392 16.214 97.484 16.8924 96.2104 18.2508C94.9353 19.6092 94.2993 21.27 94.2993 23.2204C94.2993 25.19 94.9305 26.846 96.2009 28.1836C97.4729 29.526 99.0265 30.1964 100.867 30.1964C101.553 30.1964 102.251 30.0844 102.958 29.8572C103.664 29.6284 104.382 29.2876 105.121 28.83V30.8924Z" fill="#231F20"/>
</g>
<defs>
<clipPath id="clip0_1439_2019">
<rect width="106" height="40" fill="white" transform="translate(0 0.242188)"/>
</clipPath>
</defs>
</svg>
